<svg width="412" height="304" viewBox="0 0 412 304" fill="none" xmlns="http://www.w3.org/2000/svg">
<path d="M202.3 281.3C105.1 281.3 26 226.5 26 159.1C26 91.6999 105.1 36.8999 202.3 36.8999C299.5 36.8999 378.6 91.6999 378.6 159.1C378.6 179.9 370.9 200.5 356.4 218.6C358.3 245 360.5 276.6 360.5 277C360.5 277.4 360.2 277.7 359.8 277.7C359.5 277.7 359.3 277.6 359.1 277.3L337.9 237.2C304.2 265.2 254.9 281.3 202.3 281.3ZM202.3 38.2999C105.9 38.2999 27.4 92.4999 27.4 159.1C27.4 225.7 105.8 279.9 202.3 279.9C254.9 279.9 304.3 263.7 337.7 235.6C338 235.4 338.4 235.4 338.7 235.7L338.8 235.8L358.9 273.7C358.3 264.9 356.6 239.9 355 218.4C355 218.2 355 218 355.2 217.9C369.7 200 377.3 179.7 377.3 159.1C377.1 92.4999 298.7 38.2999 202.3 38.2999Z" fill="#D1D3D4"/>
<path d="M340.401 150.7C340.301 150.7 340.201 150.7 340.001 150.6C339.701 150.4 339.601 150.1 339.701 149.7L345.801 133.4C337.801 127.5 333.301 119.1 333.301 110.3C333.301 92.9999 350.801 78.8999 372.201 78.8999C393.601 78.8999 411.101 92.9999 411.101 110.3C411.101 127.6 393.601 141.7 372.201 141.7C365.301 141.7 358.501 140.2 352.301 137.3L340.901 150.4C340.701 150.6 340.601 150.7 340.401 150.7ZM372.201 80.2999C351.501 80.2999 334.701 93.7999 334.701 110.3C334.701 118.8 339.201 126.9 347.101 132.6C347.401 132.8 347.501 133.1 347.301 133.4L342.401 146.6L351.601 136C351.801 135.8 352.201 135.7 352.401 135.8C358.601 138.8 365.301 140.4 372.201 140.3C392.901 140.3 409.701 126.8 409.701 110.3C409.701 93.7999 392.901 80.2999 372.201 80.2999Z" fill="#D1D3D4"/>
<path d="M54.1004 187C53.9004 187 53.8004 187 53.7004 186.9C49.1004 183.3 44.7004 179.4 40.6004 175.2H38.9004C17.9004 175.2 0.900391 163.9 0.900391 150C0.900391 136.1 17.9004 124.8 38.9004 124.8C59.9004 124.8 76.9004 136.1 76.9004 150C76.9004 160.3 67.3004 169.6 52.9004 173.4L54.8004 186.2C54.8004 186.5 54.7004 186.8 54.5004 186.9C54.3004 187 54.2004 187 54.1004 187ZM40.9004 173.7C41.1004 173.7 41.3004 173.8 41.4004 173.9C45.1004 177.7 49.0004 181.3 53.2004 184.6L51.4004 173C51.3004 172.6 51.6004 172.3 51.9004 172.2C66.0004 168.7 75.5004 159.8 75.5004 150C75.5004 136.9 59.1004 126.2 38.9004 126.2C18.7004 126.2 2.30039 136.9 2.30039 150C2.30039 163.1 18.7004 173.8 38.9004 173.8C39.5004 173.8 40.2004 173.8 40.9004 173.7Z" fill="#D1D3D4"/>
<path d="M84.9004 31.1003C84.9004 31.1003 88.1004 25.1003 93.3004 16.8003C93.3004 16.8003 109.9 29.2003 109.7 28.5003C109.5 27.8003 84.9004 31.1003 84.9004 31.1003Z" fill="#231F20"/>
<path d="M84.9012 31.8002C84.5012 31.8002 84.2012 31.5002 84.2012 31.1002C84.2012 31.0002 84.2012 30.9002 84.3012 30.8002C84.3012 30.7002 87.6012 24.7002 92.8012 16.5002C92.9012 16.3002 93.1012 16.2002 93.3012 16.2002C93.5012 16.2002 93.7012 16.2002 93.8012 16.3002C99.5012 20.6002 109.001 27.5002 109.901 27.9002C110.401 28.0002 110.401 28.2002 110.401 28.4002C110.401 28.7002 110.301 29.0002 110.101 29.2002C110.001 29.3002 109.801 29.4002 109.401 29.2002C107.901 28.9002 93.7012 30.6002 84.9012 31.8002ZM93.6012 17.8002C90.0012 23.5002 87.4012 28.1002 86.2012 30.2002C98.2012 28.6002 104.201 28.0002 107.301 27.8002C105.101 26.3002 101.101 23.4002 93.6012 17.8002Z" fill="#231F20"/>
<path d="M304.2 280.7L312.4 267L301 256.6L304.2 280.7Z" fill="#231F20"/>
<path d="M304.201 281.4H304.001C303.701 281.3 303.501 281.1 303.501 280.8L300.301 256.7C300.301 256.4 300.401 256.1 300.701 256C301.001 255.9 301.301 255.9 301.501 256.1L312.901 266.4C313.101 266.6 313.201 267 313.001 267.3L304.701 281.1C304.601 281.3 304.401 281.4 304.201 281.4ZM301.901 258.4L304.601 278.6L311.501 267.1L301.901 258.4Z" fill="#231F20"/>
<path d="M298.801 283.6L165.801 302.6C160.201 303.3 154.801 299.9 153.201 294.4L84.4008 37C83.0008 31.7 86.4008 27 92.0008 26.5L227.601 15.6C233.101 15.3 238.101 18.9 239.701 24.2L305.701 273.1C307.001 277.5 304.501 282.1 300.101 283.4C299.701 283.5 299.301 283.6 298.801 283.6Z" fill="#231F20"/>
<path d="M164.301 303.4C158.901 303.4 154.101 299.8 152.501 294.6L83.7007 37.1003C82.9007 34.5003 83.4007 31.7003 84.9007 29.5003C86.6007 27.2003 89.2007 25.8003 92.0007 25.7003L227.601 14.8003C233.501 14.5003 238.801 18.3003 240.401 23.9003L306.401 272.8C307.101 275.4 306.701 278.1 305.301 280.4C303.801 282.6 301.501 284 298.901 284.3L166.001 303.3C165.501 303.4 164.901 303.4 164.301 303.4ZM228.501 16.2003C228.201 16.2003 228.001 16.2003 227.701 16.2003L92.1007 27.2003C89.7007 27.3003 87.5007 28.5003 86.1007 30.4003C84.8007 32.3003 84.5007 34.6003 85.1007 36.8003L154.001 294.2C155.501 299.3 160.501 302.5 165.801 301.9L298.801 282.9C301.001 282.6 303.001 281.4 304.201 279.6C305.401 277.7 305.801 275.3 305.201 273.2L239.201 24.3003C237.701 19.5003 233.401 16.3003 228.501 16.2003Z" fill="#231F20"/>
<path d="M307.5 269.4L174.5 288.4C168.9 289.1 163.5 285.7 161.9 280.2L93.1 22.7001C91.7 17.4001 95.1 12.7001 100.7 12.2001L236.3 1.30015C241.8 1.00015 246.8 4.60015 248.4 9.90015L314.4 258.8C315.7 263.2 313.2 267.8 308.9 269.1C308.4 269.3 307.9 269.4 307.5 269.4Z" fill="white"/>
<path d="M173 289.2C167.6 289.2 162.8 285.6 161.2 280.4L92.4 22.9001C91.6 20.3001 92.1 17.5001 93.6 15.3001C95.3 13.0001 97.9 11.6001 100.7 11.5001L236.3 0.600074C242.2 0.300074 247.5 4.10007 249.1 9.70007L315.1 258.6C315.8 261.2 315.4 263.9 314 266.1C312.5 268.3 310.2 269.7 307.6 270L174.6 289C174.1 289.1 173.5 289.2 173 289.2ZM237.2 2.00008H236.4L100.8 13.0001C98.4 13.1001 96.2 14.3001 94.8 16.2001C93.5 18.1001 93.1 20.4001 93.8 22.6001L162.6 280C164.1 285.1 169.1 288.3 174.4 287.7L307.4 268.7C309.6 268.4 311.6 267.2 312.8 265.4C314 263.5 314.4 261.2 313.7 259L247.7 10.1001C246.3 5.30007 242.1 2.10008 237.2 2.00008Z" fill="#231F20"/>
<path d="M106.201 39.7002L245.101 27.7002L298.301 228.5L161.501 246.7L106.201 39.7002Z" fill="black"/>
<path d="M252.5 267.9L226.5 271.5C223.1 271.9 219.9 269.8 218.9 266.5L216.3 256.8C215.5 254 217.1 251.1 219.8 250.3C220.1 250.2 220.4 250.1 220.7 250.1L246.7 246.6C250.1 246.2 253.2 248.3 254.2 251.6L256.7 261.2C257.5 263.9 255.9 266.8 253.2 267.6C253.1 267.8 252.8 267.9 252.5 267.9Z" fill="white"/>
<path d="M225.7 272.4C222.3 272.4 219.3 270.1 218.3 266.8L215.7 257.1C215.2 255.4 215.5 253.6 216.4 252.2C217.4 250.7 219 249.8 220.7 249.6L246.7 246.1C250.4 245.7 253.9 248 254.9 251.6L257.5 261.2C258.4 264.3 256.6 267.6 253.5 268.5C253.2 268.6 252.8 268.7 252.5 268.7L226.5 272.3C226.3 272.3 226 272.3 225.7 272.4ZM247.7 247.4C247.4 247.4 247.2 247.4 246.9 247.4L221 251C219.7 251.2 218.4 251.9 217.7 253C217 254.1 216.8 255.5 217.1 256.8L219.7 266.5C220.6 269.5 223.4 271.3 226.5 271L252.5 267.4C255 267.1 256.7 265 256.5 262.5C256.5 262.2 256.4 261.9 256.3 261.7L253.8 252.1C253 249.3 250.5 247.4 247.7 247.4Z" fill="#D1D3D4"/>
<path d="M147.302 22.4002C146.902 22.4002 146.602 22.1002 146.602 21.7002C146.602 21.3002 146.902 21.0002 147.302 21.0002L187.002 17.7002C187.402 17.7002 187.702 17.9002 187.802 18.3002C187.802 18.7002 187.502 19.0002 187.202 19.1002L147.302 22.4002Z" fill="#D1D3D4"/>
<path d="M192.501 18.6999C192.101 18.6999 191.801 18.3999 191.801 17.9999C191.801 17.5999 192.101 17.2999 192.501 17.2999L197.801 16.8999C198.201 16.8999 198.501 17.1999 198.601 17.4999C198.601 17.8999 198.301 18.1999 198.001 18.2999L192.501 18.6999Z" fill="#D1D3D4"/>
<path d="M155.901 136.5C155.801 136.5 155.601 136.5 155.501 136.4C155.201 136.2 155.101 135.7 155.301 135.4L218.101 43.7003C218.301 43.4003 218.801 43.4003 219.101 43.6003C219.401 43.8003 219.401 44.2003 219.301 44.5003L156.501 136.2C156.301 136.4 156.101 136.5 155.901 136.5Z" fill="white"/>
<path d="M206.901 214.1C206.801 214.1 206.601 214.1 206.501 214C206.201 213.8 206.101 213.4 206.301 213L244.201 158.7C244.401 158.4 244.901 158.3 245.201 158.5C245.501 158.7 245.601 159.2 245.401 159.5L207.501 213.8C207.401 214 207.101 214.1 206.901 214.1Z" fill="white"/>
<path d="M196.601 162.7C196.501 162.7 196.301 162.7 196.201 162.6C195.901 162.4 195.801 161.9 196.001 161.6L210.801 139.6C211.001 139.3 211.501 139.2 211.801 139.5C212.101 139.7 212.201 140.1 212.001 140.4L197.201 162.4C197.001 162.5 196.801 162.7 196.601 162.7Z" fill="white"/>
<path d="M148.999 101.1L79.299 106.8C76.699 106.8 74.499 105 73.999 102.5L63.699 55.6996C63.099 53.1996 64.599 50.9996 66.899 50.7996L136.399 46.5996C138.799 46.6996 140.899 48.3996 141.399 50.7996L151.899 96.0996C152.599 98.7996 151.199 100.9 148.999 101.1Z" fill="white"/>
<path d="M136.7 46.6998C139.1 46.8998 141 48.5998 141.5 50.8998L151.9 96.1998C152.5 98.6998 151.1 100.9 148.9 101L79.1996 106.7H78.9996C76.4996 106.6 74.4996 104.8 73.9996 102.4L63.6996 55.5998C63.0996 53.0998 64.5996 50.8998 66.8996 50.6998L136.4 46.4998L136.7 46.6998ZM136.7 45.2998H136.4L66.9996 49.4998C65.5996 49.5998 64.1996 50.2998 63.3996 51.3998C62.3996 52.6998 62.0996 54.3998 62.4996 55.9998L72.7996 102.8C73.3996 105.8 75.9996 108.1 79.0996 108.2C79.1996 108.2 79.3996 108.2 79.4996 108.2L149.1 102.5C150.5 102.4 151.7 101.7 152.5 100.6C153.4 99.1998 153.7 97.4998 153.3 95.9998L143 50.5998C142.4 47.5998 139.8 45.4998 136.8 45.2998H136.7Z" fill="#231F20"/>
<path d="M110.599 86.6996C110.499 86.6996 110.299 86.5997 110.199 86.5997L63.9994 52.8996C63.6994 52.6996 63.5994 52.1996 63.7994 51.8996C63.9994 51.5996 64.4994 51.4997 64.7994 51.7997L110.499 84.9997L138.999 47.2997C139.199 46.9997 139.699 46.8997 139.999 47.0997C140.299 47.2997 140.399 47.7997 140.199 48.0997L111.199 86.2997C110.999 86.5997 110.799 86.6996 110.599 86.6996Z" fill="#D1D3D4"/>
<path d="M151.5 100.4C151.4 100.4 151.2 100.4 151.1 100.3L117.3 77.2997C117 77.0997 116.9 76.6997 117.1 76.2997C117.3 75.9997 117.7 75.8997 118.1 76.0997L151.9 99.0997C152.2 99.2997 152.3 99.7997 152.1 100.1C151.9 100.3 151.7 100.4 151.5 100.4Z" fill="#D1D3D4"/>
<path d="M76.1999 106.5C75.9999 106.5 75.8999 106.4 75.7999 106.3C75.4999 106.1 75.4999 105.6 75.6999 105.3L98.9999 77.4996C99.1999 77.1996 99.6999 77.1996 99.9999 77.3996C100.3 77.6996 100.3 78.0996 100.1 78.3996L76.6999 106.2C76.5999 106.4 76.3999 106.5 76.1999 106.5Z" fill="#D1D3D4"/>
<path d="M293.4 37.7999L220.6 42.5999C216.8 42.7999 213.9 46.0999 214.1 49.8999C214.1 50.2999 214.2 50.6999 214.3 50.9999L226 94.9999C227 99.3999 231 102.5 235.6 102.2L239.1 101.9L240.6 119L250.5 100.9L307.7 97.4999C311.4 97.1999 314.2 93.8999 313.9 90.1999C313.9 89.7999 313.8 89.3999 313.7 88.9999L302.9 44.9999C301.8 40.4999 297.8 37.4999 293.4 37.7999Z" fill="white"/>
<path d="M240.5 119.6H240.4C240.1 119.5 239.9 119.3 239.9 119L238.5 102.7L235.7 103C230.8 103.3 226.4 100.1 225.4 95.3001L213.8 51.3001C212.9 47.2001 215.4 43.2001 219.5 42.2001C219.9 42.1001 220.3 42.0001 220.7 42.0001L293.5 37.2001C298.2 36.9001 302.5 40.1001 303.6 44.7001L314.4 88.7001C315 90.9001 314.5 93.2001 313.2 95.1001C311.9 96.8001 309.9 97.9001 307.7 98.1001L250.9 101.5L241.1 119.3C241 119.4 240.7 119.6 240.5 119.6ZM239 101.1C239.4 101.1 239.7 101.4 239.7 101.7L241 116.4L249.8 100.3C249.9 100.1 250.1 100 250.4 99.9001L307.6 96.5001C309.4 96.4001 311 95.5001 312 94.0001C313.1 92.5001 313.4 90.6001 313 88.8001L302.2 44.8001C301.2 40.9001 297.6 38.2001 293.5 38.4001L220.7 43.2001C217.3 43.4001 214.7 46.3001 214.9 49.7001C214.9 50.0001 215 50.4001 215 50.7001L226.6 94.7001C227.5 98.8001 231.2 101.6 235.4 101.3L239 101.1Z" fill="#231F20"/>
<path d="M270.099 90.7003C268.999 89.8003 267.899 89.0003 266.799 88.1003L257.499 81.3003C255.499 79.8003 253.399 78.3004 251.499 76.6004C249.799 75.1004 248.299 73.4003 247.099 71.5003C246.399 70.2003 245.799 68.8003 245.399 67.4003C244.999 66.2003 244.799 64.9004 244.599 63.6004C243.999 59.4004 246.399 55.4003 250.299 53.9003C254.599 52.3003 258.699 53.2003 262.499 56.3003C263.399 57.0003 264.199 57.8003 264.899 58.7003L264.999 58.9003C264.999 58.8003 265.099 58.7003 265.099 58.7003C265.999 56.7003 267.499 55.0003 269.399 53.9003C271.099 52.9003 273.099 52.5004 275.099 52.6004C280.199 52.8004 284.599 56.2003 286.199 61.0003C286.599 62.2003 286.799 63.5003 286.899 64.8003C286.999 66.2003 286.999 67.5003 286.899 68.9003C286.599 70.9003 285.899 72.8003 284.799 74.5003C283.699 76.2003 282.299 77.8003 280.899 79.3003C278.799 81.5003 276.599 83.8003 274.399 86.0003C272.899 87.6003 271.499 89.1003 270.099 90.7003Z" fill="#D1D3D4"/>
<path d="M160.299 166L158.099 166.2L157.699 150.8C157.699 150.8 152.399 161 149.099 166.9L81.8992 171.9C78.2992 172.2 75.6992 174.9 76.2992 178.1L84.9992 227.7C85.5992 231.1 89.0992 233.5 92.8992 233.1L174.099 225.1C177.599 224.7 179.899 221.8 179.099 218.6L167.799 171C166.999 167.9 163.699 165.7 160.299 166Z" fill="white"/>
<path d="M92.0998 233.8C88.2998 233.8 84.8998 231.2 84.1998 227.7L75.4998 178.1C75.1998 176.5 75.5998 174.9 76.5998 173.7C77.8998 172.2 79.6998 171.2 81.6998 171.1L148.5 166.1C151.8 160.2 156.9 150.5 156.9 150.4C157 150.1 157.4 150 157.7 150C158 150.1 158.2 150.3 158.3 150.7L158.7 165.3L160.1 165.2C163.8 164.9 167.5 167.4 168.3 170.7L179.6 218.3C180 219.9 179.7 221.7 178.7 223.1C177.6 224.6 175.9 225.6 174 225.7L92.7998 233.7C92.6998 233.7 92.3998 233.7 92.0998 233.8ZM157.1 153.4C155.3 156.8 152 163 149.7 167.1C149.6 167.3 149.4 167.4 149.1 167.5L81.8998 172.5C80.2998 172.6 78.7998 173.3 77.7998 174.5C77.0998 175.4 76.7998 176.6 76.9998 177.8L85.6998 227.4C86.1998 230.4 89.3998 232.6 92.8998 232.3L174.1 224.3C175.6 224.2 176.9 223.5 177.8 222.3C178.5 221.3 178.8 219.9 178.5 218.7L167.2 171.1C166.6 168.4 163.5 166.4 160.4 166.6L158.2 166.8C158 166.8 157.8 166.8 157.7 166.6C157.6 166.5 157.5 166.3 157.5 166.1L157.1 153.4Z" fill="#231F20"/>
<path d="M116.3 218.8L106.8 219.7L102 194.6L111.4 193.9L116.3 218.8Z" fill="#D1D3D4"/>
<path d="M106.799 220C106.699 220 106.599 219.9 106.599 219.8L101.799 194.7C101.799 194.6 101.799 194.6 101.799 194.5C101.799 194.4 101.899 194.4 101.999 194.4L111.399 193.6C111.499 193.6 111.599 193.7 111.599 193.8L116.499 218.8C116.499 218.9 116.499 218.9 116.499 219C116.499 219.1 116.399 219.1 116.299 219.1L106.799 220ZM102.199 194.9L106.899 219.5L115.999 218.6L111.199 194.1L102.199 194.9Z" fill="#D1D3D4"/>
<path d="M115.4 195.6C115.4 195.6 123.1 193 125.5 188.3C127.9 183.6 127 175.9 128.1 175.4C130.2 174.8 132.5 175.7 133.8 177.5C135.5 179.9 136.1 187 134.3 191.9C134.3 191.9 144.5 190.9 149.1 190.5C153.7 190.1 155.5 194 153.1 195.9C153.1 195.9 156.8 196 156.2 199.4C155.6 202.8 154.3 203 152.2 203.2C152.2 203.2 154.8 203.6 154.6 206.1C154.4 208.6 151.3 209.5 151.3 209.5C151.3 209.5 154.5 210.6 153 213.6C151.5 216.6 146.5 216.7 134.7 217.1C122.9 217.5 119.1 215.2 119.1 215.2L115.4 195.6Z" fill="#D1D3D4"/>
<path d="M132.199 217.4C122.499 217.4 119.299 215.5 119.199 215.4C119.099 215.4 119.099 215.3 119.099 215.3L115.199 195.7C115.199 195.6 115.199 195.5 115.299 195.5C115.399 195.5 122.899 192.9 125.299 188.4C126.699 185.8 126.899 182.1 127.099 179.4C127.299 176.9 127.399 175.7 127.999 175.4C129.399 174.8 132.299 175.2 133.899 177.6C135.499 180 136.199 187 134.599 191.8C136.399 191.6 144.999 190.8 149.099 190.5C151.999 190.3 153.699 191.7 154.199 193C154.599 194 154.399 195.2 153.699 196C154.599 196.1 155.399 196.6 155.999 197.2C156.499 197.9 156.699 198.8 156.499 199.7C155.999 202.6 154.899 203.3 153.299 203.6C154.399 204.1 155.099 205.2 154.899 206.4C154.699 208.4 152.899 209.4 151.999 209.8C152.699 210.1 153.299 210.7 153.599 211.4C153.899 212.2 153.799 213.1 153.299 213.9C151.699 217 146.399 217.1 134.799 217.5C133.899 217.3 132.999 217.4 132.199 217.4ZM119.499 215C120.099 215.3 124.099 217.2 134.899 216.8C146.299 216.4 151.499 216.3 152.999 213.4C153.399 212.8 153.499 212 153.199 211.3C152.799 210.6 152.199 210 151.399 209.7C151.299 209.7 151.299 209.6 151.299 209.5C151.299 209.4 151.399 209.3 151.499 209.3C151.499 209.3 154.399 208.4 154.599 206.1C154.699 204.8 153.699 203.6 152.399 203.5C152.299 203.5 152.199 203.4 152.199 203.3C152.199 203.2 152.299 203.1 152.399 203.1C154.299 202.9 155.599 202.8 156.199 199.5C156.399 198.8 156.199 198 155.799 197.4C155.099 196.7 154.199 196.3 153.299 196.3C153.199 196.3 153.099 196.2 153.099 196.2C153.099 196.1 153.099 196 153.199 196C154.099 195.3 154.399 194.2 153.999 193.2C153.499 192.1 152.099 190.8 149.399 191C144.799 191.4 134.699 192.3 134.599 192.4C134.499 192.4 134.499 192.4 134.399 192.3C134.399 192.2 134.399 192.2 134.399 192.1C136.099 187.4 135.599 180.3 133.899 177.9C132.699 176.2 130.499 175.4 128.499 175.9C128.099 176.1 127.999 177.8 127.899 179.5C127.699 182.2 127.399 186 125.999 188.7C123.799 193 117.099 195.6 115.899 196L119.499 215Z" fill="#D1D3D4"/>
<path d="M316 210.4L247.3 217C242.4 217.5 237.4 213.8 236.1 208.7L226.1 167.7C224.8 162.6 227.8 157.9 232.8 157.4L301.8 149.9C306.9 149.3 312 153.1 313.3 158.3L323.1 200C324.2 205.4 321.1 209.9 316 210.4Z" fill="white"/>
<path d="M246.501 217.8C241.301 217.6 236.801 214 235.501 208.9L225.501 167.9C224.801 165.3 225.301 162.5 226.801 160.2C228.201 158.2 230.401 156.9 232.801 156.7L301.801 149.2C307.201 148.6 312.701 152.6 314.001 158.2L323.801 199.9C324.501 202.5 324.001 205.3 322.401 207.5C320.901 209.5 318.601 210.8 316.101 211L247.401 217.6C247.101 217.8 246.801 217.8 246.501 217.8ZM302.801 150.6C302.501 150.6 302.101 150.6 301.801 150.7L232.801 158.2C230.801 158.4 229.001 159.5 227.801 161.1C226.501 163 226.101 165.4 226.801 167.6L236.801 208.6C238.001 213.3 242.601 216.8 247.201 216.4L316.001 209.7C318.101 209.5 320.001 208.5 321.201 206.7C322.501 204.8 322.901 202.5 322.301 200.2L312.501 158.5C311.501 154.1 307.501 150.8 302.801 150.6Z" fill="#231F20"/>
<path d="M294.301 183.2L269.601 202.5C267.801 203.9 265.001 202.6 264.401 200.2L256.501 167.7C256.101 166.2 256.901 164.7 258.401 164.2C259.101 164 259.801 164.1 260.401 164.4L293.001 177.7C295.401 178.6 296.101 181.7 294.301 183.2Z" fill="#D1D3D4"/>
</svg>
