<svg width="414" height="276" viewBox="0 0 414 276" fill="none" xmlns="http://www.w3.org/2000/svg">
<path d="M89.5999 131.8C89.5999 131.8 87.8999 173 92.4999 186.6H113.6C115.8 186.6 117.8 188.1 118.5 190.2L119.6 194H65.7999C61.6999 191.3 58.2999 187.8 55.7999 183.7C52.1999 177.3 54.3999 131.9 54.3999 131.9H89.5999V131.8Z" fill="white"/>
<path d="M119.601 194.6H65.8006C65.7006 194.6 65.6006 194.6 65.5006 194.5C61.4006 191.8 57.9006 188.2 55.3006 184C51.6006 177.5 53.7006 133.7 53.8006 131.8C53.8006 131.5 54.1006 131.2 54.5006 131.2H89.5006C89.7006 131.2 89.8006 131.3 90.0006 131.4C90.1006 131.5 90.2006 131.7 90.2006 131.9C90.2006 132.3 88.6006 172.3 92.9006 186H113.601C116.101 186 118.401 187.6 119.101 190.1L120.201 193.9C120.301 194.3 120.101 194.6 119.701 194.7C119.701 194.6 119.601 194.6 119.601 194.6ZM66.0006 193.3H118.701L117.801 190.3C117.201 188.4 115.501 187.2 113.601 187.2H92.5006C92.2006 187.2 92.0006 187 91.9006 186.8C87.5006 174.1 88.7006 138.1 88.9006 132.5H55.1006C54.3006 148.4 53.7006 178.5 56.4006 183.4C58.9006 187.3 62.1006 190.7 66.0006 193.3Z" fill="#231F20"/>
<path d="M57.0998 175.7C57.0998 184.3 59.6998 186.9 63.0998 186.9H76.5998C78.4998 186.9 80.1998 188.1 80.8998 189.9L82.3998 194H61.5998C56.2998 194 52.4998 185.9 52.2998 177.3C52.0998 168.7 52.2998 131.8 52.2998 131.8H56.8998C56.8998 131.8 57.0998 167.1 57.0998 175.7Z" fill="#231F20"/>
<path d="M82.2991 194.6H61.4991C55.4991 194.6 51.6991 185.8 51.5991 177.3C51.4991 168.8 51.5991 132.2 51.5991 131.8C51.5991 131.4 51.8991 131.2 52.2991 131.2H56.8991C57.2991 131.2 57.5991 131.5 57.5991 131.8C57.5991 132.2 57.7991 167.3 57.7991 175.8C57.7991 186.3 61.7991 186.3 63.1991 186.3H76.6991C78.8991 186.3 80.7991 187.7 81.5991 189.7L83.0991 193.8C83.1991 194 83.0991 194.2 82.9991 194.4C82.6991 194.5 82.4991 194.6 82.2991 194.6ZM52.8991 132.4C52.8991 137.4 52.6991 169.4 52.8991 177.2C53.0991 186 56.8991 193.2 61.4991 193.2H81.2991L80.0991 190C79.4991 188.5 78.0991 187.5 76.3991 187.5H62.8991C58.3991 187.5 56.1991 183.6 56.1991 175.7C56.1991 167.8 56.0991 137.3 55.9991 132.4H52.8991Z" fill="#231F20"/>
<path d="M129.6 35.4001L137.7 128.4C138.2 132.4 135.4 136.1 131.3 136.7C131 136.7 130.7 136.8 130.4 136.8H19.5999C14.9999 136.6 11.2999 133.1 10.8999 128.5L2.79991 35.5001C2.29991 31.5001 5.09991 27.8001 9.19991 27.2001C9.49991 27.2001 9.79991 27.1001 10.0999 27.1001H121C125.5 27.3001 129.2 30.8001 129.6 35.4001Z" fill="#231F20"/>
<path d="M130.5 137.4H19.5997C14.6997 137.2 10.5997 133.4 10.1997 128.5L2.09974 35.4999C1.89974 33.0999 2.59974 30.7999 4.19974 28.9999C5.69974 27.3999 7.79974 26.3999 9.99974 26.3999H120.9C125.8 26.5999 129.8 30.3999 130.3 35.2999L138.4 128.3C138.6 130.7 137.9 133 136.3 134.8C134.8 136.5 132.7 137.4 130.5 137.4ZM9.99974 27.6999C8.19974 27.6999 6.39974 28.3999 5.19974 29.7999C3.89974 31.2999 3.19974 33.2999 3.39974 35.2999L11.4997 128.3C11.8997 132.6 15.2997 135.9 19.5997 136H130.5C132.3 136 134.1 135.3 135.4 133.9C136.7 132.4 137.4 130.4 137.2 128.4L129.1 35.3999C128.7 31.1999 125.3 27.7999 121 27.6999H9.99974Z" fill="#231F20"/>
<path d="M130 35L137.8 123.8C138.3 127.7 135.6 131.2 131.8 131.7C131.5 131.7 131.2 131.8 130.8 131.8H24.9999C20.5999 131.6 16.9999 128.2 16.6999 123.8L8.79987 35C8.29987 31.2 10.9999 27.6 14.7999 27.1C15.0999 27.1 15.3999 27 15.7999 27H121.7C126.1 27.2 129.6 30.6 130 35Z" fill="white"/>
<path d="M130.799 132.4H24.9991C20.2991 132.2 16.3991 128.6 15.9991 123.9L8.19914 35.1C7.89914 32.8 8.69914 30.6 10.1991 28.9C11.5991 27.3 13.6991 26.5 15.7991 26.5H121.699C126.399 26.7 130.299 30.3 130.699 35L138.499 123.8C138.799 126.1 137.999 128.3 136.499 130C134.999 131.6 132.999 132.4 130.799 132.4ZM15.7991 27.7C13.9991 27.7 12.3991 28.4 11.1991 29.7C9.89914 31.1 9.29914 33 9.49914 35L17.2991 123.8C17.5991 127.9 20.9991 131 24.9991 131.1H130.799C132.599 131.1 134.199 130.4 135.399 129.1C136.699 127.7 137.299 125.8 137.099 123.9L129.299 35.1C128.999 31.1 125.699 27.9 121.599 27.7H15.7991Z" fill="#231F20"/>
<path d="M136.5 108.9L137.8 123.8C138.3 127.7 135.6 131.2 131.8 131.7C131.5 131.7 131.2 131.8 130.8 131.8H25.0004C20.6004 131.6 17.0004 128.2 16.7004 123.8L15.4004 108.9H136.5Z" fill="white"/>
<path d="M130.799 132.4H24.9992C20.2992 132.2 16.3992 128.6 15.9992 123.9L14.6992 109C14.6992 108.8 14.6992 108.6 14.8992 108.5C14.9992 108.4 15.1992 108.3 15.3992 108.3H136.599C136.899 108.3 137.199 108.6 137.199 108.9L138.499 123.8C138.799 126.1 137.999 128.3 136.499 130C134.999 131.6 132.899 132.4 130.799 132.4ZM15.9992 109.6L17.1992 123.8C17.4992 127.9 20.8992 131 24.9992 131.2H130.799C132.599 131.2 134.199 130.5 135.399 129.2C136.699 127.8 137.299 125.9 137.099 124L135.899 109.7H15.9992V109.6Z" fill="#231F20"/>
<path d="M79.8142 124.706C82.0163 123.23 82.4805 120.063 80.851 117.631C79.2215 115.2 76.1153 114.425 73.9131 115.901C71.711 117.376 71.2468 120.544 72.8763 122.975C74.5058 125.407 77.612 126.182 79.8142 124.706Z" fill="white"/>
<path d="M77.299 126.1C74.099 126 71.599 123.5 71.299 120.4C71.099 118.9 71.599 117.3 72.699 116.2C73.699 115.1 74.999 114.5 76.499 114.6C79.699 114.7 82.199 117.2 82.499 120.3C82.699 121.8 82.199 123.4 81.099 124.5C80.199 125.6 78.799 126.2 77.299 126.1ZM76.399 115.8C75.299 115.8 74.299 116.2 73.599 117C72.799 117.9 72.499 119.1 72.599 120.2C72.799 122.7 74.799 124.6 77.399 124.8C78.499 124.8 79.499 124.4 80.199 123.6C80.999 122.7 81.299 121.5 81.199 120.4C80.999 117.9 78.899 116 76.399 115.8Z" fill="#231F20"/>
<path d="M17.3007 33H121.101C123.401 33.1 125.201 34.9 125.401 37.1L130.901 99.7C131.201 101.7 129.701 103.5 127.701 103.8C127.601 103.8 127.401 103.8 127.201 103.8H23.5007C21.2007 103.7 19.4007 101.9 19.2007 99.7L13.7007 37.1C13.4007 35.1 14.8007 33.3 16.8007 33C17.0007 33 17.2007 33 17.3007 33Z" fill="#231F20"/>
<path d="M34.7988 40.6999H24.4988C24.0988 40.6999 23.7988 40.3999 23.7988 40.0999C23.7988 39.6999 24.0988 39.3999 24.4988 39.3999H34.7988C35.1988 39.3999 35.4988 39.6999 35.4988 40.0999C35.4988 40.3999 35.1988 40.6999 34.7988 40.6999Z" fill="white"/>
<path d="M58.0988 40.6999H37.4988C37.0988 40.6999 36.7988 40.3999 36.7988 40.0999C36.7988 39.6999 37.0988 39.3999 37.4988 39.3999H58.0988C58.4988 39.3999 58.7988 39.6999 58.7988 40.0999C58.6988 40.3999 58.3988 40.6999 58.0988 40.6999Z" fill="#B9FF66"/>
<path d="M65.2996 44.6999H44.7996C44.3996 44.6999 44.0996 44.3999 44.0996 44.0999C44.0996 43.6999 44.3996 43.3999 44.7996 43.3999H65.3996C65.7996 43.3999 66.0996 43.6999 66.0996 44.0999C65.9996 44.3999 65.6996 44.6999 65.2996 44.6999Z" fill="#B9FF66"/>
<path d="M37.4004 44.6999H27.1004C26.7004 44.6999 26.4004 44.3999 26.4004 44.0999C26.4004 43.6999 26.7004 43.3999 27.1004 43.3999H37.4004C37.8004 43.3999 38.1004 43.6999 38.1004 44.0999C38.0004 44.3999 37.7004 44.6999 37.4004 44.6999Z" fill="white"/>
<path d="M40 48.8H29.7C29.3 48.8 29 48.5 29 48.2C29 47.8 29.3 47.5 29.7 47.5H40C40.4 47.5 40.7 47.8 40.7 48.2C40.7 48.5 40.4 48.8 40 48.8Z" fill="white"/>
<path d="M69.1992 48.8H43.3992C42.9992 48.8 42.6992 48.5 42.6992 48.2C42.6992 47.8 42.9992 47.5 43.3992 47.5H69.1992C69.5992 47.5 69.8992 47.8 69.8992 48.2C69.7992 48.5 69.4992 48.8 69.1992 48.8Z" fill="#B9FF66"/>
<path d="M42.6 52.8H32.2C31.8 52.8 31.5 52.5 31.5 52.1C31.5 51.7 31.8 51.5 32.2 51.5H42.5C42.9 51.5 43.2 51.8 43.2 52.1C43.2 52.5 42.9 52.8 42.6 52.8Z" fill="white"/>
<path d="M74.6988 52.8H43.9988C43.5988 52.8 43.2988 52.5 43.2988 52.1C43.2988 51.7 43.5988 51.5 43.9988 51.5H74.6988C75.0988 51.5 75.3988 51.8 75.3988 52.1C75.2988 52.5 74.9988 52.8 74.6988 52.8Z" fill="#B9FF66"/>
<path d="M40 56.8H29.7C29.3 56.8 29 56.5 29 56.1C29 55.7 29.3 55.5 29.7 55.5H40C40.4 55.5 40.7 55.8 40.7 56.1C40.7 56.5 40.4 56.8 40 56.8Z" fill="white"/>
<path d="M58.7004 56.8H42.1004C41.7004 56.8 41.4004 56.5 41.4004 56.1C41.4004 55.7 41.7004 55.5 42.1004 55.5H58.7004C59.1004 55.5 59.4004 55.8 59.4004 56.1C59.4004 56.5 59.1004 56.8 58.7004 56.8Z" fill="#B9FF66"/>
<path d="M81.7004 56.8H65.1004C64.7004 56.8 64.4004 56.5 64.4004 56.1C64.4004 55.7 64.7004 55.5 65.1004 55.5H81.7004C82.1004 55.5 82.4004 55.8 82.4004 56.1C82.3004 56.5 82.0004 56.8 81.7004 56.8Z" fill="#B9FF66"/>
<path d="M40.1996 60.9001H29.7996C29.3996 60.9001 29.0996 60.6001 29.0996 60.3001C29.0996 59.9001 29.3996 59.6001 29.7996 59.6001H40.0996C40.4996 59.6001 40.7996 59.9001 40.7996 60.3001C40.7996 60.6001 40.4996 60.9001 40.1996 60.9001Z" fill="white"/>
<path d="M58.8992 60.9001H44.3992C43.9992 60.9001 43.6992 60.6001 43.6992 60.3001C43.6992 59.9001 43.9992 59.6001 44.3992 59.6001H58.8992C59.2992 59.6001 59.5992 59.9001 59.5992 60.3001C59.4992 60.6001 59.1992 60.9001 58.8992 60.9001Z" fill="#B9FF66"/>
<path d="M67.2992 60.9001H61.3992C60.9992 60.9001 60.6992 60.6001 60.6992 60.3001C60.6992 59.9001 60.9992 59.6001 61.3992 59.6001H67.2992C67.6992 59.6001 67.9992 59.9001 67.9992 60.3001C67.8992 60.6001 67.5992 60.9001 67.2992 60.9001Z" fill="#B9FF66"/>
<path d="M40.2988 64.9001H29.9988C29.5988 64.9001 29.2988 64.6001 29.2988 64.3001C29.2988 63.9001 29.5988 63.6001 29.9988 63.6001H40.2988C40.6988 63.6001 40.9988 63.9001 40.9988 64.3001C40.9988 64.6001 40.6988 64.9001 40.2988 64.9001Z" fill="white"/>
<path d="M64.2004 64.9001H43.1004C42.7004 64.9001 42.4004 64.6001 42.4004 64.3001C42.4004 63.9001 42.7004 63.6001 43.1004 63.6001H64.3004C64.7004 63.6001 65.0004 63.9001 65.0004 64.3001C64.9004 64.6001 64.6004 64.9001 64.2004 64.9001Z" fill="#B9FF66"/>
<path d="M77.0996 64.9001H66.7996C66.3996 64.9001 66.0996 64.6001 66.0996 64.3001C66.0996 63.9001 66.3996 63.6001 66.7996 63.6001H77.0996C77.4996 63.6001 77.7996 63.9001 77.7996 64.3001C77.6996 64.6001 77.3996 64.9001 77.0996 64.9001Z" fill="#B9FF66"/>
<path d="M33.2 68.9997H27.7C27.3 68.9997 27 68.6997 27 68.3997C27 67.9997 27.3 67.6997 27.7 67.6997H33.2C33.6 67.6997 33.9 67.9997 33.9 68.3997C33.8 68.6997 33.6 68.9997 33.2 68.9997Z" fill="white"/>
<path d="M61.7 68.9997H37.7C37.3 68.9997 37 68.6997 37 68.3997C37 67.9997 37.3 67.6997 37.7 67.6997H61.6C62 67.6997 62.3 67.9997 62.3 68.3997C62.3 68.6997 62 68.9997 61.7 68.9997Z" fill="#B9FF66"/>
<path d="M38.1992 72.9997H27.8992C27.4992 72.9997 27.1992 72.6997 27.1992 72.3997C27.1992 71.9997 27.4992 71.6997 27.8992 71.6997H38.1992C38.5992 71.6997 38.8992 71.9997 38.8992 72.3997C38.8992 72.6997 38.5992 72.9997 38.1992 72.9997Z" fill="white"/>
<path d="M50.2004 76.9997H29.6004C29.2004 76.9997 28.9004 76.6997 28.9004 76.3997C28.9004 75.9997 29.2004 75.6997 29.6004 75.6997H50.2004C50.6004 75.6997 50.9004 75.9997 50.9004 76.3997C50.8004 76.6997 50.5004 76.9997 50.2004 76.9997Z" fill="white"/>
<path d="M67.9004 76.9997H53.6004C53.2004 76.9997 52.9004 76.6997 52.9004 76.3997C52.9004 75.9997 53.2004 75.6997 53.6004 75.6997H67.9004C68.3004 75.6997 68.6004 75.9997 68.6004 76.3997C68.6004 76.6997 68.3004 76.9997 67.9004 76.9997Z" fill="#B9FF66"/>
<path d="M87.6988 76.9997H69.9988C69.5988 76.9997 69.2988 76.6997 69.2988 76.3997C69.2988 75.9997 69.5988 75.6997 69.9988 75.6997H87.6988C88.0988 75.6997 88.3988 75.9997 88.3988 76.3997C88.3988 76.6997 88.0988 76.9997 87.6988 76.9997Z" fill="#B9FF66"/>
<path d="M60.7 81.0998H30.7C30.3 81.0998 30 80.7998 30 80.4998C30 80.0998 30.3 79.7998 30.7 79.7998H60.7C61.1 79.7998 61.4 80.0998 61.4 80.4998C61.3 80.7998 61 81.0998 60.7 81.0998Z" fill="white"/>
<path d="M76.2 81.0998H62.7C62.3 81.0998 62 80.7998 62 80.4998C62 80.0998 62.3 79.7998 62.7 79.7998H76.2C76.6 79.7998 76.9 80.0998 76.9 80.4998C76.9 80.7998 76.6 81.0998 76.2 81.0998Z" fill="#B9FF66"/>
<path d="M118.699 81.0998H78.4988C78.0988 81.0998 77.7988 80.7998 77.7988 80.4998C77.7988 80.0998 78.0988 79.7998 78.4988 79.7998H118.699C119.099 79.7998 119.399 80.0998 119.399 80.4998C119.299 80.7998 118.999 81.0998 118.699 81.0998Z" fill="#B9FF66"/>
<path d="M44.9 85.0998H30.7C30.3 85.0998 30 84.7998 30 84.4998C30 84.0998 30.3 83.7998 30.7 83.7998H44.9C45.3 83.7998 45.6 84.0998 45.6 84.4998C45.5 84.7998 45.2 85.0998 44.9 85.0998Z" fill="white"/>
<path d="M58.2 85.0998H47.7C47.3 85.0998 47 84.7998 47 84.4998C47 84.0998 47.3 83.7998 47.7 83.7998H58.2C58.6 83.7998 58.9 84.0998 58.9 84.4998C58.8 84.7998 58.5 85.0998 58.2 85.0998Z" fill="#B9FF66"/>
<path d="M71.3988 85.0998H60.9988C60.5988 85.0998 60.2988 84.7998 60.2988 84.4998C60.2988 84.0998 60.5988 83.7998 60.9988 83.7998H71.3988C71.7988 83.7998 72.0988 84.0998 72.0988 84.4998C72.0988 84.7998 71.7988 85.0998 71.3988 85.0998Z" fill="#B9FF66"/>
<path d="M55.9996 89.0998H30.7996C30.3996 89.0998 30.0996 88.7998 30.0996 88.3998C30.0996 87.9998 30.3996 87.7998 30.7996 87.7998H55.9996C56.3996 87.7998 56.6996 88.0998 56.6996 88.3998C56.6996 88.7998 56.3996 89.0998 55.9996 89.0998Z" fill="white"/>
<path d="M71.5988 89.0998H58.9988C58.5988 89.0998 58.2988 88.7998 58.2988 88.3998C58.2988 87.9998 58.5988 87.7998 58.9988 87.7998H71.5988C71.9988 87.7998 72.2988 88.0998 72.2988 88.3998C72.1988 88.7998 71.9988 89.0998 71.5988 89.0998Z" fill="#B9FF66"/>
<path d="M93.8 89.0998H74.7C74.3 89.0998 74 88.7998 74 88.3998C74 87.9998 74.3 87.7998 74.7 87.7998H93.8C94.2 87.7998 94.5 88.0998 94.5 88.3998C94.5 88.7998 94.2 89.0998 93.8 89.0998Z" fill="#B9FF66"/>
<path d="M114.899 89.0998H95.7992C95.3992 89.0998 95.1992 88.7998 95.1992 88.3998C95.1992 87.9998 95.4992 87.7998 95.7992 87.7998H114.899C115.299 87.7998 115.499 88.0998 115.499 88.3998C115.599 88.7998 115.299 89.0998 114.899 89.0998Z" fill="#B9FF66"/>
<path d="M52.2996 93.1999H37.2996C36.8996 93.1999 36.5996 92.8999 36.5996 92.5999C36.5996 92.1999 36.8996 91.8999 37.2996 91.8999H52.2996C52.6996 91.8999 52.9996 92.1999 52.9996 92.5999C52.9996 92.8999 52.6996 93.1999 52.2996 93.1999Z" fill="white"/>
<path d="M70.1004 93.1999H55.1004C54.7004 93.1999 54.4004 92.8999 54.4004 92.5999C54.4004 92.1999 54.7004 91.8999 55.1004 91.8999H70.1004C70.5004 91.8999 70.8004 92.1999 70.8004 92.5999C70.8004 92.8999 70.5004 93.1999 70.1004 93.1999Z" fill="#B9FF66"/>
<path d="M87.9988 93.1999H72.9988C72.5988 93.1999 72.2988 92.8999 72.2988 92.5999C72.2988 92.1999 72.5988 91.8999 72.9988 91.8999H87.9988C88.3988 91.8999 88.5988 92.1999 88.5988 92.5999C88.5988 92.8999 88.3988 93.1999 87.9988 93.1999Z" fill="#B9FF66"/>
<path d="M106.6 93.5998H91.6C91.2 93.5998 91 93.2998 91 92.8998C91 92.4998 91.3 92.2998 91.6 92.2998H106.6C107 92.2998 107.2 92.5998 107.2 92.8998C107.2 93.2998 106.9 93.5998 106.6 93.5998Z" fill="#B9FF66"/>
<path d="M50.0996 97.1999H39.7996C39.3996 97.1999 39.0996 96.8999 39.0996 96.5999C39.0996 96.1999 39.3996 95.8999 39.7996 95.8999H50.0996C50.4996 95.8999 50.7996 96.1999 50.7996 96.5999C50.6996 96.8999 50.3996 97.1999 50.0996 97.1999Z" fill="white"/>
<path d="M62.7988 97.1999H52.4988C52.0988 97.1999 51.7988 96.8999 51.7988 96.5999C51.7988 96.1999 52.0988 95.8999 52.4988 95.8999H62.7988C63.1988 95.8999 63.4988 96.1999 63.4988 96.5999C63.4988 96.8999 63.1988 97.1999 62.7988 97.1999Z" fill="#B9FF66"/>
<path d="M86.6992 97.5999L65.3992 97.1999C64.9992 97.1999 64.6992 96.8999 64.6992 96.5999C64.6992 96.1999 64.9992 95.8999 65.3992 95.8999L86.6992 96.2999C87.0992 96.2999 87.3992 96.5999 87.3992 96.9999C87.2992 97.2999 86.9992 97.5999 86.6992 97.5999Z" fill="#B9FF66"/>
<path d="M92.7996 52.8H78.7996C78.3996 52.8 78.0996 52.5 78.0996 52.1C78.0996 51.7 78.3996 51.5 78.7996 51.5H92.7996C93.1996 51.5 93.3996 51.8 93.3996 52.1C93.4996 52.5 93.1996 52.8 92.7996 52.8Z" fill="#B9FF66"/>
<path d="M103.1 52.8001C101.4 52.9001 99.7998 52.8001 98.0998 52.7001C97.7998 52.6001 97.5998 52.2001 97.6998 51.9001C97.7998 51.6001 98.0998 51.4001 98.3998 51.5001C99.0998 51.6001 108.2 51.5001 114.2 51.5001C114.6 51.5001 114.8 51.8001 114.8 52.1001C114.8 52.5001 114.5 52.7001 114.2 52.7001C109 52.8001 105.5 52.8001 103.1 52.8001Z" fill="#B9FF66"/>
<path d="M90.2988 44.6999H69.9988C69.5988 44.6999 69.2988 44.3999 69.2988 44.0999C69.2988 43.6999 69.5988 43.3999 69.9988 43.3999H90.2988C90.6988 43.3999 90.9988 43.6999 90.9988 44.0999C90.8988 44.3999 90.5988 44.6999 90.2988 44.6999Z" fill="#B9FF66"/>
<path d="M114.5 44.6999H94.2996C93.8996 44.6999 93.5996 44.3999 93.5996 44.0999C93.5996 43.6999 93.8996 43.3999 94.2996 43.3999H114.5C114.9 43.3999 115.2 43.6999 115.2 44.0999C115.1 44.3999 114.8 44.6999 114.5 44.6999Z" fill="#B9FF66"/>
<path d="M71.3992 40.6999C67.2992 40.6999 64.3992 40.6999 64.2992 40.6999C63.8992 40.6999 63.6992 40.2999 63.6992 39.9999C63.6992 39.6999 64.0992 39.3999 64.3992 39.3999C65.0992 39.3999 81.3992 39.3999 87.6992 39.3999C88.0992 39.3999 88.2992 39.6999 88.2992 39.9999C88.2992 40.3999 87.9992 40.6999 87.6992 40.6999H71.3992Z" fill="#B9FF66"/>
<path d="M93.2997 40.6997C92.9997 40.6997 92.7996 40.5997 92.6996 40.2997C92.4996 39.9997 92.6996 39.5997 92.9996 39.3997C93.1996 39.2997 93.3997 39.1997 107.1 39.2997C107.4 39.2997 107.7 39.5997 107.7 39.8997C107.7 40.2997 107.4 40.4997 107 40.4997C102.1 40.3997 94.0997 40.3997 93.2997 40.4997V40.6997Z" fill="white"/>
<path d="M74.8988 68.9997H64.4988C64.0988 68.9997 63.7988 68.6997 63.7988 68.3997C63.7988 67.9997 64.0988 67.6997 64.4988 67.6997H74.8988C75.2988 67.6997 75.5988 67.9997 75.5988 68.3997C75.4988 68.6997 75.1988 68.9997 74.8988 68.9997Z" fill="#B9FF66"/>
<path d="M51.0992 72.9997H43.3992C42.9992 72.9997 42.6992 72.6997 42.6992 72.3997C42.6992 71.9997 42.9992 71.6997 43.3992 71.6997H51.0992C51.4992 71.6997 51.7992 71.9997 51.7992 72.3997C51.6992 72.6997 51.3992 72.9997 51.0992 72.9997Z" fill="#B9FF66"/>
<path d="M72.1988 72.9997H53.9988C53.5988 72.9997 53.2988 72.6997 53.2988 72.3997C53.2988 71.9997 53.5988 71.6997 53.9988 71.6997H72.2988C72.6988 71.6997 72.9988 71.9997 72.9988 72.3997C72.8988 72.6997 72.5988 72.9997 72.1988 72.9997Z" fill="white"/>
<path d="M111.299 72.9997H75.8992C75.4992 72.9997 75.1992 72.6997 75.1992 72.3997C75.1992 71.9997 75.4992 71.6997 75.8992 71.6997H111.299C111.699 71.6997 111.899 71.9997 111.899 72.3997C111.899 72.6997 111.599 72.9997 111.299 72.9997Z" fill="#B9FF66"/>
<path d="M305.1 131.8C305.1 131.8 306.8 173 302.2 186.6H281.1C278.9 186.6 276.9 188.1 276.2 190.2L275.1 194H328.9C333 191.3 336.4 187.8 338.9 183.7C342.5 177.3 340.3 131.9 340.3 131.9H305.1V131.8Z" fill="white"/>
<path d="M328.9 194.6H275.1C274.9 194.6 274.7 194.5 274.6 194.3C274.5 194.1 274.4 193.9 274.5 193.7L275.6 189.9C276.3 187.5 278.5 185.8 281.1 185.8H301.8C306.2 172.1 304.5 132.1 304.5 131.7C304.5 131.5 304.6 131.4 304.7 131.2C304.8 131.1 305 131 305.2 131H340.3C340.6 131 340.9 131.3 340.9 131.6C341 133.5 343.1 177.4 339.4 183.8C336.8 188 333.4 191.6 329.2 194.3C329.1 194.5 329 194.6 328.9 194.6ZM276 193.3H328.7C332.6 190.7 335.9 187.3 338.3 183.3C341 178.5 340.4 148.3 339.6 132.4H305.8C306 138 307.2 174 302.8 186.7C302.7 187 302.5 187.1 302.2 187.1H281.1C279.2 187.1 277.4 188.4 276.9 190.2L276 193.3Z" fill="#231F20"/>
<path d="M337.601 175.7C337.601 184.3 335.001 186.9 331.601 186.9H318.101C316.201 186.9 314.501 188.1 313.801 189.9L312.301 194H333.101C338.401 194 342.201 185.9 342.401 177.3C342.601 168.7 342.401 131.8 342.401 131.8H337.801C337.801 131.8 337.601 167.1 337.601 175.7Z" fill="#231F20"/>
<path d="M333.101 194.6H312.301C312.101 194.6 311.901 194.5 311.801 194.3C311.701 194.1 311.701 193.9 311.701 193.7L313.201 189.6C314.001 187.6 315.901 186.2 318.101 186.2H331.601C332.901 186.2 337.001 186.2 337.001 175.7C337.001 167.2 337.201 132.1 337.201 131.8C337.201 131.4 337.501 131.2 337.801 131.2H342.401C342.801 131.2 343.001 131.5 343.001 131.8C343.001 132.2 343.201 168.8 343.001 177.3C342.801 185.8 339.101 194.6 333.101 194.6ZM313.301 193.3H333.101C337.701 193.3 341.601 186.1 341.701 177.3C341.801 169.4 341.701 137.4 341.701 132.5H338.401C338.401 137.4 338.201 167.9 338.201 175.8C338.201 183.7 336.001 187.6 331.501 187.6H318.001C316.401 187.6 314.901 188.6 314.401 190.1L313.301 193.3Z" fill="#231F20"/>
<path d="M265.101 35.4001L257.001 128.4C256.501 132.4 259.301 136.1 263.401 136.7C263.701 136.7 264.001 136.8 264.301 136.8H375.201C379.801 136.6 383.501 133.1 383.901 128.5L392.001 35.5001C392.501 31.5001 389.701 27.8001 385.701 27.2001C385.401 27.2001 385.101 27.1001 384.801 27.1001H273.801C269.201 27.3001 265.401 30.8001 265.101 35.4001Z" fill="#231F20"/>
<path d="M375.1 137.4H264.2C262 137.4 259.9 136.5 258.4 134.9C256.8 133.1 256 130.8 256.3 128.4L264.4 35.4C264.8 30.5 268.9 26.7 273.8 26.5H384.7C386.9 26.5 389 27.4 390.5 29C392.1 30.8 392.9 33.1 392.6 35.5L384.5 128.5C384 133.4 380 137.2 375.1 137.4ZM273.8 27.7C269.5 27.9 266.1 31.2 265.7 35.4L257.6 128.4C257.4 130.4 258 132.4 259.4 133.9C260.6 135.3 262.4 136 264.3 136H375.2C379.5 135.8 382.9 132.5 383.3 128.3L391.4 35.3C391.6 33.3 391 31.3 389.6 29.8C388.4 28.4 386.6 27.7 384.7 27.7H273.8Z" fill="#231F20"/>
<path d="M264.699 35L256.899 123.8C256.399 127.7 259.099 131.2 262.899 131.7C263.199 131.7 263.499 131.8 263.799 131.8H369.7C374.1 131.6 377.699 128.2 377.999 123.8L385.799 35C386.299 31.2 383.599 27.6 379.799 27.1C379.499 27.1 379.099 27 378.799 27H272.999C268.599 27.2 265.099 30.6 264.699 35Z" fill="white"/>
<path d="M369.701 132.4H263.901C261.801 132.4 259.801 131.5 258.301 130C256.801 128.3 256.101 126 256.301 123.8L264.001 35C264.401 30.3 268.301 26.6 273.001 26.5H378.901C381.001 26.5 383.001 27.4 384.501 28.9C386.001 30.6 386.701 32.9 386.501 35.1L378.701 123.9C378.301 128.6 374.401 132.2 369.701 132.4ZM265.301 35.1L257.501 123.9C257.301 125.8 257.901 127.7 259.201 129.1C260.401 130.4 262.101 131.1 263.801 131.1H369.701C373.801 131 377.101 127.8 377.401 123.7L385.201 34.9C385.401 33 384.801 31.1 383.501 29.7C382.301 28.4 380.601 27.7 378.901 27.7H273.001C268.901 27.9 265.601 31.1 265.301 35.1Z" fill="#231F20"/>
<path d="M258.199 108.9L256.899 123.8C256.399 127.7 259.099 131.2 262.899 131.7C263.199 131.7 263.499 131.8 263.799 131.8H369.7C374.1 131.6 377.699 128.2 377.999 123.8L379.299 108.9H258.199Z" fill="white"/>
<path d="M369.701 132.4H263.901C261.801 132.4 259.801 131.5 258.301 130C256.801 128.3 256.101 126 256.301 123.8L257.601 108.9C257.601 108.6 257.901 108.3 258.201 108.3H379.301C379.501 108.3 379.601 108.4 379.801 108.5C379.901 108.6 380.001 108.8 380.001 109L378.701 123.9C378.301 128.6 374.501 132.2 369.701 132.4ZM258.801 109.6L257.601 123.9C257.401 125.8 258.001 127.7 259.301 129.1C260.501 130.4 262.201 131.1 263.901 131.1H369.801C373.901 131 377.201 127.8 377.501 123.7L378.701 109.5H258.801V109.6Z" fill="#231F20"/>
<path d="M321.767 122.977C323.397 120.545 322.932 117.378 320.73 115.902C318.528 114.426 315.422 115.201 313.792 117.632C312.163 120.064 312.627 123.232 314.829 124.707C317.031 126.183 320.138 125.408 321.767 122.977Z" fill="white"/>
<path d="M317.4 126.1C316 126.1 314.6 125.5 313.6 124.5C312.6 123.4 312.1 121.8 312.2 120.3C312.5 117.1 315.1 114.7 318.2 114.6C319.6 114.6 321 115.2 322 116.2C323 117.4 323.5 118.9 323.4 120.4C323.1 123.6 320.5 126 317.4 126.1ZM318.3 115.8C315.8 115.9 313.8 117.9 313.5 120.4C313.4 121.6 313.7 122.7 314.5 123.6C315.2 124.4 316.2 124.8 317.3 124.8C319.8 124.7 321.8 122.7 322.1 120.2C322.2 119 321.9 117.9 321.1 117C320.3 116.3 319.3 115.8 318.3 115.8Z" fill="#231F20"/>
<path d="M377.401 33H273.501C271.201 33.1 269.401 34.9 269.201 37.1L263.701 99.7C263.401 101.7 264.801 103.5 266.801 103.8C267.001 103.8 267.101 103.8 267.301 103.8H371.101C373.401 103.7 375.201 101.9 375.401 99.7L380.901 37.1C381.201 35.1 379.801 33.3 377.801 33C377.701 33 377.501 33 377.401 33Z" fill="#231F20"/>
<path d="M290.9 40.6999H280.6C280.2 40.6999 280 40.3999 280 40.0999C280 39.6999 280.3 39.3999 280.6 39.3999H290.9C291.3 39.3999 291.5 39.6999 291.5 40.0999C291.5 40.3999 291.2 40.6999 290.9 40.6999Z" fill="white"/>
<path d="M314.1 40.6999H293.5C293.1 40.6999 292.9 40.3999 292.9 40.0999C292.9 39.6999 293.2 39.3999 293.5 39.3999H314.1C314.5 39.3999 314.7 39.6999 314.7 40.0999C314.8 40.3999 314.5 40.6999 314.1 40.6999Z" fill="#B9FF66"/>
<path d="M320.501 44.6999H299.901C299.501 44.6999 299.301 44.3999 299.301 44.0999C299.301 43.6999 299.601 43.3999 299.901 43.3999H320.501C320.901 43.3999 321.101 43.6999 321.101 44.0999C321.201 44.3999 320.901 44.6999 320.501 44.6999Z" fill="#B9FF66"/>
<path d="M292.601 44.6999H282.301C281.901 44.6999 281.701 44.3999 281.701 44.0999C281.701 43.6999 282.001 43.3999 282.301 43.3999H292.601C293.001 43.3999 293.201 43.6999 293.201 44.0999C293.201 44.3999 292.901 44.6999 292.601 44.6999Z" fill="white"/>
<path d="M294.3 48.8H284C283.6 48.8 283.4 48.5 283.4 48.2C283.4 47.8 283.7 47.5 284 47.5H294.3C294.7 47.5 294.9 47.8 294.9 48.2C294.9 48.5 294.6 48.8 294.3 48.8Z" fill="white"/>
<path d="M323.5 48.8H297.7C297.3 48.8 297.1 48.5 297.1 48.2C297.1 47.8 297.4 47.5 297.7 47.5H323.5C323.9 47.5 324.1 47.8 324.1 48.2C324.1 48.5 323.8 48.8 323.5 48.8Z" fill="#B9FF66"/>
<path d="M295.9 52.8H285.6C285.2 52.8 285 52.5 285 52.1C285 51.7 285.3 51.5 285.6 51.5H295.9C296.3 51.5 296.5 51.8 296.5 52.1C296.6 52.5 296.3 52.8 295.9 52.8Z" fill="white"/>
<path d="M328.1 52.8H297.5C297.1 52.8 296.9 52.5 296.9 52.1C296.9 51.7 297.2 51.5 297.5 51.5H328.1C328.5 51.5 328.7 51.8 328.7 52.1C328.7 52.5 328.4 52.8 328.1 52.8Z" fill="#B9FF66"/>
<path d="M292.5 56.8H282.2C281.8 56.8 281.6 56.5 281.6 56.1C281.6 55.7 281.9 55.5 282.2 55.5H292.5C292.9 55.5 293.1 55.8 293.1 56.1C293.1 56.5 292.8 56.8 292.5 56.8Z" fill="white"/>
<path d="M311.2 56.8H294.6C294.2 56.8 294 56.5 294 56.1C294 55.7 294.3 55.5 294.6 55.5H311.2C311.6 55.5 311.8 55.8 311.8 56.1C311.8 56.5 311.5 56.8 311.2 56.8Z" fill="#B9FF66"/>
<path d="M334.2 56.8H317.6C317.2 56.8 317 56.5 317 56.1C317 55.7 317.3 55.5 317.6 55.5H334.2C334.6 55.5 334.8 55.8 334.8 56.1C334.8 56.5 334.5 56.8 334.2 56.8Z" fill="#B9FF66"/>
<path d="M291.701 60.9001H281.401C281.001 60.9001 280.801 60.6001 280.801 60.3001C280.801 59.9001 281.101 59.6001 281.401 59.6001H291.701C292.101 59.6001 292.301 59.9001 292.301 60.3001C292.401 60.6001 292.101 60.9001 291.701 60.9001Z" fill="white"/>
<path d="M310.5 60.9001H296C295.6 60.9001 295.4 60.6001 295.4 60.3001C295.4 59.9001 295.7 59.6001 296 59.6001H310.5C310.9 59.6001 311.1 59.9001 311.1 60.3001C311.1 60.6001 310.8 60.9001 310.5 60.9001Z" fill="#B9FF66"/>
<path d="M318.801 60.9001H312.901C312.501 60.9001 312.301 60.6001 312.301 60.3001C312.301 59.9001 312.601 59.6001 312.901 59.6001H318.801C319.201 59.6001 319.401 59.9001 319.401 60.3001C319.501 60.6001 319.201 60.9001 318.801 60.9001Z" fill="#B9FF66"/>
<path d="M291 64.9001H280.7C280.3 64.9001 280.1 64.6001 280.1 64.3001C280.1 63.9001 280.4 63.6001 280.7 63.6001H291C291.4 63.6001 291.6 63.9001 291.6 64.3001C291.6 64.6001 291.4 64.9001 291 64.9001Z" fill="white"/>
<path d="M314.9 64.9001H293.7C293.3 64.9001 293.1 64.6001 293.1 64.3001C293.1 63.9001 293.4 63.6001 293.7 63.6001H314.9C315.3 63.6001 315.5 63.9001 315.5 64.3001C315.6 64.6001 315.3 64.9001 314.9 64.9001Z" fill="#B9FF66"/>
<path d="M327.701 64.9001H317.401C317.001 64.9001 316.801 64.6001 316.801 64.3001C316.801 63.9001 317.101 63.6001 317.401 63.6001H327.701C328.101 63.6001 328.301 63.9001 328.301 64.3001C328.401 64.6001 328.101 64.9001 327.701 64.9001Z" fill="#B9FF66"/>
<path d="M283 69.0002H277.5C277.1 69.0002 276.9 68.7002 276.9 68.4002C276.9 68.0002 277.2 67.7002 277.5 67.7002H283C283.4 67.7002 283.6 68.0002 283.6 68.4002C283.6 68.7002 283.4 69.0002 283 69.0002Z" fill="white"/>
<path d="M311.4 69.0002H287.5C287.1 69.0002 286.9 68.7002 286.9 68.4002C286.9 68.0002 287.2 67.7002 287.5 67.7002H311.4C311.8 67.7002 312 68.0002 312 68.4002C312.1 68.7002 311.8 69.0002 311.4 69.0002Z" fill="#B9FF66"/>
<path d="M287.101 73.0002H276.801C276.401 73.0002 276.201 72.7002 276.201 72.4002C276.201 72.0002 276.501 71.7002 276.801 71.7002H287.101C287.501 71.7002 287.701 72.0002 287.701 72.4002C287.701 72.7002 287.401 73.0002 287.101 73.0002Z" fill="white"/>
<path d="M298.1 77.0002H277.5C277.1 77.0002 276.9 76.7002 276.9 76.4002C276.9 76.0002 277.2 75.7002 277.5 75.7002H298.1C298.5 75.7002 298.7 76.0002 298.7 76.4002C298.8 76.7002 298.5 77.0002 298.1 77.0002Z" fill="white"/>
<path d="M315.9 77.0002H301.6C301.2 77.0002 301 76.7002 301 76.4002C301 76.0002 301.3 75.7002 301.6 75.7002H315.9C316.3 75.7002 316.5 76.0002 316.5 76.4002C316.5 76.7002 316.2 77.0002 315.9 77.0002Z" fill="#B9FF66"/>
<path d="M335.601 77.0002H317.901C317.501 77.0002 317.301 76.7002 317.301 76.4002C317.301 76.0002 317.601 75.7002 317.901 75.7002H335.601C336.001 75.7002 336.201 76.0002 336.201 76.4002C336.301 76.7002 336.001 77.0002 335.601 77.0002Z" fill="#B9FF66"/>
<path d="M307.7 81.0998H277.7C277.3 81.0998 277.1 80.7998 277.1 80.4998C277.1 80.0998 277.4 79.7998 277.7 79.7998H307.7C308.1 79.7998 308.3 80.0998 308.3 80.4998C308.4 80.7998 308.1 81.0998 307.7 81.0998Z" fill="white"/>
<path d="M323.301 81.0998H309.801C309.401 81.0998 309.201 80.7998 309.201 80.4998C309.201 80.0998 309.501 79.7998 309.801 79.7998H323.301C323.701 79.7998 323.901 80.0998 323.901 80.4998C323.901 80.7998 323.601 81.0998 323.301 81.0998Z" fill="#B9FF66"/>
<path d="M365.7 81.0998H325.5C325.1 81.0998 324.9 80.7998 324.9 80.4998C324.9 80.0998 325.2 79.7998 325.5 79.7998H365.7C366.1 79.7998 366.3 80.0998 366.3 80.4998C366.4 80.7998 366.1 81.0998 365.7 81.0998Z" fill="#B9FF66"/>
<path d="M291.001 85.0998H276.801C276.401 85.0998 276.201 84.7998 276.201 84.4998C276.201 84.0998 276.501 83.7998 276.801 83.7998H291.001C291.401 83.7998 291.601 84.0998 291.601 84.4998C291.601 84.7998 291.401 85.0998 291.001 85.0998Z" fill="white"/>
<path d="M304.301 85.0998H293.801C293.401 85.0998 293.201 84.7998 293.201 84.4998C293.201 84.0998 293.501 83.7998 293.801 83.7998H304.301C304.701 83.7998 304.901 84.0998 304.901 84.4998C305.001 84.7998 304.701 85.0998 304.301 85.0998Z" fill="#B9FF66"/>
<path d="M317.6 85.0998H307.1C306.7 85.0998 306.5 84.7998 306.5 84.4998C306.5 84.0998 306.8 83.7998 307.1 83.7998H317.6C318 83.7998 318.2 84.0998 318.2 84.4998C318.2 84.7998 317.9 85.0998 317.6 85.0998Z" fill="#B9FF66"/>
<path d="M301.2 89.0998H276.1C275.7 89.0998 275.5 88.7998 275.5 88.3998C275.5 87.9998 275.8 87.7998 276.1 87.7998H301.2C301.6 87.7998 301.8 88.0998 301.8 88.3998C301.9 88.7998 301.6 89.0998 301.2 89.0998Z" fill="white"/>
<path d="M316.901 89.0998H304.301C303.901 89.0998 303.701 88.7998 303.701 88.3998C303.701 87.9998 304.001 87.7998 304.301 87.7998H316.801C317.201 87.7998 317.401 88.0998 317.401 88.3998C317.501 88.7998 317.201 89.0998 316.901 89.0998Z" fill="#B9FF66"/>
<path d="M339.001 89.0998H319.901C319.501 89.0998 319.301 88.7998 319.301 88.3998C319.301 87.9998 319.601 87.7998 319.901 87.7998H339.001C339.401 87.7998 339.601 88.0998 339.601 88.3998C339.701 88.7998 339.401 89.0998 339.001 89.0998Z" fill="#B9FF66"/>
<path d="M360.2 89.0998H341.1C340.7 89.0998 340.5 88.7998 340.5 88.3998C340.5 87.9998 340.8 87.7998 341.1 87.7998H360.2C360.6 87.7998 360.8 88.0998 360.8 88.3998C360.8 88.7998 360.5 89.0998 360.2 89.0998Z" fill="#B9FF66"/>
<path d="M296.7 93.1999H281.7C281.3 93.1999 281.1 92.8999 281.1 92.5999C281.1 92.1999 281.4 91.8999 281.7 91.8999H296.7C297.1 91.8999 297.3 92.1999 297.3 92.5999C297.3 92.8999 297 93.1999 296.7 93.1999Z" fill="white"/>
<path d="M314.5 93.1999H299.5C299.1 93.1999 298.9 92.8999 298.9 92.5999C298.9 92.1999 299.2 91.8999 299.5 91.8999H314.5C314.9 91.8999 315.1 92.1999 315.1 92.5999C315.1 92.8999 314.8 93.1999 314.5 93.1999Z" fill="#B9FF66"/>
<path d="M332.401 93.1999H317.401C317.001 93.1999 316.801 92.8999 316.801 92.5999C316.801 92.1999 317.101 91.8999 317.401 91.8999H332.401C332.801 91.8999 333.001 92.1999 333.001 92.5999C333.001 92.8999 332.701 93.1999 332.401 93.1999Z" fill="#B9FF66"/>
<path d="M350.801 93.5998H335.801C335.401 93.5998 335.201 93.2998 335.201 92.8998C335.201 92.4998 335.501 92.2998 335.801 92.2998H350.801C351.201 92.2998 351.401 92.5998 351.401 92.8998C351.501 93.2998 351.201 93.5998 350.801 93.5998Z" fill="#B9FF66"/>
<path d="M293.5 97.1999H283.2C282.8 97.1999 282.6 96.8999 282.6 96.5999C282.6 96.1999 282.9 95.8999 283.2 95.8999H293.5C293.9 95.8999 294.1 96.1999 294.1 96.5999C294.2 96.8999 293.9 97.1999 293.5 97.1999Z" fill="white"/>
<path d="M306.3 97.1999H296C295.6 97.1999 295.4 96.8999 295.4 96.5999C295.4 96.1999 295.7 95.8999 296 95.8999H306.3C306.7 95.8999 306.9 96.1999 306.9 96.5999C306.9 96.8999 306.6 97.1999 306.3 97.1999Z" fill="#B9FF66"/>
<path d="M330.001 97.5999L308.801 97.1999C308.401 97.1999 308.201 96.8999 308.201 96.4999C308.201 96.1999 308.401 95.8999 308.801 95.8999H308.901L330.101 96.2999C330.501 96.2999 330.701 96.5999 330.701 96.9999C330.701 97.2999 330.401 97.5999 330.001 97.5999Z" fill="#B9FF66"/>
<path d="M346.2 52.8H332.2C331.8 52.8 331.6 52.5 331.6 52.1C331.6 51.7 331.9 51.5 332.2 51.5H346.2C346.6 51.5 346.8 51.8 346.8 52.1C346.9 52.5 346.6 52.8 346.2 52.8Z" fill="#B9FF66"/>
<path d="M356.5 52.8C354.8 52.9 353.2 52.8 351.5 52.7C351.2 52.6 350.9 52.3 351 51.9C351.1 51.6 351.4 51.3 351.8 51.4C352.5 51.5 361.6 51.4 367.6 51.4C368 51.4 368.2 51.7 368.2 52C368.2 52.4 367.9 52.6 367.6 52.6C362.4 52.8 358.9 52.8 356.5 52.8Z" fill="#B9FF66"/>
<path d="M345.5 44.6999H325.2C324.8 44.6999 324.6 44.3999 324.6 44.0999C324.6 43.6999 324.9 43.3999 325.2 43.3999H345.5C345.9 43.3999 346.1 43.6999 346.1 44.0999C346.1 44.3999 345.8 44.6999 345.5 44.6999Z" fill="#B9FF66"/>
<path d="M369.7 44.6999H349.5C349.1 44.6999 348.9 44.3999 348.9 44.0999C348.9 43.6999 349.2 43.3999 349.5 43.3999H369.7C370.1 43.3999 370.3 43.6999 370.3 44.0999C370.3 44.3999 370 44.6999 369.7 44.6999Z" fill="#B9FF66"/>
<path d="M327.601 40.6999C323.501 40.6999 320.601 40.6999 320.401 40.6999C320.001 40.6999 319.801 40.2999 319.801 39.9999C319.801 39.6999 320.201 39.3999 320.501 39.3999C321.201 39.3999 337.501 39.3999 343.801 39.3999C344.201 39.3999 344.401 39.6999 344.401 39.9999C344.401 40.3999 344.101 40.6999 343.801 40.6999H327.601Z" fill="#B9FF66"/>
<path d="M349.401 40.7002C349.101 40.7002 348.901 40.5002 348.801 40.3002C348.701 40.0002 348.801 39.6002 349.101 39.4002C349.201 39.3002 349.501 39.2002 363.201 39.3002C363.601 39.3002 363.801 39.6002 363.801 39.9002C363.801 40.3002 363.501 40.5002 363.201 40.5002C358.301 40.4002 350.201 40.4002 349.501 40.5002L349.401 40.7002Z" fill="white"/>
<path d="M324.6 69.0002H314.1C313.7 69.0002 313.5 68.7002 313.5 68.4002C313.5 68.0002 313.8 67.7002 314.1 67.7002H324.6C325 67.7002 325.2 68.0002 325.2 68.4002C325.3 68.7002 325 69.0002 324.6 69.0002Z" fill="#B9FF66"/>
<path d="M299.9 73.0002H292.2C291.8 73.0002 291.6 72.7002 291.6 72.4002C291.6 72.0002 291.9 71.7002 292.2 71.7002H299.9C300.3 71.7002 300.5 72.0002 300.5 72.4002C300.6 72.7002 300.3 73.0002 299.9 73.0002Z" fill="#B9FF66"/>
<path d="M321.101 73.0002H302.801C302.401 73.0002 302.201 72.7002 302.201 72.4002C302.201 72.0002 302.501 71.7002 302.801 71.7002H321.101C321.501 71.7002 321.701 72.0002 321.701 72.4002C321.801 72.7002 321.501 73.0002 321.101 73.0002Z" fill="white"/>
<path d="M360.1 73.0002H324.7C324.3 73.0002 324.1 72.7002 324.1 72.4002C324.1 72.0002 324.4 71.7002 324.7 71.7002H360.1C360.5 71.7002 360.7 72.0002 360.7 72.4002C360.8 72.7002 360.5 73.0002 360.1 73.0002Z" fill="#B9FF66"/>
<path d="M293.699 194.2H330.299C330.999 194.2 326.099 178.4 314.299 178C302.499 177.6 293.699 194.2 293.699 194.2Z" fill="#231F20"/>
<path d="M330.4 194.8H293.8C293.4 194.8 293.1 194.5 293.1 194.1C293.1 194 293.1 193.9 293.2 193.8C293.6 193.1 302.4 176.8 314.5 177.2C326 177.6 331.2 192.1 331.2 193.9C331.1 194.4 330.8 194.8 330.4 194.8ZM294.8 193.5H329.7C329.1 190.6 324 179 314.3 178.6H313.9C304.5 178.6 296.9 190.1 294.8 193.5Z" fill="#231F20"/>
<path d="M203.399 184.1H81.6992V193.3H203.399V184.1Z" fill="white"/>
<path d="M203.4 194H81.7C81.3 194 81 193.7 81 193.4V184.2C81 183.8 81.3 183.6 81.7 183.6H203.4C203.8 183.6 204 183.9 204 184.2V193.4C204 193.7 203.8 194 203.4 194ZM82.3 192.7H202.7V184.8H82.3V192.7Z" fill="#231F20"/>
<path d="M44.7 210.2H17.5V274.9H44.7V210.2Z" fill="white"/>
<path d="M44.6988 275.6H17.4988C17.0988 275.6 16.8988 275.3 16.7988 275V210.3C16.7988 209.9 17.0988 209.7 17.4988 209.7H44.6988C45.0988 209.7 45.2988 210 45.3988 210.3V275C45.3988 275.4 45.0988 275.6 44.6988 275.6ZM18.0988 274.3H43.9988V210.9H18.1988L18.0988 274.3Z" fill="#231F20"/>
<path d="M383.899 210.2H356.699V274.9H383.899V210.2Z" fill="white"/>
<path d="M384 275.6H356.7C356.3 275.6 356.1 275.3 356.1 275V210.3C356.1 209.9 356.4 209.7 356.7 209.7H384C384.4 209.7 384.6 210 384.6 210.3V275C384.6 275.4 384.4 275.6 384 275.6ZM357.4 274.3H383.3V210.9H357.3L357.4 274.3Z" fill="#231F20"/>
<path d="M44.7 210.2H17.5V227H44.7V210.2Z" fill="#231F20"/>
<path d="M44.6988 227.7H17.4988C17.0988 227.7 16.8988 227.4 16.7988 227.1V210.3C16.7988 209.9 17.0988 209.7 17.4988 209.7H44.6988C45.0988 209.7 45.2988 210 45.3988 210.3V227C45.3988 227.4 45.0988 227.7 44.6988 227.7ZM18.0988 226.4H43.9988V210.9H18.1988L18.0988 226.4Z" fill="#231F20"/>
<path d="M383.899 210.2H356.699V227H383.899V210.2Z" fill="#231F20"/>
<path d="M384 227.7H356.7C356.3 227.7 356.1 227.4 356.1 227.1V210.3C356.1 209.9 356.4 209.7 356.7 209.7H384C384.4 209.7 384.6 210 384.6 210.3V227C384.7 227.4 384.4 227.7 384 227.7ZM357.4 226.4H383.3V210.9H357.3L357.4 226.4Z" fill="#231F20"/>
<path d="M400.598 194.1H0.898438V210.3H400.598V194.1Z" fill="white"/>
<path d="M400.599 210.9H0.89922C0.49922 210.9 0.299219 210.6 0.199219 210.3V194.1C0.199219 193.7 0.49922 193.5 0.89922 193.5H400.599C400.999 193.5 401.199 193.8 401.199 194.1V210.3C401.199 210.6 400.899 210.9 400.599 210.9ZM1.59922 209.6H399.999V194.7H1.49922L1.59922 209.6Z" fill="#231F20"/>
<path d="M156.402 219.5C156.402 219.5 97.8017 233.6 96.0017 243.9C94.2017 254.2 98.8017 274.5 98.8017 274.5H249.802C249.802 274.5 257.002 231.8 249.802 215.6C242.602 199.4 156.402 219.5 156.402 219.5Z" fill="#231F20"/>
<path d="M249.8 275.2H98.8003C98.5003 275.2 98.2003 275 98.2003 274.7C98.0003 273.9 93.6003 254.2 95.4003 243.8C97.2003 233.1 153.9 219.4 156.3 218.8C156.5 218.8 178.2 213.7 200.4 210.8C230.5 206.8 247.4 208.3 250.5 215.3C257.7 231.5 250.8 272.9 250.5 274.6C250.4 275 250.1 275.2 249.8 275.2ZM99.3003 273.9H249.3C250.1 268.9 255.8 230.8 249.3 215.9C246.5 209.5 229.7 208.3 200.6 212.1C178.5 215 157 220 156.6 220.1C140.4 224 98.0003 235.8 96.6003 244C95.0003 253.2 98.6003 270.7 99.3003 273.9Z" fill="#231F20"/>
<path d="M258 150.5L268.9 175.4C268.9 175.4 299.5 181 301.7 179.8C303.9 178.6 307.1 174.5 309.2 173.1C311.3 171.7 319.7 173 321.1 174C322.5 175 325.9 179.2 325.6 180.5C325.3 181.8 323.2 180.4 323.2 180.4C323.2 180.4 326.3 182.5 325.6 184.1C324.9 185.7 318.5 181.4 317.3 181.4C316.1 181.4 312.8 190.4 309.2 193.5C305.6 196.6 265.3 202.5 261.6 201.6C257.9 200.7 237 170.6 237 170.6L241.2 151.6L258 150.5Z" fill="white"/>
<path d="M262.801 202.4C262.301 202.4 261.901 202.4 261.401 202.3C257.501 201.4 238.601 174.2 236.401 171.1C236.301 170.9 236.301 170.8 236.301 170.6L240.501 151.6C240.601 151.3 240.801 151.1 241.101 151.1L258.001 149.8C258.301 149.8 258.501 149.9 258.601 150.2L269.301 174.8C283.801 177.4 299.801 179.9 301.301 179.2C302.701 178.2 304.101 177 305.201 175.7C306.301 174.5 307.401 173.5 308.701 172.6C311.001 171.1 319.801 172.4 321.401 173.5C322.701 174.4 326.601 178.9 326.101 180.7C326.001 181.1 325.701 181.4 325.401 181.6C326.101 182.3 326.401 183.3 326.101 184.3C326.001 184.6 325.701 184.9 325.401 185C324.301 185.4 322.401 184.5 319.601 183.2C318.801 182.8 318.001 182.4 317.201 182.1C316.401 183.2 315.701 184.4 315.101 185.7C313.601 188.6 311.601 192.2 309.501 194.1C307.101 196.2 291.901 198.8 285.401 199.8C276.801 201.2 266.701 202.4 262.801 202.4ZM237.601 170.6C245.601 182.2 259.101 200.5 261.601 201.1C265.501 202 305.401 195.9 308.601 193.1C310.501 191.4 312.401 187.9 313.901 185.1C315.601 181.9 316.201 180.8 317.101 180.8C318.201 181 319.201 181.4 320.201 182C321.501 182.7 324.301 184 324.901 183.8C325.101 183.1 323.801 181.8 322.801 181L322.701 180.9C322.401 180.7 322.401 180.3 322.601 180C322.801 179.7 323.201 179.7 323.501 179.9L323.601 180C324.001 180.3 324.401 180.5 324.901 180.5C325.101 179.6 322.301 175.8 320.701 174.6C319.501 173.7 311.301 172.5 309.501 173.7C308.301 174.6 307.201 175.6 306.201 176.7C304.901 178.1 303.501 179.4 302.001 180.4C299.701 181.6 273.901 177 268.801 176.1C268.601 176.1 268.401 175.9 268.301 175.7L257.701 151.2L241.801 152.4L237.601 170.6Z" fill="#231F20"/>
<path d="M131.901 152.4L124.101 171.5C124.101 171.5 100.801 158.2 94.6011 157.3C77.0011 154.6 70.5011 165.9 70.2011 167.8C69.9011 169.7 87.2011 167.7 87.2011 167.7C87.2011 167.7 79.9011 170.3 80.5011 173.5C80.9011 175.3 89.1011 171 90.4011 171.4C91.7011 171.8 127.001 199.1 139.401 201.8C151.801 204.5 180.401 142.2 180.401 142.2" fill="white"/>
<path d="M140.201 202.5C139.901 202.5 139.601 202.5 139.301 202.4C129.501 200.3 106.401 183.6 95.3008 175.6C92.7008 173.7 90.5008 172.1 90.1008 172C88.8008 172.2 87.6008 172.6 86.4008 173.1C83.2008 174.2 81.3008 174.9 80.3008 174.3C80.0008 174.1 79.8008 173.9 79.7008 173.5C79.3008 171.5 81.2008 169.8 83.2008 168.7C77.9008 169.2 70.8008 169.7 69.6008 168.5C69.4008 168.3 69.3008 168 69.3008 167.7C69.6008 165.9 76.1008 153.9 94.5008 156.7C100.301 157.6 119.701 168.4 123.601 170.6L131.101 152.2C131.201 151.9 131.601 151.7 131.901 151.8C132.201 151.9 132.401 152.3 132.301 152.6L124.501 171.7C124.401 171.9 124.301 172 124.101 172.1C123.901 172.2 123.701 172.1 123.601 172.1C123.401 172 100.301 158.9 94.3008 158C76.9008 155.4 71.4008 166.2 70.7008 167.8C72.2008 168.4 80.1008 167.9 86.9008 167.1C87.3008 167.1 87.6008 167.3 87.6008 167.7C87.6008 168 87.5008 168.3 87.2008 168.4C85.5008 169 80.7008 171.2 81.0008 173.3C81.7008 173.5 84.5008 172.5 86.0008 171.9C88.5008 171 89.8008 170.5 90.5008 170.8C90.9008 170.9 91.9008 171.6 96.0008 174.6C106.201 181.9 130.001 199.1 139.501 201.2C149.301 203.3 171.901 159.2 179.801 142C180.001 141.7 180.301 141.5 180.701 141.7C181.001 141.9 181.201 142.2 181.001 142.6C179.901 144.9 153.401 202.5 140.201 202.5Z" fill="#231F20"/>
<path d="M207.901 67.7999C209.301 67.2999 210.601 66.3999 211.701 65.3999C213.201 63.7999 214.401 61.9999 215.301 59.9999C219.901 49.7999 221.401 38.3999 219.701 27.2999C219.001 22.4999 218.001 15.8999 215.201 11.7999C213.801 9.99995 211.901 8.69994 209.801 7.99994C209.201 7.79994 203.101 8.19994 203.701 8.89994C199.101 3.59994 192.301 0.599944 185.201 0.899944C179.301 1.09994 172.201 3.69994 168.401 8.39994C166.801 10.2999 166.301 11.7999 163.801 12.6999C160.501 13.7999 156.901 13.5999 153.701 12.1999C152.901 11.8999 147.801 10.0999 147.901 9.39994C147.701 16.2999 151.601 22.6999 157.801 25.6999C154.201 25.8999 150.501 25.3999 147.201 23.9999C150.501 31.5999 158.401 36.0999 166.601 35.0999C169.201 38.7999 172.601 41.8999 175.201 45.7999C177.901 49.8999 180.501 54.1999 184.101 57.6999C189.601 63.2999 199.801 70.8999 207.901 67.7999Z" fill="white"/>
<path d="M203.9 69.2001C195.8 69.2001 187.2 61.9001 183.5 58.4001C180.4 55.2001 177.8 51.7001 175.5 47.9001L174.5 46.4001C173.1 44.4001 171.5 42.4001 169.9 40.5001C168.6 39.1001 167.3 37.6001 166.2 36.0001C157.8 36.8001 149.9 32.2001 146.6 24.5001C146.5 24.3001 146.6 24.0001 146.7 23.8001C146.9 23.6001 147.2 23.6001 147.4 23.7001C150 24.7001 152.7 25.3001 155.4 25.4001C150.2 21.9001 147.1 16.0001 147.3 9.70009C147.3 9.40009 147.6 9.10009 147.9 9.10009C148.2 9.10009 148.4 9.30009 148.5 9.60009C150 10.5001 151.5 11.2001 153.2 11.7001L154 12.0001C157 13.3001 160.5 13.5001 163.6 12.5001C165 12.0001 166.2 11.0001 167 9.60009C167.3 9.20009 167.6 8.80009 167.9 8.40009C172 3.40009 179.5 0.900088 185.2 0.700088C192.2 0.400088 198.9 3.20009 203.7 8.30009C205.7 7.80009 207.8 7.60009 209.9 7.70009C212.2 8.40009 214.2 9.80009 215.7 11.7001C218.7 15.9001 219.6 22.6001 220.3 27.4001C222 38.6001 220.4 50.1001 215.8 60.5001C214.9 62.6001 213.7 64.5001 212.1 66.1001C210.9 67.2001 209.6 68.1001 208.1 68.7001C206.8 68.9001 205.4 69.2001 203.9 69.2001ZM166.4 34.6001C166.6 34.6001 166.8 34.7001 166.9 34.9001C168.1 36.5001 169.4 38.1001 170.8 39.7001C172.5 41.6001 174.1 43.6001 175.5 45.7001L176.5 47.2001C178.7 50.9001 181.3 54.4001 184.4 57.5001C188.6 61.5001 199.3 70.5001 207.7 67.3001C209 66.8001 210.2 66.0001 211.3 65.0001C212.7 63.5001 213.9 61.7001 214.7 59.8001C219.2 49.7001 220.7 38.5001 219.1 27.5001C218.4 22.7001 217.5 16.2001 214.7 12.3001C213.4 10.6001 211.7 9.40009 209.6 8.80009C207.8 8.80009 206 8.90009 204.3 9.30009C204.3 9.40009 204.2 9.50009 204.1 9.60009C203.8 9.80009 203.4 9.80009 203.2 9.50009C198.7 4.30009 192.1 1.50009 185.3 1.80009C179.9 2.00009 172.8 4.30009 169 9.00009C168.7 9.40009 168.4 9.80009 168.1 10.2001C167.2 11.7001 165.8 12.9001 164.1 13.5001C160.6 14.7001 156.9 14.5001 153.5 13.0001L152.7 12.7001C151.3 12.2001 149.9 11.6001 148.5 10.9001C148.8 17.1001 152.5 22.6001 158 25.3001C158.3 25.4001 158.4 25.7001 158.4 26.0001C158.3 26.3001 158.1 26.5001 157.8 26.5001C154.6 26.7001 151.4 26.3001 148.4 25.3001C151.9 31.8001 159 35.5001 166.4 34.6001Z" fill="#231F20"/>
<path d="M165.801 48.8999C165.801 48.8999 159.001 61.9999 161.001 64.3999C163.001 66.7999 168.301 64.4999 168.301 64.4999" fill="white"/>
<path d="M163.902 66.1002C162.602 66.2002 161.402 65.7002 160.502 64.8002C158.402 62.2002 164.102 50.9002 165.202 48.6002C165.402 48.3002 165.802 48.2002 166.102 48.3002C166.402 48.4002 166.502 48.9002 166.402 49.2002C163.202 55.5002 160.502 62.7002 161.502 64.0002C162.902 65.6002 166.702 64.5002 168.102 63.9002C168.402 63.8002 168.802 63.9002 169.002 64.2002C169.202 64.5002 169.002 64.9002 168.702 65.1002C167.102 65.7002 165.502 66.0002 163.902 66.1002Z" fill="#231F20"/>
<path d="M165.801 32.4999C161.101 37.2999 163.601 45.9999 164.201 51.7999C165.101 59.8999 166.301 67.9999 167.601 76.0999C168.401 81.1999 181.801 79.8999 184.001 78.0999L184.101 98.6999L212.601 93.8999L208.001 68.1999C208.001 68.1999 198.901 69.2999 192.601 59.2999C186.301 49.2999 184.501 26.3999 184.501 26.3999C184.501 26.3999 170.401 27.8999 165.801 32.4999Z" fill="white"/>
<path d="M184.201 99.3001C184.001 99.3001 183.901 99.2001 183.801 99.1001C183.701 99.0001 183.601 98.8001 183.601 98.6001L183.501 79.1001C180.601 80.3001 174.101 80.9001 170.301 79.4001C168.001 78.5001 167.301 77.1001 167.101 76.1001C165.801 68.0001 164.601 59.9001 163.701 51.7001C163.601 50.7001 163.401 49.7001 163.301 48.6001C162.401 43.0001 161.401 36.1001 165.501 31.9001C170.201 27.1001 184.001 25.7001 184.601 25.6001C184.801 25.6001 184.901 25.6001 185.101 25.7001C185.201 25.8001 185.301 26.0001 185.301 26.1001C185.301 26.3001 187.101 49.0001 193.301 58.7001C199.401 68.2001 207.801 67.3001 208.101 67.3001C208.401 67.3001 208.801 67.5001 208.801 67.8001L213.401 93.5001C213.401 93.7001 213.401 93.8001 213.301 94.0001C213.201 94.1001 213.001 94.2001 212.901 94.3001L184.201 99.3001ZM184.001 77.4001C184.401 77.4001 184.601 77.7001 184.601 78.0001L184.701 97.8001L211.801 93.2001L207.401 68.7001C205.201 68.8001 197.601 68.3001 191.901 59.5001C186.001 50.4001 184.101 31.0001 183.701 27.0001C180.901 27.4001 169.801 29.0001 166.001 32.8001C162.301 36.5001 163.401 43.1001 164.201 48.4001C164.401 49.5001 164.501 50.6001 164.701 51.6001C165.601 59.7001 166.801 67.9001 168.101 75.9001C168.301 76.9001 169.001 77.7001 170.501 78.2001C174.601 79.7001 182.101 78.7001 183.501 77.5001C183.701 77.5001 183.901 77.4001 184.001 77.4001Z" fill="#231F20"/>
<path d="M167.201 70.0003C167.201 70.0003 173.901 73.2003 176.601 66.3003Z" fill="white"/>
<path d="M170.602 71.3998C169.302 71.3998 168.002 71.0998 166.902 70.5998C166.602 70.3998 166.502 69.9998 166.702 69.6998C166.902 69.3998 167.202 69.2998 167.502 69.3998C169.202 70.0998 171.002 70.1998 172.802 69.6998C174.302 68.9998 175.502 67.6998 176.002 66.0998C176.102 65.7998 176.502 65.5998 176.802 65.6998C177.102 65.7998 177.302 66.1998 177.202 66.4998C177.202 66.4998 177.202 66.4998 177.202 66.5998C176.602 68.5998 175.102 70.1998 173.202 70.9998C172.302 71.1998 171.502 71.3998 170.602 71.3998Z" fill="#231F20"/>
<path d="M182 52.4C181.8 50.4 182.8 48.4 183.7 46.6C184.3 45.1 185.2 43.8 186.3 42.6C187.4 41.4 188.9 40.7 190.5 40.8C191.9 41 193.2 41.8 194 43C194.8 44.2 195.3 45.5 195.5 46.9C196.4 53.1 194 59.3 189.1 63.3L189.5 62.8" fill="white"/>
<path d="M189.001 63.9002C188.601 63.9002 188.401 63.6002 188.401 63.2002C188.401 63.1002 188.401 63.0002 188.501 62.9002L188.901 62.4002C189.001 62.2002 189.201 62.1002 189.401 62.1002C193.601 58.3002 195.601 52.6002 194.701 47.0002C194.501 45.7002 194.101 44.4002 193.301 43.3002C192.601 42.3002 191.501 41.6002 190.301 41.4002C188.901 41.4002 187.501 41.9002 186.601 43.0002C185.601 44.2002 184.801 45.4002 184.201 46.9002C183.401 48.5002 182.401 50.5002 182.601 52.4002C182.601 52.8002 182.401 53.1002 182.001 53.1002C181.601 53.1002 181.301 52.9002 181.301 52.5002C181.101 50.2002 182.201 48.1002 183.001 46.3002C183.701 44.8002 184.601 43.4002 185.701 42.1002C186.901 40.7002 188.701 40.0002 190.501 40.1002C192.101 40.3002 193.501 41.2002 194.401 42.5002C195.201 43.8002 195.801 45.2002 196.001 46.7002C197.001 53.1002 194.501 59.6002 189.401 63.7002C189.301 63.8002 189.101 63.9002 189.001 63.9002Z" fill="#231F20"/>
<path d="M167.657 45.1951C168.264 45.1619 168.685 43.8386 168.597 42.2394C168.51 40.6402 167.947 39.3706 167.341 39.4038C166.734 39.437 166.313 40.7603 166.401 42.3595C166.488 43.9587 167.051 45.2283 167.657 45.1951Z" fill="#231F20"/>
<path d="M184 78.1C188.7 77.7 193.2 76.3 197.4 74C197.4 74 194.7 86.6 184.6 88.3L184 78.1Z" fill="#231F20"/>
<path d="M184.5 88.9C184.3 88.9 184.2 88.8001 184.1 88.8001C184 88.7001 183.9 88.5001 183.9 88.3001L183.4 78.2C183.4 77.8 183.7 77.5 184 77.5C188.6 77.1 193 75.7 197 73.5C197.3 73.3 197.7 73.4 197.9 73.7C198 73.9 198 74 198 74.2C197.9 74.7 195.1 87.3 184.6 89L184.5 88.9ZM184.7 78.7L185.1 87.5C192.2 85.9 195.3 78.5001 196.3 75.3001C192.7 77.1001 188.7 78.2 184.7 78.7Z" fill="#231F20"/>
<path d="M254.7 219.5C254.7 219.5 253.3 124.4 239 102.4C224.7 80.4 187.8 75.6 170 88.6C152.2 101.6 156.3 219.4 156.3 219.4H254.7V219.5Z" fill="#B9FF66"/>
<path d="M182.402 83C182.402 83 161.302 84.8 149.002 94.9C136.702 105 124.102 156.8 124.102 156.8L163.002 165.6L182.402 83Z" fill="#B9FF66"/>
<path d="M157.401 186.6C157.001 186.6 156.801 186.3 156.801 185.9C157.301 157.9 158.101 110.9 158.401 110.1C158.501 109.8 158.901 109.6 159.301 109.8C159.601 109.9 159.801 110.3 159.701 110.6C159.401 112.6 158.601 160.7 158.101 185.9C158.001 186.4 157.801 186.7 157.401 186.6Z" fill="#231F20"/>
<path d="M224.4 89C224.4 89 242.2 91 251.6 110.6C256.7 121.2 269.8 155.4 269.8 155.4L230.5 159.9L224.4 89Z" fill="#B9FF66"/>
<path d="M41.1 185.1L36.2 185C35.8 185 35.5 184.7 35.5 184.4C35.5 184.1 35.8 183.7 36.1 183.7L41 183.9C43.5 184.1 45.6 182.2 45.8 179.7C46 177.2 44.1 175.1 41.6 174.9C41.5 174.9 41.4 174.9 41.3 174.9C40.9 174.9 40.6 174.6 40.6 174.3C40.6 174 40.9 173.6 41.2 173.6C44.4 173.8 46.8 176.5 46.6 179.7C46.6 182.8 44.1 185.2 41.1 185.1Z" fill="#D1D3D4"/>
<path d="M50.4 188C50.3 191.2 39.5 193.4 26.3 192.9C13.1 192.4 2.5 189.6 2.5 186.4L50.4 188Z" fill="white"/>
<path d="M26.1994 193.6C14.2994 193.2 1.69942 190.6 1.79942 186.4C1.79942 186 2.09942 185.8 2.49942 185.8L50.3994 187.4C50.7994 187.4 50.9994 187.7 50.9994 188.1C50.8994 192.2 38.1994 194 26.1994 193.6ZM3.39942 187.2C4.89942 189.3 13.2994 192 26.2994 192.4C39.2994 192.8 47.7994 190.7 49.4994 188.7L3.39942 187.2Z" fill="#D1D3D4"/>
<path d="M38.6996 187.7L14.1996 186.9L10.0996 168.4L43.9996 169.5L38.6996 187.7Z" fill="white"/>
<path d="M38.7 188.3L14.2 187.5C13.9 187.5 13.6 187.3 13.6 187L9.5 168.5C9.5 168.3 9.5 168.1 9.6 167.9C9.7 167.7 9.9 167.7 10.1 167.7L44 168.8C44.2 168.8 44.4 168.9 44.5 169.1C44.6 169.3 44.7 169.5 44.6 169.7L39.3 187.8C39.2 188.1 39 188.3 38.7 188.3ZM14.7 186.2L38.2 187L43.1 170.1L10.9 169L14.7 186.2Z" fill="#D1D3D4"/>
<path d="M398 183.8H345.6V193H398V183.8Z" fill="white"/>
<path d="M398.1 193.7H345.7C345.3 193.7 345 193.4 345 193.1V183.9C345 183.5 345.3 183.3 345.6 183.3H398C398.4 183.3 398.6 183.6 398.6 183.9V193.1C398.7 193.4 398.4 193.7 398.1 193.7ZM346.3 192.4H397.4V184.5H346.3V192.4Z" fill="#D1D3D4"/>
<path d="M413.1 174.6H353V183.8H413.1V174.6Z" fill="white"/>
<path d="M413.1 184.5H353C352.6 184.5 352.4 184.2 352.4 183.9V174.7C352.4 174.3 352.7 174.1 353 174.1H413.1C413.5 174.1 413.7 174.4 413.7 174.7V183.9C413.8 184.2 413.5 184.5 413.1 184.5ZM353.6 183.2H412.4V175.3H353.6V183.2Z" fill="#D1D3D4"/>
<path d="M407.7 165.4H347.6V174.6H407.7V165.4Z" fill="white"/>
<path d="M407.7 175.2H347.6C347.2 175.2 347 174.9 347 174.6V165.4C347 165 347.3 164.8 347.6 164.8H407.7C408.1 164.8 408.3 165.1 408.3 165.4V174.6C408.4 174.9 408.1 175.2 407.7 175.2ZM348.3 173.9H407.1V166H348.3V173.9Z" fill="#D1D3D4"/>
<path d="M405.199 183.8H377.699V193H405.199V183.8Z" fill="#231F20"/>
<path d="M405.2 193.7H377.7C377.3 193.7 377 193.4 377 193.1V183.9C377 183.5 377.3 183.3 377.6 183.3H405.1C405.5 183.3 405.7 183.6 405.7 183.9V193.1C405.9 193.4 405.6 193.6 405.2 193.7ZM378.3 192.4H404.5V184.5H378.3V192.4Z" fill="#231F20"/>
<path d="M413.1 174.6H381.5V183.8H413.1V174.6Z" fill="#231F20"/>
<path d="M413.1 184.5H381.5C381.1 184.5 380.9 184.2 380.9 183.9V174.7C380.9 174.3 381.2 174.1 381.5 174.1H413.1C413.5 174.1 413.7 174.4 413.7 174.7V183.9C413.8 184.2 413.5 184.5 413.1 184.5ZM382.2 183.2H412.5V175.3H382.2V183.2Z" fill="#231F20"/>
<path d="M410.299 165.4H378.699V174.6H410.299V165.4Z" fill="#231F20"/>
<path d="M410.3 175.2H378.7C378.3 175.2 378.1 174.9 378.1 174.6V165.4C378.1 165 378.4 164.8 378.7 164.8H410.3C410.7 164.8 410.9 165.1 410.9 165.4V174.6C410.9 174.9 410.6 175.2 410.3 175.2ZM379.4 173.9H409.7V166H379.4V173.9Z" fill="#231F20"/>
<path d="M259.301 193.3H197.401C189.801 193.3 183.701 187.2 183.701 179.6C183.701 179 183.701 178.4 183.801 177.8L190.601 125.7C191.501 118.9 197.301 113.8 204.201 113.8H266.101C273.701 113.8 279.801 120 279.801 127.5C279.801 128.1 279.801 128.7 279.701 129.3L272.901 181.4C272.001 188.2 266.201 193.3 259.301 193.3Z" fill="#231F20"/>
<path d="M259.3 194H197.4C189.5 194 183 187.6 183 179.6C183 179 183 178.4 183.1 177.7L189.9 125.6C190.8 118.4 196.9 113.1 204.1 113.1H266C273.9 113.1 280.4 119.5 280.4 127.5C280.4 128.1 280.4 128.8 280.3 129.4L273.5 181.5C272.6 188.6 266.5 194 259.3 194ZM204.2 114.5C197.6 114.5 192.1 119.4 191.2 125.9L184.4 178C183.5 185.2 188.5 191.7 195.6 192.6C196.2 192.7 196.8 192.7 197.4 192.7H259.3C265.9 192.7 271.4 187.8 272.3 181.3L279.1 129.2C280 122 275 115.5 267.8 114.5C267.2 114.4 266.7 114.4 266.1 114.4L204.2 114.5Z" fill="#231F20"/>
<path d="M219.601 159.9C219.601 159.9 227.001 168.6 227.301 171.8C227.601 175 212.701 249.7 212.701 249.7L233.801 243.8C233.801 243.8 248.401 174.2 247.001 168.9C245.601 163.6 236.901 156.8 236.901 156.8L219.601 159.9Z" fill="#231F20"/>
<path d="M212.7 250.3C212.3 250.3 212 250 212 249.7V249.6C218 219.6 226.8 174.2 226.6 171.9C226.4 169.4 221.1 162.7 219.1 160.3C218.9 160 218.9 159.6 219.2 159.4C219.3 159.3 219.4 159.3 219.5 159.3L236.8 156.1C237 156.1 237.2 156.1 237.3 156.2C237.7 156.5 246.2 163.2 247.7 168.7C249.2 174.2 235 241 234.4 243.9C234.4 244.1 234.2 244.3 233.9 244.4L212.8 250.3H212.7ZM220.8 160.3C222.8 162.7 227.7 168.9 227.9 171.7C228.2 174.8 215.3 239.3 213.5 248.7L233.2 243.2C237.3 223.6 247.5 173.2 246.4 169C245.2 164.4 238.1 158.5 236.7 157.4L220.8 160.3Z" fill="#231F20"/>
<path d="M148.3 241.2H256C260.9 241.2 264.8 245.1 264.8 250V265.7C264.8 270.6 260.9 274.5 256 274.5H148.3C143.4 274.5 139.5 270.6 139.5 265.7V250C139.5 245.2 143.4 241.2 148.3 241.2Z" fill="#231F20"/>
<path d="M256 275.2H148.3C143.1 275.2 138.9 271 138.9 265.8V250C138.9 244.8 143.1 240.6 148.3 240.6H256C261.2 240.6 265.4 244.8 265.4 250V265.7C265.4 271 261.2 275.2 256 275.2ZM148.3 241.9C143.8 241.9 140.2 245.6 140.2 250V265.7C140.2 270.2 143.8 273.8 148.3 273.8H256C260.5 273.8 264.1 270.2 264.1 265.7V250C264.1 245.5 260.5 241.9 256 241.9H148.3Z" fill="#231F20"/>
<path d="M139.401 267.6C139.001 267.6 138.801 267.3 138.801 267V250.4C138.801 244.9 143.201 240.5 148.601 240.4L214.001 239.3L225.601 179.6C225.601 179.5 228.401 166.1 220.901 162.4C220.601 162.2 220.501 161.9 220.601 161.5C220.701 161.2 221.101 161 221.401 161.2C229.801 165.3 226.901 179.2 226.801 179.8L215.101 240C215.001 240.3 214.801 240.5 214.501 240.5L148.501 241.6C143.801 241.7 140.001 245.6 139.901 250.3V267C140.001 267.3 139.801 267.6 139.401 267.6Z" fill="white"/>
<path d="M247.001 171.6C246.601 171.6 246.401 171.3 246.401 170.9C246.701 166.8 244.701 163 241.201 160.9C240.901 160.7 240.801 160.3 241.001 160C241.201 159.7 241.601 159.6 241.901 159.8C245.801 162.2 248.001 166.5 247.701 171C247.701 171.4 247.401 171.6 247.001 171.6Z" fill="white"/>
<path d="M256.201 241.9L234.401 241.7C234.201 241.7 234.001 241.6 233.901 241.5C233.801 241.4 233.701 241.2 233.801 241L238.201 219.4C238.301 219.1 238.601 218.8 239.001 218.9C239.301 219 239.601 219.3 239.501 219.7L235.301 240.6L256.301 240.7C256.701 240.7 256.901 241 256.901 241.4C256.801 241.6 256.501 241.9 256.201 241.9Z" fill="white"/>
</svg>
