<svg width="439" height="382" viewBox="0 0 439 382" fill="none" xmlns="http://www.w3.org/2000/svg">
<path d="M1.3 204.201C0.899999 204.201 0.5 203.901 0.5 203.401C0.5 202.901 0.799999 202.601 1.3 202.601L46.8 200.101C47.2 200.101 47.6 200.401 47.6 200.801C47.6 201.201 47.3 201.601 46.9 201.601L1.3 204.201Z" fill="#D1D3D4"/>
<path d="M110.399 344.001C110.299 344.001 110.099 344.001 109.999 343.901C109.699 343.701 109.599 343.201 109.799 342.901L132.099 308.201C132.299 307.901 132.799 307.801 133.099 308.001C133.399 308.201 133.499 308.701 133.299 309.001L110.999 343.701C110.899 343.901 110.699 344.001 110.399 344.001Z" fill="#D1D3D4"/>
<path d="M26.1004 287.801C25.7004 287.801 25.4004 287.501 25.4004 287.001C25.4004 286.701 25.5004 286.501 25.8004 286.401L59.7004 267.401C60.1004 267.201 60.5004 267.301 60.7004 267.701C60.9004 268.101 60.8004 268.501 60.4004 268.701L26.5004 287.701C26.3004 287.701 26.2004 287.801 26.1004 287.801Z" fill="#D1D3D4"/>
<path d="M277.499 24.0003C277.399 24.0003 277.299 24.0003 277.199 24.0003C276.799 23.9003 276.599 23.4003 276.699 23.0003L284.999 0.700288C285.099 0.300288 285.599 0.100288 285.999 0.200288C286.399 0.300288 286.599 0.800288 286.499 1.20029L278.199 23.5003C278.099 23.8003 277.799 24.0003 277.499 24.0003Z" fill="#D1D3D4"/>
<path d="M402.399 158.801C401.999 158.801 401.699 158.501 401.699 158.001C401.699 157.601 401.999 157.301 402.299 157.301L437.799 151.501C438.199 151.401 438.599 151.701 438.699 152.201C438.799 152.601 438.499 153.001 438.099 153.101L402.599 158.901L402.399 158.801Z" fill="#D1D3D4"/>
<path d="M401.499 306C401.299 306 401.099 305.9 400.899 305.7L378.599 277.6C378.299 277.3 378.399 276.8 378.699 276.6C378.999 276.4 379.399 276.4 379.699 276.7L401.999 304.8C402.299 305.1 402.199 305.6 401.899 305.9C401.799 305.9 401.599 306 401.499 306Z" fill="#D1D3D4"/>
<path d="M53.9003 67.2003C53.7003 67.2003 53.5003 67.1003 53.4003 67.0003L37.4003 53.3003C37.1003 53.0003 37.0003 52.6003 37.3003 52.2003C37.6003 51.9003 38.0003 51.9003 38.3003 52.1003L54.3003 65.8003C54.6003 66.1003 54.7003 66.5003 54.4003 66.9003C54.3003 67.1003 54.1003 67.2003 53.9003 67.2003Z" fill="#D1D3D4"/>
<path d="M341.4 380.5L343.1 331.9L306.7 326.4L304.5 381" fill="white"/>
<path d="M304.501 381.8C304.101 381.8 303.801 381.4 303.801 381L306.001 326.4C306.001 326 306.401 325.7 306.801 325.7C306.801 325.7 306.801 325.7 306.901 325.7L343.301 331.2C343.701 331.3 343.901 331.6 343.901 332L342.301 380.5C342.301 380.9 342.001 381.2 341.601 381.2C341.601 381.2 341.601 381.2 341.501 381.2C341.101 381.2 340.801 380.8 340.801 380.4L342.401 332.6L307.501 327.3L305.301 381C305.301 381.4 304.901 381.7 304.501 381.8Z" fill="#231F20"/>
<path d="M163.9 359.5L205.5 310.2L242.8 319.3L195.3 367.8" fill="white"/>
<path d="M195.3 368.501C195.1 368.501 194.9 368.401 194.8 368.301C194.5 368.001 194.5 367.501 194.8 367.201L241.3 319.601L205.8 310.901L164.5 359.901C164.2 360.201 163.7 360.201 163.4 360.001C163.1 359.701 163.1 359.201 163.3 358.901L205 309.601C205.2 309.401 205.5 309.301 205.8 309.401L243 318.501C243.4 318.601 243.6 319.001 243.5 319.401C243.5 319.501 243.4 319.601 243.3 319.701L195.9 368.201C195.7 368.401 195.5 368.501 195.3 368.501Z" fill="#231F20"/>
<path d="M325.2 111.101C325.2 111.101 268.6 126.601 269.2 128.801C269.8 131.001 280.8 171.801 280.8 171.801L316 163.001L325.2 111.101Z" fill="black"/>
<path d="M326.4 110.8C326.4 110.8 308.4 115.6 297.4 121.9C286.2 128.3 289.4 195.9 289.4 195.9L371 212.3C371 212.3 386.5 168.4 385.5 148.4C384.5 128.4 372 99.9003 326.4 110.8Z" fill="black"/>
<path d="M285.7 162.9C285.6 162.9 285.5 162.9 285.4 162.9C285 162.7 284.8 162.3 285 161.9C290.4 148.8 298.4 128.8 298.6 127.4C298.6 127 298.9 126.7 299.3 126.7C299.7 126.7 300.1 127.1 300.1 127.5C300.1 128.7 290.5 152.4 286.4 162.5C286.3 162.7 286 162.9 285.7 162.9Z" fill="#231F20"/>
<path d="M331.301 102.5L325.501 119.8C325.501 119.8 325.401 130.1 336.801 129.2C343.601 128.6 349.801 125 353.701 119.3L358.501 88.2999C356.801 86.7999 355.601 84.6999 355.401 82.3999C355.201 80.6999 355.201 78.8999 355.501 77.1999C356.001 74.8999 356.901 72.6999 358.001 70.5999C352.501 69.4999 347.701 67.2999 343.901 62.9999C343.001 61.8999 342.201 60.7999 341.401 59.5999C341.001 59.0999 333.801 62.4999 333.001 62.7999C329.501 64.5999 326.001 67.0999 323.901 70.4999C322.201 73.3999 321.601 76.6999 321.001 79.8999C320.201 84.3999 319.701 88.9999 319.701 93.4999C320.001 102.4 331.301 102.5 331.301 102.5Z" fill="white"/>
<path d="M335.4 130C332.7 130.1 330 129.2 327.9 127.4C325.9 125.4 324.8 122.6 324.7 119.8C324.7 119.7 324.7 119.6 324.7 119.6L330.2 103.2C327.3 102.9 319.2 101.4 319.1 93.6999C319.1 89.0999 319.5 84.4999 320.4 79.8999C320.9 76.7999 321.5 73.2999 323.4 70.1999C325.3 67.0999 328.5 64.2999 332.8 62.1999C341.3 57.9999 341.8 58.7999 342.1 59.1999C342.8 60.2999 343.6 61.3999 344.5 62.4999C347.9 66.2999 352.2 68.5999 358.2 69.7999C358.6 69.8999 358.9 70.2999 358.8 70.6999C358.8 70.7999 358.8 70.7999 358.7 70.8999C357.6 72.8999 356.8 74.9999 356.2 77.2999C355.9 78.8999 355.8 80.5999 356.1 82.1999C356.3 84.2999 357.3 86.2999 358.9 87.6999C359.1 87.8999 359.2 88.0999 359.2 88.3999L354.4 119.4C354.4 119.5 354.4 119.6 354.3 119.7C350.4 125.6 344 129.4 336.9 130.1C336.4 130 335.9 130 335.4 130ZM326.3 119.9C326.4 122.3 327.3 124.6 329 126.3C330.8 128 333.4 128.7 336.8 128.4C343.3 127.8 349.3 124.4 353 119L357.7 88.5999C356 86.9999 354.9 84.7999 354.7 82.4999C354.4 80.6999 354.5 78.8999 354.8 77.0999C355.3 75.0999 356 73.0999 357 71.1999C351.2 69.8999 346.8 67.3999 343.4 63.5999C342.6 62.5999 341.8 61.4999 341.1 60.4999C338.5 61.3999 336 62.4999 333.5 63.6999C330.7 65.0999 326.9 67.4999 324.7 71.0999C323 73.8999 322.5 77.1999 321.9 80.2999C321.1 84.7999 320.6 89.2999 320.6 93.7999C320.7 101.7 330.8 101.9 331.3 101.9C331.7 101.9 332 102.2 332 102.7C332 102.8 332 102.9 332 102.9L326.3 119.9Z" fill="#231F20"/>
<path d="M352.5 85.5C353 84.2 354 83.2 355.1 82.5C356.2 81.9 357.5 81.5 358.7 81.4C359.4 81.2 360.1 81.2 360.8 81.4C361.3 81.6 361.7 81.8 362.1 82.1C363 82.8 363.7 83.7 364 84.8C364.1 85.7 364 86.7 363.7 87.6C363.4 88.6 363 89.5 362.5 90.4C360.3 94 355.5 95.1 352 92.8C352 92.8 351.9 92.8 351.9 92.7" fill="white"/>
<path d="M356 94.6998C354.4 94.6998 352.8 94.1998 351.4 93.2998C351.1 93.0998 351 92.5998 351.2 92.2998C351.4 91.9998 351.9 91.8998 352.2 92.0998C355.4 94.1998 359.7 93.2998 361.8 90.0998C361.8 90.0998 361.8 89.9998 361.9 89.9998C362.4 89.1998 362.8 88.2998 363 87.3998C363.3 86.5998 363.4 85.7998 363.3 84.9998C363 84.0998 362.5 83.1998 361.7 82.6998C361.4 82.3998 361.1 82.2998 360.7 82.0998C360.1 81.9998 359.5 81.9998 359 82.1998C357.8 82.3998 356.7 82.6998 355.6 83.2998C354.6 83.8998 353.7 84.7998 353.3 85.8998C353.1 86.2998 352.7 86.4998 352.3 86.2998C351.9 86.0998 351.7 85.6998 351.9 85.2998C352.5 83.8998 353.6 82.6998 354.9 81.8998C356.1 81.2998 357.4 80.7998 358.8 80.6998C359.6 80.4998 360.4 80.4998 361.2 80.6998C361.8 80.8998 362.3 81.1998 362.7 81.4998C363.8 82.2998 364.6 83.3998 364.9 84.6998C365 85.6998 364.9 86.7998 364.6 87.7998C364.3 88.8998 363.9 89.8998 363.3 90.7998C361.6 93.1998 358.9 94.6998 356 94.6998Z" fill="#231F20"/>
<path d="M328.4 111.7C332.6 112.1 336.8 111 340.3 108.7C345.9 104.8 346.2 99.7998 346.2 99.7998C341.5 101.9 336.5 102.8 331.4 102.6L328.4 111.7Z" fill="#231F20"/>
<path d="M330.101 112.5C329.501 112.5 328.901 112.5 328.301 112.4C328.101 112.4 327.901 112.2 327.801 112.1C327.701 111.9 327.701 111.7 327.701 111.5L330.601 102.4C330.701 102.1 331.001 101.9 331.401 101.9C336.401 102.1 341.301 101.2 345.801 99.2C346.001 99.1 346.301 99.1 346.601 99.2C346.801 99.3 347.001 99.6 346.901 99.9C346.901 100.1 346.501 105.3 340.701 109.3C337.601 111.4 333.901 112.5 330.101 112.5ZM329.401 111C333.101 111.2 336.801 110.1 339.901 108.1C342.401 106.5 344.301 104 345.201 101.1C341.001 102.7 336.501 103.5 331.901 103.4L329.401 111Z" fill="#231F20"/>
<path d="M339.001 72.9004C339.001 72.9004 331.601 80.3004 332.701 82.1004C333.801 83.9004 337.801 83.6004 337.801 83.6004" fill="white"/>
<path d="M337.201 84.3002C335.901 84.3002 333.101 84.1002 332.001 82.4002C330.801 80.4002 335.501 75.2002 338.401 72.3002C338.701 72.0002 339.201 72.0002 339.501 72.3002C339.801 72.6002 339.801 73.1002 339.501 73.3002C336.001 76.9002 333.001 80.7002 333.301 81.6002C333.901 82.6002 336.301 82.8002 337.701 82.7002C338.101 82.7002 338.501 83.0002 338.501 83.4002C338.501 83.8002 338.201 84.2002 337.801 84.2002L337.201 84.3002Z" fill="#231F20"/>
<path d="M327.7 87.8006L342 87.6006C342 87.6006 341.4 97.3006 333 97.8006C324.6 98.3006 327.7 87.8006 327.7 87.8006Z" fill="#231F20"/>
<path d="M342.4 72.9003C342.8 72.1003 343.6 71.5003 344.5 71.4003C346.1 71.1003 347 73.0003 347 73.0003" fill="white"/>
<path d="M346.9 73.8004C346.6 73.8004 346.3 73.6004 346.2 73.4004C346.2 73.4004 345.6 72.0004 344.5 72.2004C343.9 72.3004 343.3 72.6004 343 73.2004C342.9 73.6004 342.4 73.8004 342 73.7004C341.6 73.6004 341.4 73.2004 341.5 72.8004C342 71.7004 343 70.9004 344.2 70.8004C345.6 70.7004 347 71.5004 347.5 72.9004C347.7 73.3004 347.5 73.7004 347.1 73.9004C347.1 73.7004 347 73.8004 346.9 73.8004Z" fill="#231F20"/>
<path d="M329.1 71.6005C329.5 70.8005 330.3 70.2005 331.2 70.1005C332.8 69.8005 333.7 71.7005 333.7 71.7005" fill="white"/>
<path d="M333.701 72.5006C333.401 72.5006 333.101 72.3006 333.001 72.1006C333.001 72.1006 332.401 70.7006 331.301 70.9006C330.701 71.0006 330.101 71.3006 329.801 71.9006C329.701 72.3006 329.201 72.5006 328.801 72.4006C328.401 72.3006 328.201 71.9006 328.301 71.5006C328.801 70.4006 329.801 69.6006 330.901 69.5006C332.301 69.4006 333.701 70.2006 334.201 71.6006C334.401 72.0006 334.201 72.4006 333.801 72.6006C333.901 72.5006 333.801 72.5006 333.701 72.5006Z" fill="#231F20"/>
<path d="M369.4 211.3L357.7 367.2L163.4 327.5L292.5 195L369.4 211.3Z" fill="#231F20"/>
<path d="M285.7 96.9004L57.5 134.9L157.9 32.9004L285.7 96.9004Z" fill="#231F20"/>
<path d="M57.5004 135.7C57.2004 135.7 57.0004 135.5 56.8004 135.3C56.6004 135 56.7004 134.7 56.9004 134.4L157.3 32.4004C157.5 32.2004 157.9 32.1004 158.2 32.3004L286 96.3004C286.3 96.4004 286.5 96.8004 286.4 97.1004C286.4 97.4004 286.1 97.7004 285.8 97.7004L57.6004 135.7H57.5004ZM158.1 33.8004L59.7004 133.8L283.4 96.5004L158.1 33.8004Z" fill="#231F20"/>
<path d="M306.801 250L91.5008 288.7L57.8008 136.3L285.901 98.2002L306.801 250Z" fill="#231F20"/>
<path d="M91.4996 289.4C91.0996 289.4 90.7996 289.2 90.7996 288.8L57.0996 136.4C57.0996 136.2 57.0996 136 57.1996 135.8C57.2996 135.6 57.4996 135.5 57.6996 135.5L285.8 97.5C286 97.5 286.2 97.5 286.4 97.6C286.6 97.7 286.7 97.9 286.7 98.1L307.6 249.8C307.7 250.2 307.4 250.6 307 250.6L91.6996 289.3L91.4996 289.4ZM58.6996 136.9L92.0996 287.9L306 249.4L285.3 99.1L58.6996 136.9Z" fill="#231F20"/>
<path d="M109.6 238.2C109.6 238.2 69.9004 115.8 50.9004 78.6002L263.4 20.7002L276.6 210.1L109.6 238.2Z" fill="black"/>
<path d="M88.1008 100.1C87.7008 100.1 87.3008 99.8003 87.3008 99.4003C87.3008 99.0003 87.5008 98.7003 87.9008 98.7003L244.201 58.2003C244.601 58.1003 245.001 58.3003 245.101 58.7003C245.201 59.1003 245.001 59.5003 244.601 59.6003L88.3008 100.1C88.2008 100.1 88.2008 100.1 88.1008 100.1Z" fill="white"/>
<path d="M94.6998 125.701C94.2998 125.701 93.9999 125.501 93.9999 125.101C93.8999 124.701 94.1998 124.301 94.5998 124.201L245.9 90.3006C246.3 90.2006 246.7 90.5006 246.8 90.9006C246.9 91.3006 246.6 91.7006 246.2 91.8006L94.8999 125.701H94.6998Z" fill="white"/>
<path d="M107.7 149.7C107.3 149.7 106.9 149.4 106.9 149C106.9 148.6 107.2 148.3 107.5 148.2L252.2 120.1C252.6 120 253 120.3 253.1 120.7C253.2 121.1 252.9 121.4 252.5 121.5L107.8 149.6L107.7 149.7Z" fill="white"/>
<path d="M114.6 180.3C114.2 180.3 113.9 180 113.9 179.7C113.8 179.3 114.1 178.9 114.5 178.8L251.8 156.5C252.2 156.4 252.6 156.7 252.7 157.1C252.8 157.5 252.5 157.9 252.1 158L114.8 180.3H114.6Z" fill="white"/>
<path d="M186.901 195.2L57.8008 136.3L91.5008 288.7L306.801 250L285.901 98.2002L186.901 195.2Z" fill="white"/>
<path d="M91.4995 289.401C91.0995 289.401 90.7995 289.201 90.7995 288.801L57.0995 136.401C56.9995 136.001 57.2995 135.601 57.6995 135.501C57.7995 135.501 57.9995 135.501 58.0995 135.501L186.699 194.301L285.299 97.7006C285.599 97.4006 286.099 97.4006 286.299 97.7006C286.399 97.8006 286.499 98.0006 286.499 98.1006L307.399 249.801C307.499 250.201 307.199 250.601 306.799 250.601L91.5995 289.301L91.4995 289.401ZM58.8995 137.601L92.0995 287.901L305.999 249.401L285.399 99.8006L187.499 195.701C187.299 195.901 186.899 196.001 186.699 195.801L58.8995 137.601Z" fill="#231F20"/>
<path d="M306.8 250L91.5996 288.7L186.9 195.2L306.8 250Z" fill="white"/>
<path d="M91.6004 289.401C91.2004 289.401 90.9004 289.101 90.9004 288.601C90.9004 288.401 91.0004 288.201 91.1004 288.101L186.5 194.601C186.7 194.401 187.1 194.301 187.3 194.501L307.2 249.201C307.6 249.401 307.7 249.801 307.6 250.201C307.5 250.401 307.3 250.601 307.1 250.601L91.8004 289.301L91.6004 289.401ZM187.1 196.101L93.8004 287.501L304.3 249.601L187.1 196.101Z" fill="#231F20"/>
<path d="M306.8 250L91.5996 288.7L186.9 195.2L306.8 250Z" fill="white"/>
<path d="M91.6004 289.401C91.2004 289.401 90.9004 289.101 90.9004 288.601C90.9004 288.401 91.0004 288.201 91.1004 288.101L186.5 194.601C186.7 194.401 187.1 194.301 187.3 194.501L307.2 249.201C307.6 249.401 307.7 249.801 307.6 250.201C307.5 250.401 307.3 250.601 307.1 250.601L91.8004 289.301L91.6004 289.401ZM187.1 196.101L93.8004 287.501L304.3 249.601L187.1 196.101Z" fill="#231F20"/>
<path d="M361.4 136.101C361.4 136.101 247.3 194.001 229.9 197.301C212.5 200.601 191.9 194.801 192.7 199.801C193.5 204.801 203.5 207.201 203.5 207.201C203.5 207.201 172.1 212.201 173.7 215.501C175.3 218.801 196 214.701 196 214.701C196 214.701 170.4 222.101 176.1 225.501C181.8 228.901 200.1 221.401 200.1 221.401C200.1 221.401 172.8 235.401 180.3 236.301C187.8 237.201 201 229.701 201 229.701C201 229.701 180.3 240.501 188.6 241.301C196.9 242.101 320.1 198.301 361.4 173.501" fill="white"/>
<path d="M188.801 241.9H188.501C186.901 241.7 186.101 241.2 185.901 240.3C185.701 239 187.501 237.2 190.001 235.3C186.601 236.4 183.101 237.2 180.201 236.9C179.101 236.8 178.401 236.3 178.301 235.6C177.901 233.4 185.101 228.8 191.701 225C186.001 226.6 179.101 228 175.801 226.1C175.001 225.8 174.501 225 174.601 224.1C174.901 221.8 180.801 219.1 186.501 217C180.501 217.7 174.101 218 173.101 215.8C172.901 215.4 172.901 214.9 173.101 214.6C174.601 211.6 192.301 208.4 200.301 207C197.201 205.8 192.601 203.5 192.001 199.9C191.901 199.3 192.101 198.6 192.501 198.2C193.901 196.6 198.501 196.8 205.301 197.2C212.501 197.6 221.501 198.1 229.801 196.6C246.901 193.4 359.901 136 361.101 135.5C361.501 135.3 361.901 135.5 362.101 135.8C362.301 136.2 362.101 136.6 361.801 136.8C357.101 139.2 247.401 194.8 230.101 198.1C221.601 199.7 212.501 199.2 205.201 198.8C199.701 198.5 194.601 198.2 193.601 199.3C193.501 199.4 193.501 199.6 193.501 199.8C194.101 203.5 201.101 206 203.701 206.6C204.101 206.7 204.401 207.1 204.301 207.5C204.201 207.8 204.001 208 203.701 208.1C190.301 210.2 175.501 213.6 174.501 215.4C175.501 216.9 185.001 216.3 196.001 214.1C196.401 214 196.801 214.2 196.901 214.6C197.001 215 196.801 215.4 196.401 215.5C186.901 218.3 176.501 222.4 176.201 224.4C176.201 224.6 176.501 224.8 176.701 224.9C181.201 227.5 195.101 222.8 200.001 220.7C200.401 220.5 200.801 220.7 201.001 221.1C201.201 221.5 201.001 221.9 200.601 222.1C190.801 227.1 180.201 233.6 179.901 235.4C180.101 235.5 180.301 235.5 180.501 235.5C186.101 236.1 195.201 231.8 199.001 229.9L200.701 229C201.101 228.8 201.501 229 201.701 229.3C201.901 229.7 201.801 230.1 201.401 230.3C201.301 230.4 200.601 230.8 199.501 231.3C192.101 235.3 187.101 239.2 187.401 240.1C187.401 240.1 187.601 240.4 188.701 240.5C192.301 240.8 222.701 231.2 262.401 216.3C283.701 208.3 335.801 188 361.101 172.8C361.501 172.6 361.901 172.7 362.101 173.1C362.301 173.5 362.201 173.9 361.801 174.1C321.901 197.9 200.401 241.9 188.801 241.9Z" fill="#231F20"/>
<path d="M340.3 185.1C340.3 185.1 322.7 143.8 324.3 143.2C325.9 142.6 359.6 120.6 362.3 122.2C365 123.8 375.5 155.8 372.2 165.2C368.9 174.6 340.3 185.1 340.3 185.1Z" fill="black"/>
<path d="M344.7 185.2C344.4 185.2 344.1 185 344 184.7C343.9 184.3 344.1 183.9 344.5 183.8C344.7 183.7 369.2 175.4 378.9 163.1C379.2 162.8 379.7 162.9 380 163.2C380.2 163.4 380.2 163.7 380.1 164C370.1 176.7 346 184.9 345 185.2C344.8 185.2 344.8 185.2 344.7 185.2Z" fill="#231F20"/>
<path d="M364.3 95.4006C363.9 95.4006 363.6 95.0006 363.6 94.6006C363.6 94.3006 363.8 94.0006 364.1 93.9006C369.7 92.2006 374.2 88.1006 376.3 82.8006C378.5 77.4006 379 71.5006 377.8 65.8006C377 60.3006 374.6 55.1006 370.9 50.9006C366.9 46.7006 361.3 44.4006 356.3 45.0006L355.2 45.1006C354.4 45.2006 353.6 45.3006 352.8 45.3006C351.8 45.3006 350.8 45.1006 349.8 44.9006L349.2 44.8006C332.2 41.4006 315.7 52.4006 312.3 69.4006C311.4 73.9006 311.5 78.6006 312.6 83.1006C313 84.5006 313.8 86.9006 315.6 87.1006C316 87.1006 316.3 87.4006 316.3 87.9006C316.3 88.4006 316 88.6006 315.5 88.6006C315.4 88.6006 315.4 88.6006 315.3 88.6006C313.3 88.4006 311.8 86.5006 311 83.5006C306.6 65.9006 317.4 48.1006 335 43.7006C339.7 42.5006 344.6 42.4006 349.4 43.4006L350 43.5006C351.6 44.0006 353.3 44.0006 354.9 43.7006C355.3 43.6006 355.7 43.6006 356 43.5006C361.6 42.9006 367.6 45.3006 371.9 49.9006C375.8 54.3006 378.3 59.7006 379.2 65.5006C380.4 71.5006 379.9 77.7006 377.6 83.4006C375 89.4006 370.1 93.9006 364.4 95.4006H364.3Z" fill="#231F20"/>
<path d="M352.801 44.6004C352.801 44.6004 360.401 38.9004 372.801 42.0004C385.201 45.1004 389.901 67.6004 378.301 79.8004C378.301 79.8004 380.101 46.7004 352.801 44.6004Z" fill="#231F20"/>
<path d="M396.901 115.501C390.401 114.901 384.801 112.801 380.701 109.401C375.901 105.401 373.101 99.5006 373.401 93.9006C373.401 93.5006 373.801 93.2006 374.201 93.2006C374.601 93.2006 374.901 93.6006 374.901 94.0006C374.601 99.1006 377.201 104.601 381.701 108.201C385.301 111.001 389.601 112.901 394.101 113.601C392.901 112.201 392.101 110.501 391.801 108.601C391.601 105.801 392.001 103.001 393.101 100.401C394.901 96.0006 397.001 91.8006 399.501 87.8006C403.201 81.6006 406.601 75.7006 407.401 68.8006C408.901 55.4006 399.301 43.3006 385.901 41.8006C382.801 41.5006 379.801 41.7006 376.801 42.5006C376.401 42.6006 376.001 42.4006 375.901 42.0006C375.801 41.6006 376.001 41.2006 376.401 41.1006C390.201 37.3006 404.401 45.5006 408.201 59.3006C409.101 62.5006 409.301 65.7006 408.901 69.0006C408.101 76.2006 404.401 82.5006 400.801 88.6006C398.301 92.5006 396.201 96.7006 394.501 101.001C393.501 103.301 393.101 105.901 393.301 108.401C393.501 110.801 395.001 113.001 397.201 114.001C397.601 114.201 397.801 114.601 397.601 115.001C397.501 115.301 397.201 115.501 396.901 115.501Z" fill="#231F20"/>
<path d="M329.601 149.3C329.201 149.3 328.801 149 328.801 148.6C328.801 148.3 328.901 148.1 329.201 148L359.401 129.4C359.701 129.2 360.201 129.3 360.401 129.6C360.601 129.9 360.501 130.4 360.201 130.6L330.001 149.2C329.901 149.2 329.701 149.3 329.601 149.3Z" fill="#231F20"/>
<path d="M335.001 237.3C334.901 237.3 334.801 237.3 334.601 237.2C334.301 237 334.101 236.6 334.301 236.2L350.301 207C350.501 206.7 350.801 206.5 351.201 206.6C351.501 206.7 351.801 207 351.801 207.3V233.2C351.801 233.6 351.501 234 351.001 234C350.501 234 350.201 233.7 350.201 233.2V210.2L335.601 236.8C335.501 237.2 335.301 237.3 335.001 237.3Z" fill="white"/>
<path d="M291.801 39.9004C291.801 39.9004 288.701 51.7004 278.801 51.9004C278.801 51.9004 289.201 54.8004 291.401 64.6004C291.401 64.6004 294.201 55.7004 303.501 53.3004C303.501 53.4004 295.101 50.5004 291.801 39.9004Z" fill="#D1D3D4"/>
<path d="M8 129.2C8 129.2 15.9 140.5 8.9 149.2C8.9 149.2 19 142.3 29.1 147.6C29.1 147.6 23.4 138.7 28.1 128.9C28.1 128.9 19.6 134.1 8 129.2Z" fill="#D1D3D4"/>
<path d="M78.7004 37.2002C78.7004 37.2002 80.4004 56.9002 65.4004 62.6002C65.4004 62.6002 82.9004 61.4002 91.5004 75.1002C91.5004 75.1002 90.9004 60.0002 103.7 51.3002C103.8 51.3002 89.5004 51.6002 78.7004 37.2002Z" fill="#D1D3D4"/>
</svg>
