<svg width="422" height="284" viewBox="0 0 422 284" fill="none" xmlns="http://www.w3.org/2000/svg">
<path d="M420.6 75H226.5V283.1H420.6V75Z" fill="white"/>
<path d="M420.501 283.8H226.501C226.101 283.8 225.801 283.5 225.801 283.1V74.9998C225.801 74.5998 226.101 74.2998 226.501 74.2998H420.601C421.001 74.2998 421.301 74.5998 421.301 74.9998V283.1C421.201 283.5 420.901 283.8 420.501 283.8ZM227.201 282.4H419.901V75.6998H227.201V282.4Z" fill="#231F20"/>
<path d="M420.6 75H226.5V98.1H420.6V75Z" fill="white"/>
<path d="M420.501 98.6998H226.501C226.101 98.6998 225.801 98.3998 225.801 97.9998V74.9998C225.801 74.5998 226.101 74.2998 226.501 74.2998H420.601C421.001 74.2998 421.301 74.5998 421.301 74.9998V97.9998C421.301 98.3998 420.901 98.6998 420.501 98.6998C420.601 98.6998 420.601 98.6998 420.501 98.6998ZM227.201 97.2998H419.901V75.5998H227.201V97.2998Z" fill="#231F20"/>
<path d="M236.801 89.0996C238.458 89.0996 239.801 87.7565 239.801 86.0996C239.801 84.4428 238.458 83.0996 236.801 83.0996C235.144 83.0996 233.801 84.4428 233.801 86.0996C233.801 87.7565 235.144 89.0996 236.801 89.0996Z" fill="black"/>
<path d="M247.5 89.0996C249.157 89.0996 250.5 87.7565 250.5 86.0996C250.5 84.4428 249.157 83.0996 247.5 83.0996C245.843 83.0996 244.5 84.4428 244.5 86.0996C244.5 87.7565 245.843 89.0996 247.5 89.0996Z" fill="#D1D3D4"/>
<path d="M258.102 89.0996C259.758 89.0996 261.102 87.7565 261.102 86.0996C261.102 84.4428 259.758 83.0996 258.102 83.0996C256.445 83.0996 255.102 84.4428 255.102 86.0996C255.102 87.7565 256.445 89.0996 258.102 89.0996Z" fill="#D1D3D4"/>
<path d="M398.201 229.3H373.401C373.001 229.3 372.701 229 372.701 228.6C372.701 228.2 373.001 227.9 373.401 227.9H398.201C398.601 227.9 398.901 228.2 398.901 228.6C398.901 228.9 398.601 229.3 398.201 229.3Z" fill="#D1D3D4"/>
<path d="M389.001 244H373.401C373.001 244 372.701 243.7 372.701 243.3C372.701 242.9 373.001 242.6 373.401 242.6H389.001C389.401 242.6 389.701 242.9 389.701 243.3C389.701 243.7 389.401 244 389.001 244Z" fill="#D1D3D4"/>
<path d="M396.201 267.5H377.501C374.901 267.5 372.701 265.4 372.701 262.7V259.7C372.701 257.1 374.801 254.9 377.501 254.9H396.201C398.801 254.9 401.001 257 401.001 259.7V262.7C401.001 265.3 398.801 267.5 396.201 267.5ZM377.501 256.2C375.601 256.2 374.101 257.7 374.101 259.6V262.6C374.101 264.5 375.601 266 377.501 266H396.201C398.101 266 399.601 264.5 399.601 262.6V259.6C399.601 257.7 398.101 256.2 396.201 256.2H377.501Z" fill="#D1D3D4"/>
<path d="M311.3 188.7C311.3 188.7 268 194.9 262.2 188.7C256.4 182.5 243.1 147.3 243.1 147.3L227.6 160C227.6 160 239.2 226 258.8 225.6C278.4 225.2 322.4 209.1 322.4 209.1L311.3 188.7Z" fill="white"/>
<path d="M258.7 226.3C238.8 226.3 227.5 162.8 227 160.1C227 159.9 227 159.6 227.2 159.4L242.6 146.7C242.8 146.6 243 146.5 243.2 146.6C243.4 146.7 243.6 146.8 243.7 147C243.8 147.4 257 182.2 262.7 188.2C267.3 193 299.2 189.7 311.2 188C311.5 188 311.8 188.1 311.9 188.4L323 208.9C323.2 209.2 323.1 209.7 322.7 209.9H322.6C322.2 210.1 278.3 226.1 258.8 226.4L258.7 226.3ZM228.4 160.3C229.4 165.8 240.7 224.9 258.6 224.9H258.7C276.6 224.6 315.3 210.9 321.3 208.8L310.8 189.5C308.6 189.8 298.9 191.1 288.9 191.7C273.4 192.7 264.2 191.9 261.6 189.2C256.2 183.5 244.9 154.2 242.7 148.5L228.4 160.3Z" fill="#231F20"/>
<path d="M195.6 0.899902H1.5V209H195.6V0.899902Z" fill="white"/>
<path d="M195.501 209.7H1.50078C1.10078 209.7 0.800781 209.4 0.800781 209V0.9002C0.800781 0.5002 1.10078 0.200195 1.50078 0.200195H195.601C196.001 0.200195 196.301 0.5002 196.301 0.9002V209C196.201 209.4 195.901 209.7 195.501 209.7ZM2.10078 208.3H194.801V1.6002H2.20078L2.10078 208.3Z" fill="#231F20"/>
<path d="M195.6 0.899902H1.5V23.9999H195.6V0.899902Z" fill="white"/>
<path d="M195.501 24.6001H1.50078C1.10078 24.6001 0.800781 24.3001 0.800781 23.9001V0.800102C0.800781 0.400102 1.10078 0.100098 1.50078 0.100098H195.601C196.001 0.100098 196.301 0.400102 196.301 0.800102V23.8001C196.201 24.3001 195.901 24.6001 195.501 24.6001ZM2.10078 23.2001H194.801V1.5001H2.20078L2.10078 23.2001Z" fill="#231F20"/>
<path d="M11.8008 15C13.4576 15 14.8008 13.6569 14.8008 12C14.8008 10.3431 13.4576 9 11.8008 9C10.1439 9 8.80078 10.3431 8.80078 12C8.80078 13.6569 10.1439 15 11.8008 15Z" fill="black"/>
<path d="M22.4004 15C24.0572 15 25.4004 13.6569 25.4004 12C25.4004 10.3431 24.0572 9 22.4004 9C20.7435 9 19.4004 10.3431 19.4004 12C19.4004 13.6569 20.7435 15 22.4004 15Z" fill="#D1D3D4"/>
<path d="M33.1016 15C34.7584 15 36.1016 13.6569 36.1016 12C36.1016 10.3431 34.7584 9 33.1016 9C31.4447 9 30.1016 10.3431 30.1016 12C30.1016 13.6569 31.4447 15 33.1016 15Z" fill="#D1D3D4"/>
<path d="M57.9012 48.0001H22.4012C22.0012 48.0001 21.7012 47.7001 21.7012 47.3001C21.7012 46.9001 22.0012 46.6001 22.4012 46.6001H57.9012C58.3012 46.6001 58.6012 46.9001 58.6012 47.3001C58.6012 47.7001 58.3012 48.0001 57.9012 48.0001Z" fill="#D1D3D4"/>
<path d="M40.2012 68.0001H22.4012C22.0012 68.0001 21.7012 67.7001 21.7012 67.3001C21.7012 66.9001 22.0012 66.6001 22.4012 66.6001H40.2012C40.6012 66.6001 40.9012 66.9001 40.9012 67.3001C40.9012 67.7001 40.6012 68.0001 40.2012 68.0001Z" fill="#D1D3D4"/>
<path d="M31.3004 103.2C25.3004 103.2 20.4004 98.3 20.4004 92.3C20.4004 86.3 25.3004 81.5 31.2004 81.5C37.2004 81.5 42.1004 86.4 42.1004 92.3C42.1004 98.4 37.3004 103.2 31.3004 103.2ZM31.3004 82.9C26.1004 82.9 21.8004 87.1 21.8004 92.3C21.8004 97.5 26.0004 101.7 31.2004 101.7C36.4004 101.7 40.7004 97.5 40.7004 92.3C40.8004 87.2 36.5004 82.9 31.3004 82.9Z" fill="#D1D3D4"/>
<path d="M31.3001 96C31.0001 96 30.9001 95.9 30.7001 95.7L26.6001 90.1C26.4001 89.8 26.4001 89.3 26.8001 89.1C27.1001 88.9 27.6001 88.9 27.8001 89.2L31.4001 94.1L45.6001 80.1C45.9001 79.8 46.3001 79.8 46.6001 80.1C46.9001 80.4 46.9001 80.8 46.6001 81.1L31.8001 95.7C31.7001 95.9 31.5001 96 31.3001 96Z" fill="#D1D3D4"/>
<path d="M53.0996 185.2L48.5996 209H122.7L118.6 197L53.0996 185.2Z" fill="#231F20"/>
<path d="M122.7 209.7H48.6004C48.4004 209.7 48.2004 209.6 48.1004 209.5C48.0004 209.3 47.9004 209.1 47.9004 208.9L52.5004 185.1C52.6004 184.7 52.9004 184.5 53.3004 184.5L118.8 196.2C119.1 196.2 119.3 196.4 119.3 196.7L123.4 208.8C123.5 209.2 123.3 209.6 123 209.7C122.8 209.7 122.8 209.7 122.7 209.7ZM49.4004 208.3H121.7L118.1 197.5L53.7004 186L49.4004 208.3Z" fill="#231F20"/>
<path d="M147.6 117.9L189.6 168.5L171.1 176.1L126.1 128.2L147.6 117.9Z" fill="white"/>
<path d="M171.1 176.8C170.9 176.8 170.7 176.7 170.6 176.6L125.6 128.7C125.4 128.5 125.4 128.3 125.4 128.1C125.4 127.9 125.6 127.7 125.8 127.6L147.3 117.3C147.6 117.2 147.9 117.2 148.1 117.5L190.1 168.1C190.2 168.3 190.3 168.5 190.2 168.7C190.1 168.9 190 169.1 189.8 169.2L171.3 176.8C171.3 176.8 171.2 176.8 171.1 176.8ZM127.2 128.4L171.2 175.3L188.4 168.3L147.3 118.8L127.2 128.4Z" fill="#231F20"/>
<path d="M134.901 91.5L156.201 119.3L127.201 135.2L134.901 91.5Z" fill="black"/>
<path d="M134.9 91.4998C133.1 88.5998 92.8 75.9999 79.5 85.2999C66.2 94.5999 52.2 166.8 48.5 189.1L129.2 209.9C129.2 209.9 144.7 107.4 134.9 91.4998Z" fill="black"/>
<path d="M133.3 191.8C132.8 191.8 132.6 191.4 132.6 191C132.7 190.4 139.8 128 137.5 112.4C137.4 112 137.7 111.7 138.1 111.6C138.5 111.5 138.8 111.8 138.9 112.2C141.2 128 134.3 188.6 134 191.2C133.9 191.6 133.6 191.8 133.3 191.8Z" fill="#231F20"/>
<path d="M112.6 74.1001C108.2 72.6001 104.2 70.7001 101 67.0001C99.5004 65.5001 98.6004 63.6001 98.2004 61.6001C98.0004 59.5001 99.0004 57.2001 101 56.6001C99.1004 55.3001 97.9004 53.2001 97.9004 50.8001C97.9004 48.5001 98.5004 46.3001 99.6004 44.3001C101 41.7001 103.3 39.2001 106.3 39.1001C105.2 36.8001 104.2 34.2001 105.2 31.9001C105.8 30.8001 106.7 29.8001 107.7 29.1001C109.7 27.6001 111.8 26.2001 114 25.1001C115.2 24.5001 116.7 24.0001 117.8 24.8001C119.1 20.1001 123 16.5001 127.9 15.6001C130.2 15.1001 132.7 15.4001 134.8 16.5001C135.5 16.8001 140.7 21.4001 140.4 21.4001C143.8 20.4001 149.3 21.3001 151.8 23.9001C154 26.3001 154.8 29.6001 153.8 32.7001C156.3 34.1001 158.4 36.0001 160.1 38.3001C161.8 40.6001 162.3 43.6001 161.5 46.4001C160.6 49.1001 157.9 51.2001 155.1 50.8001C157.5 53.3001 157.6 57.2001 155.4 59.8001C153.1 62.3001 149.6 63.2001 146.4 62.0001C146 61.8001 145.5 61.7001 145.1 61.7001C144.6 61.9001 144.1 62.2001 143.7 62.6001C142.2 63.7001 140.5 63.3001 138.9 64.0001C136.8 64.9001 134.8 66.9001 132.9 68.1001C131 69.4001 129 70.6001 126.9 71.7001C124.6 72.9001 122.5 74.8001 119.9 75.6001C117.7 76.3001 116.4 75.3001 114.3 74.6001L112.6 74.1001Z" fill="white"/>
<path d="M118.301 76.4999C117.301 76.4999 116.201 76.1999 115.301 75.7999C114.901 75.5999 114.401 75.4999 113.901 75.2999L112.301 74.7999C108.501 73.4999 104.101 71.5999 100.401 67.4999C98.8012 65.8999 97.8012 63.8999 97.5012 61.6999C97.3012 59.6999 98.1012 57.6999 99.7012 56.4999C98.2012 54.9999 97.2012 52.9999 97.2012 50.8999C97.2012 48.4999 97.8012 46.0999 99.0012 43.9999C99.8012 42.4999 101.901 39.1999 105.201 38.5999C104.201 36.3999 103.501 33.8999 104.501 31.6999C105.201 30.4999 106.101 29.4999 107.201 28.6999C109.201 27.0999 111.301 25.7999 113.601 24.5999C114.701 23.8999 116.001 23.6999 117.201 23.8999C118.801 19.2999 122.801 15.8999 127.601 14.9999C130.101 14.4999 132.701 14.8999 135.001 15.9999C137.001 17.4999 138.801 19.0999 140.601 20.7999C144.101 19.9999 149.601 20.8999 152.301 23.5999C154.601 25.9999 155.501 29.3999 154.601 32.5999C157.001 33.9999 159.001 35.8999 160.601 38.0999C162.401 40.5999 162.901 43.7999 162.101 46.7999C161.301 49.2999 159.101 51.1999 156.501 51.6999C158.201 54.4999 157.901 57.8999 155.901 60.3999C153.401 63.0999 149.601 64.0999 146.101 62.7999H146.001C145.701 62.6999 145.401 62.5999 145.101 62.5999C144.801 62.6999 144.501 62.8999 144.301 63.0999L144.001 63.2999C143.101 63.8999 142.101 64.1999 141.001 64.2999C140.401 64.3999 139.701 64.4999 139.101 64.7999C137.701 65.4999 136.301 66.3999 135.101 67.4999C134.501 67.9999 133.801 68.4999 133.201 68.8999C131.201 70.1999 129.201 71.3999 127.101 72.5999C126.301 72.9999 125.601 73.4999 124.801 73.9999C123.301 75.0999 121.701 75.8999 120.001 76.4999C119.401 76.4999 118.801 76.5999 118.301 76.4999ZM116.401 24.9999C115.601 25.0999 114.901 25.2999 114.301 25.6999C112.101 26.7999 110.101 28.0999 108.101 29.5999C107.101 30.1999 106.301 31.0999 105.801 32.0999C104.901 34.0999 105.901 36.5999 106.901 38.7999C107.001 38.9999 107.001 39.2999 106.901 39.4999C106.801 39.6999 106.601 39.7999 106.301 39.7999C103.101 39.8999 101.001 43.1999 100.201 44.5999C99.1012 46.4999 98.5012 48.5999 98.6012 50.6999C98.6012 52.7999 99.7012 54.6999 101.401 55.8999C101.601 55.9999 101.801 56.2999 101.701 56.5999C101.701 56.8999 101.501 57.0999 101.201 57.1999C99.5012 57.7999 98.7012 59.8999 98.9012 61.4999C99.2012 63.3999 100.101 65.0999 101.501 66.4999C104.901 70.3999 109.101 72.1999 112.801 73.3999L114.401 73.8999C114.901 74.0999 115.401 74.2999 115.901 74.3999C117.001 74.9999 118.401 75.1999 119.601 74.7999C121.201 74.1999 122.701 73.3999 124.101 72.3999C124.901 71.8999 125.701 71.3999 126.501 70.9999C128.601 69.8999 130.601 68.6999 132.501 67.3999C133.101 66.9999 133.701 66.4999 134.401 65.9999C135.701 64.8999 137.101 63.9999 138.601 63.1999C139.301 62.8999 140.101 62.6999 140.801 62.5999C141.701 62.4999 142.501 62.2999 143.201 61.7999L143.401 61.5999C143.801 61.1999 144.401 60.8999 144.901 60.7999C145.401 60.7999 145.901 60.8999 146.401 61.0999H146.501C149.401 62.1999 152.601 61.3999 154.701 59.0999C156.601 56.7999 156.501 53.2999 154.501 51.0999C154.301 50.8999 154.201 50.5999 154.401 50.2999C154.501 49.9999 154.801 49.8999 155.101 49.8999C157.701 49.9999 160.001 48.3999 160.801 45.8999C161.501 43.2999 161.001 40.5999 159.501 38.4999C157.901 36.2999 155.901 34.3999 153.501 33.0999C153.201 32.8999 153.101 32.5999 153.201 32.2999C154.101 29.4999 153.401 26.3999 151.301 24.1999C148.901 21.7999 143.701 20.8999 140.601 21.7999C140.201 21.8999 139.901 21.6999 139.701 21.3999C138.001 19.7999 136.301 18.1999 134.401 16.7999C132.401 15.7999 130.101 15.4999 127.901 15.9999C123.301 16.8999 119.701 20.1999 118.401 24.5999C118.301 24.7999 118.201 24.9999 118.001 25.0999C117.801 25.1999 117.501 25.0999 117.301 24.9999C117.001 24.7999 116.701 24.6999 116.401 24.6999V24.9999Z" fill="#231F20"/>
<path d="M144.8 63.5C144.8 63.5 148 74.7 146.1 76.2C144.2 77.7 140.5 75.1 140.5 75.1" fill="white"/>
<path d="M144.6 77.3001C143 77.1001 141.4 76.6001 140 75.6001C139.7 75.4001 139.5 75.0001 139.7 74.6001C139.9 74.3001 140.3 74.1001 140.7 74.3001C140.7 74.3001 140.8 74.3001 140.8 74.4001C141.7 75.0001 144.4 76.5001 145.6 75.5001C146.5 74.8001 145.5 68.7001 144.1 63.6001C144 63.2001 144.1 62.8001 144.5 62.7001C144.9 62.6001 145.3 62.7001 145.4 63.1001V63.2001C146.2 65.9001 148.5 74.9001 146.4 76.6001C145.9 77.1001 145.2 77.3001 144.6 77.3001Z" fill="#231F20"/>
<path d="M149.201 42.6997C149.701 43.1997 150.001 43.8997 150.001 44.5997C150.301 47.0997 150.101 49.5997 149.501 51.9997C148.501 56.6997 147.101 61.3997 145.501 65.9997C143.501 72.0997 141.401 78.1997 139.101 84.1997C137.701 87.9997 127.601 84.8997 126.201 83.1997L122.901 98.9997C122.901 98.9997 117.701 98.7997 110.801 92.3997C103.901 85.9997 104.401 84.0997 104.401 84.0997L110.701 66.5997C110.701 66.5997 117.301 68.7997 123.801 62.0997C124.801 60.9997 125.701 59.0997 126.901 58.2997C128.401 57.2997 130.101 57.4997 131.401 56.0997C132.601 54.6997 133.101 52.7997 132.701 50.9997C132.601 50.5997 132.501 50.0997 132.801 49.8997C133.001 49.7997 133.201 49.6997 133.501 49.6997C136.201 49.1997 138.001 46.5997 137.601 43.8997C137.601 43.8997 137.601 43.8997 137.601 43.7997C140.101 44.5997 142.601 42.5997 144.601 40.6997C144.001 41.2997 148.501 42.0997 148.601 42.1997C148.901 42.2997 149.201 42.4997 149.401 42.6997H149.201Z" fill="white"/>
<path d="M122.9 99.5997C122.7 99.5997 117.3 99.2997 110.3 92.8997C103.6 86.7997 103.6 84.4997 103.7 83.8997L110 66.3997C110.1 65.9997 110.5 65.8997 110.9 65.9997C111.1 66.0997 117.2 67.8997 123.3 61.6997C123.7 61.1997 124.1 60.6997 124.4 60.1997C124.9 59.2997 125.7 58.4997 126.5 57.7997C127.1 57.3997 127.8 57.0997 128.6 56.8997C129.5 56.6997 130.3 56.2997 130.9 55.6997C132 54.4997 132.4 52.7997 132.1 51.1997C131.9 50.5997 132 49.8997 132.4 49.3997C132.7 49.1997 133 48.9997 133.4 48.9997C134.6 48.7997 135.6 48.1997 136.2 47.1997C136.9 46.2997 137.1 45.0997 136.9 43.9997C136.8 43.7997 136.9 43.4997 137.1 43.2997C137.3 43.0997 137.5 43.0997 137.8 43.1997C140 43.8997 142.3 41.9997 144.1 40.2997C144.4 39.9997 144.8 39.9997 145.1 40.2997C145.2 40.3997 145.3 40.4997 145.3 40.5997C146.3 40.9997 147.4 41.2997 148.5 41.4997L148.8 41.5997C149.2 41.6997 149.5 41.8997 149.8 42.1997C150.4 42.7997 150.7 43.5997 150.8 44.4997C151.3 47.0997 150.7 49.8997 150.3 52.0997C149.4 56.3997 148.2 60.6997 146.7 64.8997L146.3 66.1997C144.3 72.2997 142.2 78.3997 139.9 84.3997C139.4 85.6997 138.2 86.4997 136.8 86.5997C133.7 87.0997 129 85.6997 126.8 84.3997L123.7 99.0997C123.5 99.3997 123.2 99.5997 122.9 99.5997ZM105 84.2997C105 84.2997 105.2 86.2997 111.2 91.7997C116.5 96.6997 120.8 97.7997 122.3 98.0997L125.5 82.8997C125.6 82.5997 125.8 82.3997 126 82.3997C126.3 82.2997 126.5 82.3997 126.7 82.5997C127.5 83.5997 132.9 85.5997 136.4 85.0997C137.5 84.8997 138.2 84.4997 138.4 83.7997C140.7 77.7997 142.8 71.6997 144.8 65.6997L145.2 64.3997C146.7 60.2997 147.8 56.0997 148.8 51.7997C149.4 49.4997 149.5 47.0997 149.3 44.6997C149.3 44.1997 149.1 43.5997 148.7 43.1997C148.5 43.0997 148.3 42.8997 148.1 42.7997H148C146.7 42.5997 145.5 42.1997 144.3 41.6997C142.6 43.2997 140.5 44.7997 138.2 44.5997C138.2 45.7997 137.9 46.8997 137.2 47.8997C136.3 49.1997 135 49.9997 133.5 50.2997C133.4 50.2997 133.3 50.2997 133.2 50.2997C133.3 50.3997 133.3 50.5997 133.3 50.6997C133.7 52.6997 133.2 54.8997 131.8 56.3997C131 57.1997 130 57.7997 128.9 57.9997C128.3 58.1997 127.7 58.3997 127.2 58.6997C126.5 59.2997 125.9 59.8997 125.5 60.6997C125.1 61.2997 124.7 61.7997 124.2 62.3997C118.6 68.0997 113 67.5997 111.1 67.1997L105 84.2997Z" fill="#231F20"/>
<path d="M128.801 60.1998C129.101 58.5998 129.001 56.9998 128.401 55.3998C128.101 54.1998 127.701 52.9998 127.101 51.8998C126.501 50.7998 125.401 49.9999 124.101 49.7999C123.001 49.6999 121.901 50.1998 121.101 50.8998C120.301 51.6998 119.701 52.5998 119.401 53.6998C117.701 58.2998 118.601 63.4999 121.801 67.2999C121.701 67.0999 121.701 66.9999 121.601 66.7999" fill="white"/>
<path d="M121.7 68.1001C121.5 68.1001 121.3 68.0001 121.2 67.9001C117.9 63.9001 117 58.5001 118.7 53.6001C119.1 52.4001 119.7 51.4001 120.6 50.5001C121.5 49.6001 122.8 49.1001 124.2 49.2001C125.7 49.4001 127 50.3001 127.7 51.6001C128.4 52.7001 128.8 54.0001 129.1 55.3001C129.7 56.9001 129.8 58.7001 129.5 60.4001C129.4 60.8001 129 61.0001 128.7 60.9001C128.3 60.8001 128.1 60.4001 128.2 60.1001C128.2 60.1001 128.2 60.1001 128.2 60.0001C128.5 58.5001 128.3 57.0001 127.8 55.6001C127.5 54.4001 127.1 53.3001 126.6 52.3001C126.1 51.4001 125.2 50.7001 124.1 50.6001C123.2 50.6001 122.3 50.9001 121.7 51.5001C121 52.2001 120.5 53.1001 120.1 54.0001C118.6 58.1001 119.2 62.7001 121.8 66.2001C122 66.3001 122.1 66.4001 122.2 66.6001L122.4 67.1001C122.5 67.4001 122.4 67.8001 122.2 68.0001C122 68.1001 121.9 68.1001 121.7 68.1001Z" fill="#231F20"/>
<path d="M126.201 83.1C126.201 83.1 121.501 79.8 120.201 75.5C120.201 75.5 117.601 84.9 124.701 90.2L126.201 83.1Z" fill="#231F20"/>
<path d="M124.699 90.8999C124.599 90.8999 124.399 90.8999 124.299 90.7999C116.899 85.2999 119.499 75.4999 119.499 75.3999C119.599 75.0999 119.899 74.8999 120.199 74.8999C120.499 74.8999 120.799 75.0999 120.899 75.3999C122.099 79.4999 126.599 82.5999 126.599 82.5999C126.799 82.7999 126.899 82.9999 126.899 83.2999L125.399 90.3999C125.399 90.5999 125.199 90.7999 124.999 90.8999C124.899 90.7999 124.799 90.8999 124.699 90.8999ZM120.499 77.9999C120.299 80.7999 120.499 85.5999 124.199 88.8999L125.299 83.3999C123.499 81.9999 121.799 80.0999 120.499 77.9999Z" fill="#231F20"/>
<path d="M142.813 57.3139C143.243 56.1188 143.213 55.0135 142.745 54.845C142.278 54.6766 141.55 55.5088 141.119 56.7038C140.689 57.8989 140.719 59.0042 141.187 59.1727C141.654 59.3411 142.382 58.5089 142.813 57.3139Z" fill="#231F20"/>
<path d="M140.4 74.9997L134.4 70.1997C134.4 70.1997 129.8 77.7997 132 81.7997C134.2 85.7997 138.9 78.9997 140.4 74.9997Z" fill="white"/>
<path d="M133.8 83.8001C132.8 83.8001 131.9 83.2001 131.5 82.2001C129 77.9001 133.7 70.2001 133.9 69.9001C134 69.7001 134.2 69.6001 134.4 69.6001C134.6 69.6001 134.8 69.6001 135 69.7001L141 74.5001C141.2 74.7001 141.3 75.0001 141.2 75.3001C140.3 77.9001 137.1 83.5001 134.1 83.8001H133.8ZM134.6 71.3001C133.6 73.2001 131 78.5001 132.7 81.5001C133.2 82.3001 133.6 82.4001 133.9 82.4001C135.6 82.3001 138.2 78.6001 139.6 75.3001L134.6 71.3001Z" fill="#231F20"/>
<path d="M229.46 92.8504L91.8496 198.364L147.345 270.741L284.955 165.227L229.46 92.8504Z" fill="white"/>
<path d="M147.3 271.5C147.1 271.5 146.9 271.4 146.7 271.2L91.2 198.9C91.1 198.8 91 198.6 91.1 198.4C91.1 198.2 91.2 198 91.4 197.9L229 92.3C229.3 92.1 229.7 92.1 230 92.4L285.5 164.7C285.6 164.8 285.7 165 285.6 165.2C285.6 165.4 285.5 165.6 285.3 165.7L147.7 271.3C147.6 271.4 147.4 271.5 147.3 271.5ZM92.8 198.6L147.4 269.8L284 165.1L229.4 93.9L92.8 198.6Z" fill="#231F20"/>
<path d="M159 248.5H158.9C158.7 248.5 158.5 248.4 158.4 248.2C158.3 248.1 158.2 247.9 158.1 247.8C153.4 241.7 144.6 240.5 138.5 245.2C138.2 245.4 137.8 245.4 137.5 245.1L114.1 214.6C113.9 214.3 113.9 213.9 114.2 213.6C120.3 208.9 121.5 200.2 116.8 194C116.7 193.9 116.6 193.7 116.5 193.6C116.4 193.5 116.3 193.3 116.3 193.1C116.3 192.9 116.4 192.7 116.6 192.6L217.3 115.3C217.6 115.1 218.1 115.1 218.3 115.5C218.4 115.6 218.5 115.8 218.6 115.9C223.3 122 232.1 123.2 238.2 118.5C238.3 118.4 238.5 118.3 238.7 118.4C238.9 118.4 239.1 118.5 239.2 118.7L262.6 149.2C262.8 149.5 262.8 149.9 262.5 150.2C256.4 154.9 255.2 163.7 259.9 169.8C260 169.9 260.1 170.1 260.2 170.2C260.3 170.3 260.4 170.5 260.4 170.7C260.4 170.9 260.3 171.1 260.1 171.2L159.4 248.4C159.3 248.4 159.2 248.5 159 248.5ZM147 240.9C151.7 240.9 156.2 243.1 159.1 246.8L258.7 170.4C253.8 163.9 254.8 154.7 261.1 149.4L238.6 120C231.9 124.7 222.7 123.3 217.7 116.8L118.1 193.2C123 199.7 122 209 115.7 214.2L138.2 243.6C140.8 241.8 143.9 240.8 147 240.9Z" fill="#D1D3D4"/>
<path d="M114.8 132.8C114.8 132.8 157.6 185 165.3 186.9C173 188.8 185.8 186.5 184.9 190.6C184 194.7 171.7 194.7 171.7 194.7C171.7 194.7 186.8 201.3 184.9 205.7C183 210.1 175.9 213.8 169.5 211C163.1 208.2 159.5 203.5 154 200.8C148.5 198.1 96.0996 149.7 96.0996 149.7L114.8 132.8Z" fill="white"/>
<path d="M174.2 212.7C172.5 212.7 170.8 212.4 169.3 211.7C166.1 210.2 163.2 208.3 160.5 206C158.4 204.2 156.2 202.7 153.7 201.4C148.1 198.7 97.8 152.1 95.7 150.2C95.6 150.1 95.5 149.9 95.5 149.7C95.5 149.5 95.6 149.3 95.7 149.2L114.3 132.4C114.4 132.3 114.6 132.2 114.8 132.2C115 132.2 115.2 132.3 115.3 132.4C127.2 146.9 159.3 184.8 165.4 186.2C168.7 186.8 172 187.1 175.4 187.1C180.1 187.2 183.8 187.3 185.1 188.9C185.5 189.4 185.6 190.1 185.5 190.7C184.8 194 178.4 194.9 174.6 195.2C179.2 197.5 187.2 202.1 185.6 205.9C184.3 208.5 182.1 210.6 179.3 211.6C177.7 212.3 176 212.7 174.2 212.7ZM97.2 149.7C102.9 154.9 149.2 197.7 154.3 200.2C156.8 201.5 159.1 203.1 161.3 205C163.9 207.2 166.7 209.1 169.8 210.5C172.6 211.7 175.8 211.7 178.7 210.5C181.1 209.6 183.1 207.9 184.3 205.5C185.4 202.9 177.4 198 171.4 195.4C171.1 195.3 170.9 194.9 171 194.6C171.1 194.3 171.3 194 171.7 194C176.2 194 183.6 193 184.2 190.5C184.3 190.3 184.2 190 184.1 189.9C183.3 188.8 179.3 188.7 175.5 188.6C172 188.6 168.6 188.3 165.2 187.7C157.7 185.9 119.7 139.9 114.8 133.9L97.2 149.7Z" fill="#231F20"/>
<path d="M100.4 106.4L118 129.4L93 152.5L78 135.2" fill="black"/>
<path d="M92.9995 153.2C92.7995 153.2 92.5995 153.1 92.4995 153L77.4995 135.7C77.1995 135.4 77.2995 135 77.5995 134.7C77.8995 134.4 78.2995 134.5 78.5995 134.8L93.0995 151.5L117.1 129.4L99.8995 106.9C99.7995 106.5 99.8995 106.1 100.3 106C100.5 105.9 100.799 105.9 100.999 106.1L118.6 129.1C118.8 129.4 118.8 129.8 118.5 130L93.4995 153C93.3995 153.1 93.1995 153.1 92.9995 153.2Z" fill="#231F20"/>
<path d="M358.9 137.7C363 138 367.1 139.1 370.8 141C377.2 144.1 383.4 149.2 384.9 156.1C386.1 161.8 383.9 167.6 381.2 172.7C378.5 177.8 375.1 182.7 373.6 188.3C372.1 193.9 372.8 200.6 377.2 204.3C371.4 201.7 365.4 199 360.7 194.7C357.9 192.2 355.6 188.9 355.3 185.2C355.1 182.1 356.3 179.2 357.5 176.3C359.3 172.1 361.2 167.8 361.5 163.3C361.8 158.8 360.1 153.8 356.1 151.4C352.6 149.4 341.4 149.6 343.1 143.3C344.5 138.5 354.9 137.6 358.9 137.7Z" fill="white"/>
<path d="M377.1 205.1C377 205.1 376.9 205.1 376.8 205C371 202.4 365 199.7 360.1 195.3C356.7 192.2 354.7 188.7 354.5 185.3C354.3 182.2 355.4 179.2 356.7 176.1L356.9 175.5C358.6 171.6 360.3 167.5 360.6 163.3C360.9 158.4 358.9 154.1 355.6 152.1C354.2 151.5 352.7 151 351.2 150.7C347.9 149.9 344.1 149 342.7 146.6C342.1 145.5 342 144.2 342.4 143.1C343.9 137.6 354.8 136.7 358.9 136.9C363.1 137.2 367.3 138.3 371.1 140.3C375.7 142.5 383.8 147.5 385.5 155.9C386.5 160.8 385.3 166.2 381.7 173C381 174.3 380.2 175.6 379.5 176.9C377.4 180.5 375.3 184.3 374.1 188.4C372.8 193.1 372.9 199.9 377.5 203.7C377.8 203.9 377.8 204.4 377.6 204.7C377.6 205 377.4 205.1 377.1 205.1ZM358 138.4C353.3 138.4 344.9 139.6 343.8 143.6C343.5 144.4 343.6 145.3 344 146C345.1 147.9 348.6 148.7 351.6 149.4C353.3 149.7 354.9 150.2 356.4 150.9C360.2 153.1 362.4 158 362.1 163.4C361.8 167.9 360 172 358.3 176.1L358.1 176.7C356.8 179.7 355.8 182.4 356 185.2C356.3 189 359 192.2 361.2 194.3C365.1 197.8 369.8 200.3 374.6 202.4C371.7 198.1 371.8 192.3 373 188.1C374.2 183.9 376.4 180 378.5 176.3C379.2 175 380 173.7 380.7 172.4C384.1 166 385.3 160.8 384.3 156.3C382.7 148.5 375 143.7 370.6 141.6C367 139.7 363 138.6 359 138.4H358Z" fill="#231F20"/>
<path d="M353.901 139.1C355.301 141.5 355.801 144.2 355.401 146.9C355.301 148.7 354.601 150.5 353.501 151.9C352.001 153.6 349.801 154.4 347.601 154.2C346.601 154.2 345.701 153.8 344.901 153.1C344.401 152.5 344.001 151.7 343.901 150.9C342.701 145.3 346.801 128.1 353.901 139.1Z" fill="#231F20"/>
<path d="M348.099 155C347.899 155 347.699 155 347.499 155C346.299 155 345.199 154.5 344.399 153.7C343.799 153 343.399 152.1 343.299 151.1C342.399 147 344.199 136.7 348.299 135C350.299 134.2 352.399 135.4 354.499 138.7C355.999 141.2 356.499 144.1 356.099 147C355.999 149 355.299 150.8 354.099 152.4C352.499 154.1 350.399 155 348.099 155ZM349.399 136.2C349.199 136.2 348.899 136.2 348.699 136.3C345.599 137.5 343.699 146.8 344.599 150.8C344.699 151.5 344.999 152.2 345.399 152.7C345.999 153.2 346.799 153.6 347.599 153.6C349.599 153.8 351.599 153 352.899 151.5C353.899 150.2 354.499 148.6 354.599 146.9C354.999 144.4 354.499 141.8 353.199 139.5C352.299 137.9 350.799 136.2 349.399 136.2Z" fill="#231F20"/>
<path d="M316.9 176.3C318.6 178.3 321.1 179.4 325.3 178.9C328.8 178.4 332.1 177.1 334.9 175C346.2 167 352 153.4 349.9 139.7C347.6 126.2 334.1 112.7 319.6 117.9C314.6 119.7 310.7 123.6 308.9 128.6C307 127.8 304.7 128.6 303.3 130.1C299.5 133.9 299.7 137.9 301.7 142.3C305 149.7 309.1 156.7 312.1 164.2C313.8 168.7 314.5 173.4 316.9 176.3Z" fill="white"/>
<path d="M323.499 179.7C320.799 179.9 318.099 178.8 316.399 176.7C314.699 174.7 313.799 171.8 312.899 168.9C312.499 167.5 311.999 166 311.399 164.5C309.599 160.1 307.499 155.8 305.399 151.6C303.899 148.7 302.399 145.7 300.999 142.6C298.599 137.3 299.099 133.1 302.699 129.6C304.199 128 306.299 127.3 308.399 127.7C310.399 122.8 314.299 119 319.199 117.3C324.899 115.2 331.299 115.9 336.499 119.1C343.899 123.6 348.999 131.1 350.499 139.6C352.599 153.5 346.699 167.4 335.299 175.6C332.399 177.7 328.999 179.1 325.399 179.6C324.799 179.7 324.199 179.7 323.499 179.7ZM317.499 175.9C319.199 177.9 321.699 178.7 325.299 178.3C328.699 177.8 331.899 176.5 334.599 174.5C345.599 166.7 351.299 153.3 349.299 139.9C347.799 131.8 342.999 124.7 335.999 120.4C331.199 117.4 325.199 116.8 319.899 118.7C315.099 120.4 311.399 124.2 309.699 128.9C309.599 129.1 309.499 129.2 309.299 129.3C309.099 129.4 308.899 129.4 308.699 129.3C306.999 128.6 304.999 129.5 303.799 130.6C300.599 133.8 300.199 137.2 302.399 142.1C303.799 145.1 305.299 148.1 306.699 151C308.799 155.2 310.999 159.6 312.799 164C313.399 165.5 313.799 167 314.299 168.5C315.099 171.4 315.899 174 317.499 175.9Z" fill="#231F20"/>
<path d="M306.101 145.1C306.101 145.1 297.301 152.6 298.001 154.9C298.701 157.2 303.301 157.1 303.301 157.1" fill="white"/>
<path d="M303.201 157.8C302.401 157.8 298.101 157.7 297.301 155.1C296.501 152.5 303.401 146.4 305.601 144.6C305.901 144.3 306.301 144.4 306.601 144.7C306.901 145 306.801 145.4 306.501 145.7C302.401 149.2 298.301 153.6 298.601 154.7C299.101 156.2 302.201 156.4 303.201 156.4C303.601 156.4 303.901 156.7 303.901 157.1C304.001 157.5 303.701 157.8 303.201 157.8C303.301 157.8 303.301 157.8 303.201 157.8Z" fill="#231F20"/>
<path d="M301.3 195.6C311.2 196.4 328.1 186.4 328.2 186C330.3 179.6 332.6 166.5 332.6 166.5C332.6 166.5 325.9 164.6 324.2 155.5C322.5 146.4 314.2 145 310.9 133.1C306.1 135.2 305.3 142.2 304.1 146.6C302.4 152.8 300.8 159 299.4 165.2C298.5 169.2 308.6 172.1 310.7 171.5C309.1 175.5 306 183.5 301.3 195.6Z" fill="white"/>
<path d="M302.399 196.4C301.999 196.4 301.699 196.4 301.299 196.4C301.099 196.4 300.899 196.3 300.799 196.1C300.699 195.9 300.699 195.7 300.699 195.5C307.299 178.5 307.699 177.5 309.599 172.5C306.999 172.4 302.399 170.9 300.099 168.8C298.999 168 298.499 166.6 298.699 165.3C300.099 159.1 301.699 152.8 303.499 146.7C303.699 146 303.899 145.2 304.099 144.3C305.099 140 306.399 134.6 310.699 132.7C310.899 132.6 311.099 132.6 311.299 132.7C311.499 132.8 311.599 132.9 311.699 133.1C313.399 139.1 316.299 142.3 319.099 145.4C321.699 148.3 324.199 151 325.099 155.6C326.699 164.1 332.699 165.9 332.999 166C333.299 166.1 333.599 166.4 333.499 166.8C333.399 167.3 331.199 180 329.099 186.4C328.599 187.3 312.199 196.4 302.399 196.4ZM302.399 195H302.499C311.599 195 325.999 187 327.599 185.7C329.399 180.1 331.399 169.6 331.799 167.1C329.999 166.4 324.999 163.7 323.599 155.8C322.799 151.6 320.599 149.2 317.999 146.3C315.399 143.4 312.299 140.1 310.499 134.3C307.399 136.2 306.299 140.8 305.399 144.5C305.199 145.4 304.999 146.2 304.799 146.9C303.099 153 301.499 159.3 300.099 165.5C299.999 166.4 300.399 167.2 301.099 167.7C303.699 170.1 309.299 171.4 310.499 171C310.799 170.9 310.999 171 311.199 171.2C311.399 171.4 311.399 171.7 311.299 171.9C309.099 177.7 309.099 177.8 302.399 195Z" fill="#231F20"/>
<path d="M300.801 160.8C300.801 160.8 304.701 165.1 308.701 160.9Z" fill="white"/>
<path d="M304.899 163.5C303.099 163.4 301.499 162.6 300.299 161.3C299.999 161 299.999 160.6 300.299 160.3C300.599 160 300.999 160 301.299 160.3C302.199 161.3 303.499 161.9 304.899 162C306.199 161.9 307.299 161.4 308.099 160.4C308.399 160.1 308.799 160.1 309.099 160.4C309.399 160.7 309.399 161.1 309.099 161.4C308.099 162.6 306.599 163.4 304.899 163.5Z" fill="#231F20"/>
<path d="M310.6 171.6C310.6 171.6 315.8 172.8 319.3 170C319.3 170 316.3 179.3 307.4 179.7L310.6 171.6Z" fill="#231F20"/>
<path d="M307.499 180.4C307.299 180.4 307.099 180.3 306.899 180.1C306.799 179.9 306.699 179.7 306.799 179.4L309.899 171.3C309.999 171 310.399 170.8 310.699 170.9C310.699 170.9 315.699 172 318.799 169.4C319.099 169.2 319.499 169.2 319.799 169.5C319.999 169.7 319.999 169.9 319.899 170.2C319.999 170.3 316.699 180 307.499 180.4ZM311.099 172.4L308.599 178.9C313.699 178.2 316.499 174.2 317.799 171.7C315.599 172.6 313.299 172.8 311.099 172.4Z" fill="#231F20"/>
<path d="M309.931 142.992C310.196 141.75 310.016 140.659 309.53 140.555C309.044 140.452 308.435 141.375 308.171 142.617C307.906 143.86 308.085 144.951 308.572 145.054C309.058 145.158 309.666 144.235 309.931 142.992Z" fill="#231F20"/>
<path d="M317.699 151.9C318.299 150.4 319.299 149.1 320.599 148.2C321.499 147.3 322.499 146.6 323.599 146.1C324.699 145.5 326.099 145.5 327.199 146C328.199 146.6 328.799 147.5 329.099 148.6C329.299 149.7 329.299 150.8 328.999 151.9C327.899 156.7 324.299 160.5 319.499 161.9L319.899 161.6" fill="white"/>
<path d="M319.601 162.5C319.201 162.5 318.901 162.2 318.901 161.8C318.901 161.6 319.001 161.3 319.201 161.2L319.701 160.9C319.901 160.8 320.101 160.8 320.201 160.8C324.301 159.3 327.301 155.8 328.301 151.6C328.601 150.6 328.601 149.6 328.401 148.6C328.201 147.7 327.701 146.9 326.901 146.5C325.901 146.1 324.801 146.1 323.901 146.6C322.901 147.1 321.901 147.8 321.001 148.6C319.801 149.5 318.901 150.6 318.301 152C318.201 152.4 317.801 152.6 317.401 152.4C317.101 152.3 316.901 151.9 317.001 151.6C317.601 150 318.701 148.6 320.101 147.5C321.101 146.6 322.101 145.8 323.301 145.2C324.601 144.6 326.201 144.6 327.501 145.2C328.601 145.9 329.501 147 329.701 148.3C329.901 149.5 329.901 150.7 329.601 151.9C328.401 156.9 324.601 160.9 319.601 162.4C319.701 162.4 319.601 162.4 319.601 162.5Z" fill="#231F20"/>
<path d="M299.7 188.3C299.7 188.3 329.7 176.2 339 186.8C348.3 197.4 353.5 221.8 349.6 274.8L279.5 272.4C279.5 272.2 285.1 194.8 299.7 188.3Z" fill="black"/>
<path d="M258.101 204.3C254.901 201.5 228.001 165.8 227.601 160C227.201 154.2 224.801 144 223.401 144.7C222.001 145.4 221.301 154.7 221.301 154.7C221.301 154.7 214.701 142.8 211.801 142.8C208.901 142.8 202.301 150.6 202.701 154.7C203.101 158.8 233.901 232.3 248.201 234.4C262.501 236.5 299.901 219.7 303.301 219C306.701 218.3 319.201 191 303.301 187C303.401 187 261.401 207.1 258.101 204.3Z" fill="white"/>
<path d="M251 235.2C250.1 235.2 249.1 235.1 248.2 235C233.2 232.8 202.5 159.2 202.1 154.7C201.9 152.1 204.2 148.3 206.4 145.9C207.2 145 209.9 142.1 211.9 142C214.4 142 218.6 148.4 220.8 152.3C221.2 148.8 221.8 144.6 223.1 144C223.4 143.8 223.8 143.9 224.1 144.1C226.1 145.2 228 155.2 228.3 159.9C228.6 165.3 254.7 200.4 258.5 203.7C260.5 205.2 282.7 196 303 186.2C303.1 186.1 303.3 186.1 303.5 186.2C309.1 187.6 312 192.1 311.9 199C311.7 207.7 306.2 219.1 303.5 219.6C302.8 219.7 300.2 220.7 297 222C285.7 226.5 263.2 235.2 251 235.2ZM211.9 143.5C211.1 143.5 209.4 144.6 207.4 146.9C204.9 149.7 203.3 152.8 203.5 154.6C203.9 159.3 235.2 231.7 248.4 233.6C259.4 235.2 284.4 225.4 296.5 220.7C300.1 219.3 302.5 218.4 303.3 218.2C304.8 217.9 310.4 207.9 310.6 198.9C310.7 192.7 308.4 188.9 303.5 187.6C301.9 188.4 292.2 193 282.3 197.2C260.1 206.7 258.4 205.3 257.7 204.7C254.7 202.1 227.3 166.2 227 159.9C226.7 154.5 224.8 146.8 223.7 145.4C223.1 146.5 222.4 150.8 222.1 154.6C222.1 154.9 221.9 155.2 221.6 155.2C221.3 155.3 221 155.1 220.8 154.9C217.6 149.5 213.4 143.5 211.9 143.5Z" fill="#231F20"/>
<path d="M279.5 272.2L277.9 283.1H349.6V274.7L279.5 272.2Z" fill="#231F20"/>
<path d="M349.599 283.8H277.899C277.499 283.8 277.199 283.5 277.199 283.1V283L278.799 272.1C278.799 271.7 279.199 271.5 279.499 271.5L349.599 273.9C349.999 273.9 350.299 274.2 350.299 274.6V283C350.299 283.5 349.999 283.8 349.599 283.8ZM278.699 282.4H348.899V275.4L280.099 273L278.699 282.4Z" fill="#231F20"/>
</svg>
