<svg width="269" height="239" viewBox="0 0 269 239" fill="none" xmlns="http://www.w3.org/2000/svg">
<path d="M126.9 237.5H132.6L149.2 164.2H141.2L126.9 237.5Z" fill="white"/>
<path d="M132.6 237.9H127C126.9 237.9 126.7 237.8 126.6 237.7C126.5 237.6 126.5 237.5 126.5 237.3L140.8 164C140.8 163.8 141 163.6 141.2 163.6H149.2C149.3 163.6 149.5 163.7 149.6 163.8C149.7 163.9 149.7 164.1 149.7 164.2L133.1 237.5C133.1 237.8 132.9 238 132.6 237.9ZM127.5 237H132.2L148.6 164.6H141.6L127.5 237Z" fill="#231F20"/>
<path d="M129.399 114.7C129.399 114.7 85.6992 130.1 80.4992 138.3C75.2992 146.5 72.6992 220.6 72.6992 220.6L96.2992 223.1C96.2992 223.1 102.699 155.6 105.999 152.6C109.299 149.6 165.899 118.3 165.899 118.3L129.399 114.7Z" fill="#231F20"/>
<path d="M96.4008 223.6L72.7008 221.1C72.5008 221.1 72.3008 220.9 72.3008 220.6C72.4008 217.6 74.9008 146.3 80.2008 138C85.5008 129.7 127.501 114.8 129.301 114.2C129.401 114.2 129.401 114.2 129.501 114.2L166.001 117.8C166.201 117.8 166.301 118 166.401 118.2C166.401 118.4 166.401 118.6 166.201 118.7C165.601 119 109.601 150 106.401 153C104.101 155.1 99.4008 196.2 96.8008 223.2C96.8008 223.3 96.7008 223.4 96.7008 223.5C96.5008 223.6 96.5008 223.6 96.4008 223.6ZM73.2008 220.3L96.0008 222.7C96.8008 214 102.501 155.3 105.801 152.3C108.901 149.5 156.001 123.3 164.601 118.6L129.601 115.2C127.401 116 86.0008 130.8 81.0008 138.6C76.0008 146.4 73.4008 214.3 73.2008 220.3Z" fill="#231F20"/>
<path d="M177.199 151.2C176.099 151.2 120.899 151.8 120.899 151.8L146.999 210.6L123.899 220C123.899 220 87.8992 153.8 91.9992 143.9C96.0992 134 153.299 116.1 153.299 116.1L181.599 123.2C181.599 123.3 182.499 151.2 177.199 151.2Z" fill="#231F20"/>
<path d="M123.9 220.4C123.7 220.4 123.6 220.3 123.5 220.2C122 217.5 87.4999 153.7 91.5999 143.7C95.6999 133.7 150.8 116.4 153.2 115.7C153.3 115.7 153.4 115.7 153.4 115.7L181.7 122.8C181.9 122.9 182 123 182 123.2C182 124.2 182.6 146.9 178.7 151C178.3 151.4 177.8 151.7 177.2 151.7L121.5 152.2L147.3 210.4C147.3 210.5 147.3 210.6 147.3 210.7C147.3 210.8 147.2 210.9 147.1 210.9L124 220.2C124 220.4 124 220.4 123.9 220.4ZM153.3 116.5C150.4 117.4 96.2999 134.6 92.3999 144C88.4999 153.2 121.3 214.2 124.1 219.4L146.4 210.4L120.5 152C120.4 151.8 120.5 151.5 120.7 151.4C120.8 151.4 120.8 151.4 120.9 151.4C121.5 151.4 176.1 150.8 177.2 150.8C177.5 150.8 177.9 150.6 178.1 150.4C181.6 146.8 181.2 126.5 181.2 123.6L153.3 116.5Z" fill="#231F20"/>
<path d="M118.001 83.8C118.001 83.8 84.8007 76.7 77.1007 72.4C77.1007 72.4 72.9006 63.1 71.4006 63.2C69.9006 63.3 73.6007 71.6 73.6007 71.6C73.6007 71.6 60.4006 67 59.7006 68.3C59.0006 69.6 60.4006 70 60.4006 70C60.4006 70 58.7006 69.9 58.9006 71C59.1006 72.1 59.8007 71.9 59.8007 71.9C59.8007 71.9 58.0006 72.1 58.1006 73.1C58.2006 74.1 59.5006 74.1 59.5006 74.1C59.5006 74.1 57.3006 73.9 58.2006 75.3C59.1006 76.7 70.4006 80.7 77.0006 83.6C83.6006 86.5 123.701 105 123.701 105L118.001 83.8Z" fill="white"/>
<path d="M123.8 105.7C123.7 105.7 123.7 105.7 123.6 105.7C123.2 105.5 83.3997 87.2001 76.8997 84.3001C74.6997 83.3001 71.8998 82.2001 69.0998 81.1001C62.5998 78.5001 58.4998 76.8001 57.8998 75.8001C57.5998 75.4001 57.4998 74.9001 57.6998 74.5001C57.7998 74.4001 57.8998 74.2001 57.9998 74.2001C57.7998 74.0001 57.6998 73.7001 57.6998 73.5001C57.5998 73.2001 57.6998 72.9001 57.8998 72.6001C58.0998 72.4001 58.3998 72.2001 58.6998 72.0001C58.5998 71.8001 58.4998 71.6001 58.4998 71.4001C58.3998 71.1001 58.4998 70.7001 58.6998 70.4001C58.8998 70.2001 58.9998 70.1001 59.2998 70.0001C59.1998 69.9001 59.1998 69.8001 59.0998 69.7001C58.8998 69.2001 58.9998 68.7001 59.2998 68.3001C59.9998 67.0001 66.7998 69.0001 72.7998 71.1001C71.7998 68.8001 70.1998 64.5001 70.7998 63.4001C70.8998 63.2001 71.0998 63.0001 71.3998 63.0001C72.9998 62.8001 75.7998 68.7001 77.4998 72.3001C85.2998 76.4001 117.8 83.5001 118.1 83.5001C118.3 83.5001 118.4 83.7001 118.4 83.8001L124.3 105.2C124.3 105.4 124.3 105.6 124.2 105.7C124.1 105.7 123.9 105.7 123.8 105.7ZM58.5998 74.9001C58.5998 75.0001 58.6998 75.1001 58.7998 75.2001C59.2998 76.0001 64.9998 78.3001 69.5998 80.1001C72.2998 81.2001 75.0997 82.3001 77.3997 83.3001C83.3997 86.0001 117.3 101.6 123.2 104.3L117.7 84.1001C114.3 83.4001 84.3998 76.8001 76.9998 72.8001C76.8998 72.8001 76.7998 72.7001 76.7998 72.6001C74.9998 68.6001 72.4998 64.1001 71.6998 63.7001C71.4998 64.5001 72.7998 68.3001 74.1998 71.5001C74.2998 71.7001 74.1998 71.9001 74.0998 72.0001C73.9998 72.1001 73.7998 72.2001 73.5998 72.1001C67.7998 70.1001 60.9998 68.2001 60.1998 68.7001C60.0998 68.9001 60.0998 69.1001 60.0998 69.3001C60.1998 69.5001 60.3998 69.7001 60.6998 69.8001C60.8998 69.9001 61.0998 70.1001 60.9998 70.3001C60.9998 70.5001 60.7998 70.7001 60.4998 70.7001C60.1998 70.7001 59.7998 70.7001 59.4998 70.9001C59.4998 70.9001 59.4998 71.0001 59.4998 71.1001C59.5998 71.5001 59.7998 71.7001 59.7998 71.7001H59.8998C60.1998 71.7001 60.3998 71.9001 60.3998 72.1001C60.3998 72.3001 60.2998 72.5001 60.0998 72.6001H59.8998C59.4998 72.6001 59.0998 72.8001 58.7998 73.0001C58.7998 73.1001 58.7998 73.1001 58.7998 73.2001C58.8998 73.6001 59.1998 73.8001 59.5998 73.8001H59.7998C59.9998 73.8001 60.1998 74.0001 60.1998 74.3001C60.1998 74.6001 59.8998 74.8001 59.5998 74.7001C59.1998 74.7001 58.8998 74.7001 58.5998 74.9001Z" fill="#231F20"/>
<path d="M142.1 28.5999C145.525 28.5999 148.3 25.1973 148.3 20.9999C148.3 16.8025 145.525 13.3999 142.1 13.3999C138.676 13.3999 135.9 16.8025 135.9 20.9999C135.9 25.1973 138.676 28.5999 142.1 28.5999Z" fill="#231F20"/>
<path d="M142.1 29C138.4 29 135.5 25.4 135.5 21C135.5 16.6 138.5 13 142.1 13C145.7 13 148.8 16.6 148.8 21C148.8 25.4 145.8 29 142.1 29ZM142.1 13.8C138.9 13.8 136.3 17 136.3 21C136.3 25 138.9 28.2 142.1 28.2C145.3 28.2 147.9 25 147.9 21C147.9 17 145.3 13.8 142.1 13.8Z" fill="#231F20"/>
<path d="M190.8 52.6C188.6 50.2 185.6 47.8 185.8 44.6C185.9 43.5 186.3 42.4 186.4 41.3C186.7 38.1 184.2 35.3 181.6 33.4C179 31.5 176 29.9 174.4 27.1C171.5 22.1 173.4 15.8 170.8 10.5C168.4 5.50003 163.8 2.00003 158.3 0.900029C154.2 0.100029 149.4 0.300027 146 2.80003C142.6 5.30003 140.3 9.10003 139.6 13.3C139.1 16.7 139.7 20.1 140 23.6C140.3 27 140.1 30.7 138.3 33.6C136.5 36.5 133.3 38.1 130.5 40C125.8 43.2 122.5 51.2 125.1 56.4C128.5 63.2 135.1 67.7 141.3 71.6C151.2 77.7 162.2 83.1 173.8 85C178.7 85.8 184 85.9 188.6 83.9C201.1 78.5 198.7 60.9 190.8 52.6Z" fill="white"/>
<path d="M180 85.9999C177.9 85.9999 175.8 85.7999 173.8 85.4999C163.9 83.8999 153.5 79.5999 141.2 72.0999C135.1 68.3999 128.3 63.7999 124.8 56.6999C122 51.0999 125.5 42.9999 130.4 39.6999C130.9 39.2999 131.5 38.9999 132.1 38.5999C134.3 37.1999 136.7 35.6999 138.1 33.3999C140 30.3999 140 26.3999 139.8 23.6999C139.7 22.8999 139.7 21.9999 139.6 21.1999C139.2 18.5999 139.2 15.8999 139.5 13.2999C140.2 8.99988 142.5 5.09988 146.1 2.49988C149.1 0.299882 153.8 -0.500118 158.8 0.499882C164.4 1.59988 169.1 5.29988 171.6 10.3999C172.9 12.9999 173.1 15.7999 173.2 18.5999C173.4 21.5999 173.6 24.3999 175.1 26.8999C176.3 28.9999 178.4 30.3999 180.5 31.7999C181.1 32.1999 181.6 32.5999 182.2 32.9999C184.6 34.7999 187.5 37.6999 187.2 41.2999C187.1 41.7999 187 42.3999 186.9 42.8999C186.8 43.4999 186.7 43.9999 186.6 44.5999C186.5 47.1999 188.5 49.2999 190.5 51.2999C190.8 51.5999 191.2 51.9999 191.5 52.2999C196.6 57.6999 199.2 66.3999 197.8 73.3999C197 78.2999 193.7 82.3999 189.2 84.2999C186.1 85.4999 183 86.0999 180 85.9999ZM154.2 0.999882C151.4 0.899882 148.6 1.69988 146.3 3.19988C143 5.59988 140.7 9.29988 140.1 13.3999C139.8 15.9999 139.9 18.4999 140.2 21.0999C140.3 21.8999 140.4 22.7999 140.4 23.5999C140.6 26.3999 140.6 30.5999 138.6 33.8999C137.1 36.2999 134.6 37.8999 132.3 39.3999C131.7 39.6999 131.2 40.0999 130.7 40.4999C126.3 43.4999 122.9 51.2999 125.5 56.2999C128.9 63.0999 135.6 67.5999 141.6 71.2999C153.8 78.7999 164.1 82.9999 173.9 84.5999C179.9 85.5999 184.6 85.1999 188.4 83.4999C192.7 81.6999 195.7 77.7999 196.5 73.1999C197.8 66.3999 195.4 58.0999 190.4 52.8999C190.1 52.5999 189.8 52.1999 189.4 51.8999C187.4 49.7999 185.1 47.4999 185.2 44.4999C185.2 43.8999 185.4 43.2999 185.5 42.6999C185.6 42.1999 185.7 41.6999 185.8 41.1999C186.1 37.9999 183.5 35.3999 181.2 33.6999C180.6 33.2999 180.1 32.8999 179.5 32.4999C177.4 30.9999 175.2 29.4999 173.9 27.2999C172.3 24.5999 172.1 21.4999 171.9 18.4999C171.7 15.7999 171.5 13.0999 170.3 10.6999C168 5.89988 163.5 2.39988 158.2 1.29988C156.9 1.09988 155.6 0.999882 154.2 0.999882Z" fill="#231F20"/>
<path d="M133.3 54L113.5 80.9C113.5 80.9 114.6 84.5 123.9 105.3C132.1 101.2 145 79 145 79L133.3 54Z" fill="black"/>
<path d="M154.7 43.8998C154.7 43.8998 136.8 45.8998 132.5 54.5998C128.2 63.2998 129.4 114.7 129.4 114.7L187.1 116C187.1 116 186.8 59.9998 179.4 46.5998C176.7 43.7998 171.7 42.9998 154.7 43.8998Z" fill="black"/>
<path d="M149.401 37.8001L149.301 48.3001C149.301 48.3001 150.401 54.1001 156.701 52.4001C160.501 51.3001 163.601 48.5001 165.201 44.9001L164.501 26.8001C163.701 23.6001 163.301 20.3001 163.401 17.1001C155.701 17.0001 149.601 11.1001 149.601 11.1001C149.601 11.1001 146.901 15.1001 145.801 16.4001C144.901 17.3001 144.101 18.4001 143.401 19.6001C142.301 21.6001 142.401 24.1001 142.401 26.4001C142.401 29.0001 142.701 31.7001 143.201 34.3001C144.301 39.0001 149.401 37.8001 149.401 37.8001Z" fill="white"/>
<path d="M154.6 53.2001C153.5 53.2001 152.5 52.9001 151.6 52.4001C150.2 51.5001 149.3 50.0001 149 48.4001V38.4001C147.6 38.6001 146.2 38.3001 145 37.6001C143.8 36.8001 143.1 35.6001 142.8 34.2001C142.3 31.6001 142 28.9001 142 26.2001C141.9 24.0001 141.9 21.4001 143 19.2001C143.7 18.0001 144.6 17.0001 145.6 16.0001C146.7 14.8001 149.3 10.8001 149.4 10.8001C149.5 10.7001 149.6 10.6001 149.7 10.6001C149.8 10.6001 150 10.6001 150.1 10.7001C150.2 10.7001 156.2 16.4001 163.6 16.5001C163.7 16.5001 163.8 16.6001 163.9 16.6001C164 16.7001 164.1 16.8001 164.1 16.9001C164 19.9001 164.2 22.8001 165 25.7001C165.1 26.0001 165.1 26.3001 165.2 26.6001C165.2 26.6001 165.2 26.9001 165.9 44.7001C165.9 44.8001 165.9 44.8001 165.9 44.9001C164.3 48.7001 161.1 51.6001 157.1 52.7001C156.2 53.0001 155.4 53.2001 154.6 53.2001ZM149.8 48.3001C150.3 51.0001 152.9 52.8001 155.5 52.3001C155.9 52.2001 156.2 52.1001 156.6 52.0001C160.2 50.9001 163.2 48.3001 164.7 44.9001C164.6 43.5001 164 27.0001 164 26.9001C164 26.7001 163.9 26.4001 163.8 26.2001C163.1 23.4001 162.8 20.5001 162.9 17.6001C156.3 17.3001 151.1 13.2001 149.6 11.9001C148.9 13.0001 147 15.7001 146 16.8001C145.1 17.7001 144.3 18.7001 143.7 19.9001C142.7 21.8001 142.7 24.3001 142.8 26.4001C142.8 29.0001 143.1 31.6001 143.6 34.2001C143.8 35.3001 144.4 36.3001 145.4 37.0001C146.6 37.6001 148 37.8001 149.3 37.6001C149.4 37.6001 149.6 37.6001 149.7 37.7001C149.8 37.8001 149.9 37.9001 149.9 38.1001L149.8 48.3001Z" fill="#231F20"/>
<path d="M149.5 42.9997C149.5 42.9997 153.7 43.1997 156.5 40.3997C158.1 38.8997 158.9 36.8997 158.8 34.6997C158.8 34.6997 154.2 37.7997 149.4 37.8997L149.5 42.9997Z" fill="#231F20"/>
<path d="M149.7 43.4001H149.5C149.3 43.4001 149.1 43.2001 149.1 43.0001L149 37.8001C149 37.6001 149.2 37.4001 149.4 37.4001C154 37.3001 158.5 34.3001 158.5 34.3001C158.6 34.2001 158.8 34.2001 158.9 34.3001C159 34.4001 159.1 34.5001 159.2 34.6001C159.3 36.9001 158.4 39.1001 156.8 40.6001C154.9 42.4001 152.3 43.4001 149.7 43.4001ZM149.9 38.2001L150 42.5001C152.3 42.5001 154.5 41.6001 156.2 40.0001C157.5 38.8001 158.2 37.2001 158.4 35.4001C155.8 37.0001 152.9 37.9001 149.9 38.2001Z" fill="#231F20"/>
<path d="M153.101 22.7998C153.101 22.7998 149.701 27.7998 150.501 28.6998C151.301 29.5998 153.501 28.9998 153.501 28.9998" fill="white"/>
<path d="M152.1 29.6C151.4 29.7 150.7 29.4 150.2 29C149.3 28 151.4 24.5 152.7 22.5C152.8 22.3 153.1 22.2 153.3 22.4C153.5 22.5 153.6 22.8 153.4 23C151.8 25.4 150.6 27.9 150.8 28.4C151.2 28.9 152.6 28.7 153.4 28.6C153.6 28.5 153.9 28.7 153.9 28.9C154 29.1 153.8 29.4 153.6 29.4C153.2 29.5 152.7 29.6 152.1 29.6Z" fill="#231F20"/>
<path d="M148.984 21.8782C149.008 21.2711 148.759 20.7685 148.428 20.7555C148.097 20.7425 147.809 21.224 147.785 21.8311C147.762 22.4381 148.011 22.9407 148.342 22.9537C148.673 22.9667 148.961 22.4852 148.984 21.8782Z" fill="#231F20"/>
<path d="M156.928 20.9783C156.952 20.3712 156.703 19.8686 156.371 19.8556C156.04 19.8426 155.753 20.3241 155.729 20.9311C155.705 21.5382 155.954 22.0408 156.285 22.0538C156.616 22.0668 156.904 21.5853 156.928 20.9783Z" fill="#231F20"/>
<path d="M166.6 30.0999C170.025 30.0999 172.8 26.6973 172.8 22.4999C172.8 18.3025 170.025 14.8999 166.6 14.8999C163.176 14.8999 160.4 18.3025 160.4 22.4999C160.4 26.6973 163.176 30.0999 166.6 30.0999Z" fill="#231F20"/>
<path d="M166.6 30.5C162.9 30.5 160 26.9 160 22.5C160 18.1 163 14.5 166.6 14.5C170.2 14.5 173.3 18.1 173.3 22.5C173.3 26.9 170.2 30.5 166.6 30.5ZM166.6 15.3C163.4 15.3 160.8 18.5 160.8 22.5C160.8 26.5 163.4 29.6 166.6 29.6C169.8 29.6 172.4 26.4 172.4 22.5C172.4 18.6 169.8 15.3 166.6 15.3Z" fill="#231F20"/>
<path d="M164.8 16.4998C163.7 11.1998 161.5 6.1998 158.5 1.7998C160 2.0998 161.5 2.5998 162.8 3.2998C162.8 3.2998 167.9 10.3998 168.8 18.5998L164.8 16.4998Z" fill="#231F20"/>
<path d="M168.8 19.0999C168.7 19.0999 168.7 19.0999 168.6 18.9999L164.7 16.8999C164.6 16.7999 164.5 16.6999 164.5 16.5999C163.4 11.3999 161.3 6.3999 158.3 2.0999C158.2 1.9999 158.2 1.7999 158.3 1.5999C158.4 1.3999 158.6 1.3999 158.7 1.3999C160.2 1.6999 161.7 2.1999 163.1 2.9999C163.2 2.9999 163.2 3.0999 163.3 3.0999C163.5 3.3999 168.5 10.3999 169.3 18.5999C169.3 18.7999 169.3 18.8999 169.1 18.9999C168.9 18.9999 168.9 19.0999 168.8 19.0999ZM165.2 16.1999L168.2 17.7999C167.3 12.6999 165.4 7.8999 162.5 3.5999C161.5 3.0999 160.5 2.6999 159.5 2.3999C162.2 6.6999 164.1 11.2999 165.2 16.1999Z" fill="#231F20"/>
<path d="M164.801 28.6001C164.701 28.6001 164.601 28.6001 164.501 28.5001C162.501 26.6001 161.601 24.6001 161.701 22.6001C161.901 20.4001 163.001 18.4001 164.701 17.0001C164.901 16.8001 165.101 16.8001 165.301 17.0001C165.501 17.2001 165.501 17.4001 165.301 17.6001C165.301 17.6001 165.301 17.6001 165.201 17.7001C163.701 19.0001 162.701 20.8001 162.501 22.7001C162.501 24.7001 163.501 26.7001 165.001 27.9001C165.201 28.1001 165.201 28.4001 165.001 28.5001C165.001 28.5001 164.901 28.6001 164.801 28.6001Z" fill="white"/>
<path d="M150.9 31.5999L153.6 30.8999C153.6 30.8999 154.2 34.7999 152.6 35.1999C151 35.5999 150.9 31.5999 150.9 31.5999Z" fill="white"/>
<path d="M152.4 35.7001C152.1 35.7001 151.9 35.6001 151.7 35.5001C150.6 34.7001 150.5 32.0001 150.5 31.7001C150.5 31.5001 150.6 31.3001 150.8 31.3001L153.5 30.6001C153.6 30.6001 153.7 30.6001 153.9 30.7001C154 30.8001 154.1 30.9001 154.1 31.0001C154.2 31.7001 154.6 35.3001 152.8 35.8001C152.6 35.7001 152.5 35.7001 152.4 35.7001ZM151.3 32.0001C151.4 33.0001 151.7 34.4001 152.2 34.7001C152.3 34.8001 152.4 34.8001 152.5 34.8001C153.2 34.6001 153.3 32.9001 153.2 31.5001L151.3 32.0001Z" fill="#231F20"/>
<path d="M129.301 104C129.001 103.9 128.801 103.7 128.901 103.5L138.701 58.6C138.801 58.4 139.001 58.2 139.201 58.3C139.401 58.4 139.601 58.6 139.501 58.8L129.701 103.7C129.601 103.9 129.501 104 129.301 104Z" fill="#231F20"/>
<path d="M125.301 152.1V152.9C125.301 159.1 130.401 164.2 136.601 164.2H192.301C198.501 164.2 203.601 159.1 203.601 152.9V74.8997C203.601 66.6997 189.101 64.9997 185.001 65.5997V114.5C185.001 114.5 164.901 111.6 156.901 124.4C152.201 131.8 151.701 151.6 151.701 151.6L125.301 152.1Z" fill="white"/>
<path d="M192.301 164.6H136.601C130.101 164.6 124.801 159.3 124.801 152.8V152C124.801 151.8 125.001 151.5 125.201 151.5L151.201 151C151.301 148 152.101 130.9 156.501 124C163.901 112.2 181.301 113.5 184.501 113.8V65.3999C184.501 65.1999 184.701 64.9999 184.901 64.9999C187.901 64.5999 196.801 65.2999 201.401 69.2999C203.101 70.5999 204.001 72.6999 204.001 74.7999V152.8C204.001 159.3 198.801 164.6 192.301 164.6ZM125.701 152.5V152.8C125.701 158.8 130.601 163.6 136.601 163.7H192.301C198.301 163.7 203.101 158.8 203.101 152.8V74.7999C203.101 72.8999 202.201 71.1999 200.801 69.9999C196.701 66.3999 188.601 65.5999 185.401 65.8999V114.4C185.401 114.5 185.301 114.7 185.201 114.7C185.101 114.8 185.001 114.8 184.801 114.8C184.601 114.8 164.901 112.1 157.101 124.5C152.501 131.7 152.001 151.3 152.001 151.5C152.001 151.7 151.801 151.9 151.601 151.9L125.701 152.5Z" fill="#231F20"/>
<path d="M179.4 46.6001C179.4 46.6001 197.2 82.0001 203 90.3001C208.8 98.6001 208.2 110.1 208.2 110.1L190.6 108.8C190.6 108.8 174.5 82.6001 169.9 76.1001L179.4 46.6001Z" fill="black"/>
<path d="M208.301 110C208.301 110 202.001 98.4998 193.701 97.0998C185.401 95.6998 151.101 100.4 151.101 100.4C151.101 100.4 145.901 98.1998 143.701 99.2998C141.501 100.4 131.901 105.9 133.301 107.8C134.701 109.7 138.001 107 140.201 107.8C142.401 108.6 147.301 108.4 150.601 108.6C153.901 108.8 208.601 113.9 208.301 110Z" fill="white"/>
<path d="M197.7 112C186.2 112 167.7 110.6 151.4 109.2L150.5 109.1C149.4 109 148.1 109 146.8 109C144.2 108.9 141.4 108.9 139.9 108.3C138.9 108.1 137.9 108.2 136.9 108.6C135.4 109 133.8 109.5 132.8 108.1C132.6 107.8 132.5 107.4 132.6 107.1C133.3 104.2 143.3 98.9999 143.4 98.9999C145.6 97.8999 150.3 99.6999 151.1 99.9999C153.7 99.5999 185.7 95.3999 193.7 96.6999C202.1 98.0999 208.3 109.4 208.6 109.8C208.6 109.9 208.7 109.9 208.7 110C208.7 110.3 208.6 110.5 208.4 110.7C207.6 111.6 203.6 112 197.7 112ZM139.2 107.3C139.6 107.3 140 107.4 140.3 107.5C141.7 108 144.3 108.1 146.9 108.1C148.3 108.1 149.5 108.2 150.6 108.2L151.5 108.3C191.4 111.8 206.7 111.4 207.8 110.1C207 108.7 201.1 98.7999 193.7 97.5999C185.6 96.1999 151.6 100.8 151.2 100.9C151.1 100.9 151 100.9 151 100.9C149.6 100.3 145.6 98.9999 144 99.7999C141.3 101.2 134.2 105.4 133.7 107.4C133.7 107.5 133.7 107.6 133.7 107.7C134.3 108.5 135.2 108.3 136.8 107.8C137.5 107.5 138.3 107.3 139.2 107.3Z" fill="#231F20"/>
<path d="M182.301 94.4999C182.101 94.4999 182.001 94.3999 181.901 94.1999L169.801 67.7999C169.701 67.5999 169.801 67.2999 170.001 67.1999C170.201 67.0999 170.501 67.1999 170.601 67.3999L182.701 93.7999C182.801 93.9999 182.701 94.2999 182.501 94.3999C182.401 94.4999 182.301 94.4999 182.301 94.4999Z" fill="#231F20"/>
<path d="M100.8 170.4C100.6 170.4 100.5 170.3 100.4 170.1C99.1995 167.5 89.0995 144.8 91.6995 141.3C94.2995 137.8 132.3 122.5 133.9 121.8C134.1 121.7 134.4 121.8 134.5 122C134.6 122.2 134.5 122.5 134.3 122.6H134.2C123.2 127 94.2995 139.2 92.2995 141.8C90.5995 144.1 96.6995 159.7 101.2 169.7C101.3 169.9 101.2 170.2 101 170.3C101 170.4 100.9 170.4 100.8 170.4Z" fill="white"/>
<path d="M147 210.6C147 210.6 151.9 219.8 151.1 220.3C150.3 220.8 115.6 237.7 116.8 234.4C118 231.1 123.9 220 123.9 220" fill="white"/>
<path d="M117.2 235.2C117 235.2 116.8 235.2 116.6 235.1C116.3 234.9 116.3 234.5 116.4 234.2C117.7 230.9 123.2 220.1 123.5 219.7C123.6 219.5 123.9 219.4 124.1 219.5C124.3 219.6 124.4 219.9 124.3 220.1C124.2 220.2 118.7 230.9 117.3 234.3C120.8 234.3 148.1 221.4 150.6 219.9C150.6 218.9 148.5 214.6 146.5 210.7C146.4 210.5 146.5 210.2 146.7 210.1C146.9 210 147.2 210.1 147.3 210.3C152.3 219.8 151.6 220.4 151.3 220.6C151 220.8 122.1 235.2 117.2 235.2Z" fill="#231F20"/>
<path d="M96.3992 223.2L94.7992 235.2C94.7992 235.2 55.3992 236.5 56.8992 234.7C58.3992 232.9 72.7992 220.8 72.7992 220.8" fill="white"/>
<path d="M71.3001 236.1C63.2001 236.1 56.7001 235.8 56.3001 235C56.2001 234.8 56.2001 234.5 56.4001 234.4C57.9001 232.6 71.8001 220.9 72.4001 220.4C72.6001 220.2 72.9001 220.3 73.0001 220.5C73.2001 220.7 73.2001 221 73.0001 221.1C72.9001 221.2 59.8001 232.1 57.4001 234.7C60.4001 235.6 81.1001 235.2 94.3001 234.8L95.9001 223.2C95.9001 222.9 96.2001 222.8 96.4001 222.8C96.6001 222.8 96.8001 223.1 96.8001 223.3L95.2001 235.3C95.2001 235.5 95.0001 235.7 94.8001 235.7C88.0001 235.8 78.9001 236.1 71.3001 236.1Z" fill="#231F20"/>
<path d="M205.8 237.5H200.1L183.6 164.2H191.5L205.8 237.5Z" fill="white"/>
<path d="M205.8 237.9H200.1C199.9 237.9 199.7 237.7 199.7 237.5L183.1 164.2C183.1 164.1 183.1 163.9 183.2 163.8C183.3 163.7 183.4 163.6 183.6 163.6H191.6C191.8 163.6 192 163.8 192 164L206.3 237.3C206.3 237.4 206.3 237.6 206.2 237.7C206.1 237.9 206 237.9 205.8 237.9ZM200.5 237H205.2L191.1 164.6H184.1L200.5 237Z" fill="#231F20"/>
<path d="M190.999 196.8C190.899 196.8 190.799 196.8 190.799 196.7L147.399 171.7C147.199 171.6 147.099 171.3 147.199 171.1C147.299 170.9 147.599 170.8 147.799 170.9L191.199 195.9C191.399 196 191.499 196.3 191.399 196.5C191.299 196.7 191.199 196.8 190.999 196.8Z" fill="#231F20"/>
<path d="M142.1 196.8C141.9 196.8 141.6 196.6 141.6 196.4C141.6 196.2 141.7 196.1 141.8 196L185.2 171C185.4 170.9 185.7 170.9 185.8 171.2C185.9 171.4 185.8 171.7 185.6 171.8L142.2 196.8C142.2 196.7 142.1 196.8 142.1 196.8Z" fill="#231F20"/>
<path d="M21.1012 237.7H17.2012L25.2012 117.7H31.8012L21.1012 237.7Z" fill="white"/>
<path d="M21.1012 238.2H17.1012C17.0012 238.2 16.9012 238.1 16.8012 238.1C16.7012 238 16.7012 237.9 16.7012 237.8L24.7012 117.8C24.7012 117.6 24.9012 117.4 25.2012 117.4H31.8012C32.1012 117.4 32.3012 117.6 32.3012 117.9L21.7012 237.9C21.5012 238 21.4012 238.2 21.1012 238.2ZM17.7012 237.3H20.7012L31.3012 118.2H25.6012L17.7012 237.3Z" fill="#231F20"/>
<path d="M220.6 237.7H224.6L216.6 117.7H210L220.6 237.7Z" fill="white"/>
<path d="M224.6 238.2H220.6C220.4 238.2 220.2 238 220.1 237.8L209.5 117.8C209.5 117.7 209.5 117.5 209.6 117.4C209.7 117.3 209.8 117.2 209.9 117.3H216.5C216.7 117.3 216.9 117.5 217 117.7L225 237.7C225 237.8 225 237.9 224.9 238C224.8 238.1 224.7 238.2 224.6 238.2ZM221.1 237.3H224.1L216.2 118.2H210.5L221.1 237.3Z" fill="#231F20"/>
<path d="M5.00078 109.5H236.801C239.101 109.5 241.001 111.4 241.001 113.7C241.001 116 239.101 117.9 236.801 117.9H5.00078C2.70078 117.9 0.800781 116 0.800781 113.7C0.800781 111.4 2.60078 109.5 5.00078 109.5Z" fill="white"/>
<path d="M236.801 118.4H5.00078C2.40078 118.4 0.300781 116.3 0.300781 113.7C0.300781 111.1 2.40078 109 5.00078 109H236.801C239.401 109 241.501 111.1 241.501 113.7C241.501 116.3 239.401 118.4 236.801 118.4ZM5.00078 109.9C2.90078 109.8 1.10078 111.4 1.00078 113.5C0.900782 115.6 2.50078 117.4 4.60078 117.5C4.70078 117.5 4.90078 117.5 5.00078 117.5H236.801C238.901 117.4 240.501 115.6 240.401 113.5C240.301 111.6 238.801 110 236.801 109.9H5.00078Z" fill="#231F20"/>
<path d="M112.301 44.9L117.901 43C119.901 42.3 122.201 43.4 122.901 45.5L123.601 47.6C124.301 49.7 123.201 51.9 121.101 52.6L115.501 54.5L112.301 44.9Z" fill="white"/>
<path d="M115.401 54.9002C115.201 54.9002 115.001 54.8002 115.001 54.6002L111.801 45.1002C111.801 45.0002 111.801 44.9002 111.801 44.8002C111.801 44.7002 111.901 44.6002 112.101 44.6002L117.701 42.7002C120.001 41.9002 122.501 43.2002 123.301 45.5002L124.001 47.6002C124.801 49.9002 123.601 52.4002 121.301 53.2002L115.701 55.1002L115.401 54.9002ZM112.801 45.2002L115.701 53.9002L120.901 52.2002C121.801 51.9002 122.501 51.3002 122.901 50.5002C123.301 49.7002 123.401 48.7002 123.101 47.8002L122.401 45.7002C122.101 44.8002 121.501 44.1002 120.701 43.7002C119.901 43.3002 118.901 43.2002 118.101 43.5002L112.801 45.2002Z" fill="#231F20"/>
<path d="M96.4012 49.9001L112.201 44.6001L115.501 54.6001L99.7012 59.9001C97.1012 60.8001 94.2012 59.4001 93.4012 56.7001L93.2012 56.2001C92.4012 53.7001 93.8012 50.8001 96.4012 49.9001Z" fill="#231F20"/>
<path d="M98.2004 60.6002C95.8004 60.6002 93.7004 59.1002 93.0004 56.9002L92.8004 56.4002C91.8004 53.5002 93.4004 50.4002 96.3004 49.5002L112.1 44.3002C112.3 44.2002 112.6 44.3002 112.7 44.6002L116 54.6002C116 54.7002 116 54.8002 116 54.9002C115.9 55.0002 115.8 55.1002 115.7 55.1002L99.9004 60.3002C99.4004 60.5002 98.8004 60.6002 98.2004 60.6002ZM96.6004 50.3002C94.2004 51.1002 92.9004 53.7002 93.7004 56.1002L93.9004 56.6002C94.7004 59.0002 97.3004 60.3002 99.7004 59.5002L115.1 54.4002L112 45.2002L96.6004 50.3002Z" fill="#231F20"/>
<path d="M93.2008 56.1001L91.3008 56.8001L92.1008 58.8001L94.2008 58.0001L93.2008 56.1001Z" fill="#231F20"/>
<path d="M92.1006 59.3003C91.9006 59.3003 91.8006 59.2003 91.7006 59.0003L90.9006 57.0003C90.8006 56.8003 90.9006 56.5003 91.1006 56.4003L93.0006 55.6003C93.2006 55.5003 93.5006 55.6003 93.6006 55.8003L94.6006 57.8003C94.7006 57.9003 94.7006 58.0003 94.6006 58.2003C94.6006 58.3003 94.5006 58.4003 94.3006 58.4003L92.2006 59.2003C92.2006 59.3003 92.1006 59.3003 92.1006 59.3003ZM91.9006 57.1003L92.4006 58.3003L93.7006 57.8003L93.1006 56.6003L91.9006 57.1003Z" fill="#231F20"/>
<path d="M97.2012 106.6H113.801C115.101 106.6 116.201 107.7 116.201 109V109.5H94.8012V109C94.7012 107.7 95.8012 106.6 97.2012 106.6Z" fill="white"/>
<path d="M116.201 110H94.8008C94.5008 110 94.3008 109.8 94.3008 109.5V109C94.3008 107.4 95.6008 106.1 97.2008 106.1H113.801C115.401 106.1 116.701 107.4 116.701 109V109.5C116.601 109.8 116.501 110 116.201 110ZM95.2008 109.1H115.701C115.701 108 114.801 107.1 113.701 107.1H97.2008C96.1008 107.1 95.2008 108 95.2008 109.1Z" fill="#231F20"/>
<path d="M105.4 52.4004C106.7 52.4004 107.7 53.4004 107.7 54.7004V106.6H103.2V54.7004C103.1 53.4004 104.1 52.4004 105.4 52.4004Z" fill="white"/>
<path d="M107.6 107.1H103.1C102.8 107.1 102.6 106.9 102.6 106.6V54.7001C102.7 53.2001 104 52.0001 105.5 52.1001C106.9 52.2001 108 53.3001 108.1 54.7001V106.6C108.1 106.9 107.9 107.1 107.6 107.1ZM103.6 106.2H107.2V54.7001C107.2 53.7001 106.4 52.9001 105.4 52.9001C104.4 52.9001 103.6 53.7001 103.6 54.7001V106.2Z" fill="#231F20"/>
<path d="M107.8 93.2C107.7 93.2 107.6 93.1 107.5 93.1C107.3 92.9 107.3 92.7 107.5 92.5C109.6 90.8 110.9 88.3 111.2 85.6C111.3 83.8 110.5 82 109.2 80.7C107.5 79.1 105.4 77.9 103.1 77.3C102.2 77 101.3 76.8 100.5 76.5C99.0005 76.1 97.6005 75.6 96.2005 75.1C93.8005 74.1 90.7005 72.3 89.3005 68.9C87.7005 65.3 88.1005 61.1 90.4005 57.8C90.5005 57.6 90.8005 57.6 91.0005 57.7C91.2005 57.8 91.2005 58.1 91.1005 58.3C89.0005 61.3 88.6005 65.2 90.1005 68.5C91.4005 71.6 94.3005 73.3 96.5005 74.2C97.9005 74.7 99.3005 75.2 100.7 75.6C101.6 75.8 102.5 76.1 103.4 76.4C105.8 77.1 108 78.3 109.8 80C111.3 81.5 112.1 83.5 112 85.6C111.7 88.5 110.3 91.3 108 93.1C107.9 93.1 107.9 93.1 107.8 93.2Z" fill="#231F20"/>
<path d="M14.9002 78.1997H53.6002C54.6002 78.1997 55.5002 78.8997 55.8002 79.8997L63.0002 106H88.1002C89.0002 105.9 89.8002 106.6 89.8002 107.5C89.9002 108.4 89.2002 109.2 88.3002 109.2C88.2002 109.2 88.1002 109.2 88.0002 109.2H22.2001C21.2001 109.2 20.3002 108.5 20.0002 107.5L12.7001 80.9997C12.4001 79.7997 13.1002 78.4997 14.3002 78.1997C14.6002 78.1997 14.7002 78.1997 14.9002 78.1997Z" fill="#231F20"/>
<path d="M88.0993 109.6H22.1993C20.9993 109.6 19.8993 108.8 19.5993 107.6L12.3993 81.1998C11.9993 79.7998 12.7993 78.2998 14.2993 77.8998C14.4993 77.7998 14.7993 77.7998 14.9993 77.7998H53.6993C54.8993 77.7998 55.9993 78.5998 56.2993 79.7998L63.3993 105.6H88.1993C89.2993 105.6 90.1993 106.5 90.1993 107.6C90.1993 108.7 89.1993 109.6 88.0993 109.6ZM14.8993 78.5998C13.8993 78.5998 13.0993 79.3998 13.0993 80.3998C13.0993 80.5998 13.0993 80.6998 13.1993 80.8998L20.3993 107.3C20.5993 108.1 21.2993 108.6 22.1993 108.7H88.0993C88.6993 108.6 89.1993 108.1 89.0993 107.4C88.9993 106.8 88.5993 106.4 88.0993 106.4H62.9993C62.7993 106.4 62.5993 106.3 62.5993 106.1L55.3993 80.0998C55.1993 79.2998 54.4993 78.6998 53.5993 78.7998L14.8993 78.5998Z" fill="#231F20"/>
<path d="M61.8992 106.1H23.1992C22.8992 106.1 22.6992 105.9 22.6992 105.6C22.6992 105.3 22.8992 105.1 23.1992 105.1H61.8992C62.1992 105.1 62.3992 105.3 62.3992 105.6C62.3992 105.9 62.1992 106.1 61.8992 106.1Z" fill="white"/>
<path d="M261.8 35.5996H230.4V66.9996H261.8V35.5996Z" fill="white"/>
<path d="M261.8 67.4996H230.4C230.1 67.4996 229.9 67.2996 229.9 66.9996V35.5996C229.9 35.2996 230.1 35.0996 230.4 35.0996H261.8C262.1 35.0996 262.3 35.2996 262.3 35.5996V66.9996C262.3 67.2996 262.1 67.4996 261.8 67.4996ZM230.9 66.4996H261.3V36.0996H230.9V66.4996Z" fill="#D1D3D4"/>
<path d="M256.8 43H235.4C235.1 43 234.9 42.8 234.9 42.5C234.9 42.2 235.1 42 235.4 42H256.8C257.1 42 257.3 42.2 257.3 42.5C257.2 42.8 257 43 256.8 43Z" fill="#D1D3D4"/>
<path d="M256.8 48.7998H235.4C235.1 48.7998 234.9 48.5998 234.9 48.2998C234.9 47.9998 235.1 47.7998 235.4 47.7998H256.8C257.1 47.7998 257.3 47.9998 257.3 48.2998C257.2 48.5998 257 48.7998 256.8 48.7998Z" fill="#D1D3D4"/>
<path d="M256.8 54.6997H235.4C235.1 54.6997 234.9 54.4997 234.9 54.1997C234.9 53.8997 235.1 53.6997 235.4 53.6997H256.8C257.1 53.6997 257.3 53.8997 257.3 54.1997C257.2 54.4997 257 54.6997 256.8 54.6997Z" fill="#D1D3D4"/>
<path d="M249.6 60.5996H235.4C235.1 60.5996 234.9 60.3996 234.9 60.0996C234.9 59.7996 235.1 59.5996 235.4 59.5996H249.6C249.9 59.5996 250.1 59.7996 250.1 60.0996C250.1 60.3996 249.9 60.5996 249.6 60.5996Z" fill="#D1D3D4"/>
<path d="M248.6 31.2998H243.6V38.6998H248.6V31.2998Z" fill="white"/>
<path d="M248.5 39.1998H243.5C243.2 39.1998 243 38.9998 243 38.6998V31.2998C243 30.9998 243.2 30.7998 243.5 30.7998H248.5C248.8 30.7998 249 30.9998 249 31.2998V38.6998C249 38.9998 248.8 39.1998 248.5 39.1998ZM244.1 38.1998H248.1V31.7998H244.1V38.1998Z" fill="#D1D3D4"/>
<path d="M250.401 179.8C250.501 178.2 250.201 176.5 249.401 175.1C248.601 174.1 247.9 173.1 247.3 172.1C246.4 170.2 247 168 246.8 165.9C246.6 164.1 245.801 162.5 244.601 161.2C243.501 160.1 242.101 159.3 241.101 158.2C239.401 156.3 238.901 153.6 237.901 151.3C236.501 148 234.101 145.1 231.001 143.2C232.901 147 228.601 151.8 230.501 155.5C231.101 156.7 232.301 157.5 232.701 158.8C233.801 161.8 230.2 165.1 231.3 168.1C231.9 169.6 233.501 170.5 234.201 171.9C235.201 173.8 234.401 176.1 234.501 178.3C234.601 181.3 236.401 184 238.601 186C240.001 187.3 241.401 188.4 242.901 189.6C244.601 191 245.401 192.5 246.901 190.2C249.101 187.2 250.301 183.6 250.401 179.8Z" fill="#231F20"/>
<path d="M252.301 181.5C251.701 179.2 251.301 176.7 252.301 174.5C253.401 172 256.001 170.3 256.301 167.6C256.501 165.9 255.601 164.1 256.001 162.4C256.401 160.7 257.801 159.5 258.901 158.2C261.601 155.3 263.201 151.5 263.401 147.5C265.201 149.6 266.701 152 267.701 154.6C268.701 157.2 268.501 160.2 267.101 162.6C266.701 163.1 266.301 163.7 266.001 164.4C265.501 166.1 266.901 167.7 267.701 169.3C268.601 171.2 268.401 173.4 267.201 175.1C265.701 177 262.701 177.7 262.001 180.1C261.801 181 261.701 181.8 261.701 182.7C261.401 185.8 259.201 188.5 256.101 189.3C254.301 189.7 254.301 189 254.001 187.5C253.601 185.6 252.801 183.6 252.301 181.5Z" fill="#231F20"/>
<path d="M246.601 164.9C245.301 160.5 244.801 155.8 243.501 151.4C242.401 147.9 240.901 144.6 239.301 141.3L244.801 143.6C246.601 144.3 248.501 145.2 249.301 147C250.801 150 248.101 153.9 249.701 156.8C250.401 157.8 251.101 158.7 251.901 159.5C253.501 161.8 253.301 164.9 252.401 167.6C252.001 168.7 250.401 174.6 248.901 173C248.301 172.4 248.301 169.9 248.001 169C247.501 167.7 247.001 166.3 246.601 164.9Z" fill="#231F20"/>
<path d="M249.6 223.9C248.5 216.6 245.1 191.1 245 190.8L246 190.7C246 190.9 249.5 216.5 250.6 223.8L249.6 223.9Z" fill="#231F20"/>
<path d="M250.9 230.8H249.9C250 222.2 253.6 189.2 255.6 187L256.3 187.7C254.8 189.3 251 221.2 250.9 230.8Z" fill="#231F20"/>
<path d="M252.8 229.1H251.8C252.6 210.5 248.7 171.5 248.6 171.1L249.6 171C249.6 171.4 253.6 210.5 252.8 229.1Z" fill="#231F20"/>
<path d="M240.201 206.4H260.701L259.301 227.1C259.101 230.7 256.101 233.5 252.501 233.5H248.501C244.901 233.5 241.901 230.7 241.701 227.1L240.201 206.4Z" fill="white"/>
<path d="M252.401 234.1H248.401C244.501 234.1 241.301 231.1 241.101 227.2L239.701 206.4C239.701 206.1 239.901 205.9 240.201 205.9C240.201 205.9 240.201 205.9 240.301 205.9H260.801C260.901 205.9 261.101 206 261.201 206.1C261.301 206.2 261.301 206.3 261.301 206.5L259.901 227.3C259.401 231.1 256.201 234 252.401 234.1ZM240.701 206.9L242.101 227.1C242.301 230.4 245.101 233 248.401 233H252.401C255.701 233 258.501 230.4 258.701 227.1L260.101 206.9H240.701Z" fill="#231F20"/>
</svg>
