<svg width="370" height="326" viewBox="0 0 370 326" fill="none" xmlns="http://www.w3.org/2000/svg">
<path d="M348.5 105.5V311.5C348.5 319.1 340 325.3 329.4 325.3H43.7996C33.1996 325.3 24.5996 319.1 24.5996 311.5V105.5C24.5996 97.9002 33.1996 91.7002 43.7996 91.7002H329.4C340 91.7002 348.5 97.9002 348.5 105.5Z" fill="white"/>
<path d="M329.4 326H43.8C32.8 326 24 319.5 24 311.5V105.5C24 97.5 32.9 91 43.8 91H329.4C340.3 91 349.2 97.5 349.2 105.5V311.5C349.2 319.5 340.3 326 329.4 326ZM43.8 92.4C33.6 92.4 25.4 98.3 25.4 105.5V311.5C25.4 318.7 33.7 324.6 43.8 324.6H329.4C339.6 324.6 347.8 318.7 347.8 311.5V105.5C347.8 98.3 339.5 92.4 329.4 92.4H43.8Z" fill="#231F20"/>
<path d="M348.499 105.5V116.3H24.6992V105.5C24.6992 97.9002 33.2992 91.7002 43.8992 91.7002H329.499C339.999 91.7002 348.499 97.9002 348.499 105.5Z" fill="white"/>
<path d="M348.5 117.1H24.7C24.3 117.1 24 116.8 24 116.4V105.6C24 97.6001 32.9 91.1001 43.8 91.1001H329.4C340.3 91.1001 349.2 97.6001 349.2 105.6V116.4C349.2 116.7 348.9 117 348.5 117.1ZM25.4 115.7H347.8V105.6C347.8 98.4001 339.5 92.5001 329.4 92.5001H43.8C33.6 92.5001 25.4 98.4001 25.4 105.6V115.7Z" fill="#231F20"/>
<path d="M297.599 131.5H78.6992V153.3H297.599V131.5Z" fill="white"/>
<path d="M297.6 154H78.7C78.3 154 78 153.7 78 153.3V131.5C78 131.1 78.3 130.8 78.7 130.8H297.6C298 130.8 298.3 131.1 298.3 131.5V153.3C298.3 153.7 298 154 297.6 154ZM79.4 152.6H296.9V132.2H79.4V152.6Z" fill="#231F20"/>
<path d="M297.6 131.5H267.9V153.3H297.6V131.5Z" fill="black"/>
<path d="M297.599 154H267.899C267.499 154 267.199 153.7 267.199 153.3V131.5C267.199 131.1 267.499 130.8 267.899 130.8H297.599C297.999 130.8 298.299 131.1 298.299 131.5V153.3C298.299 153.7 297.999 154 297.599 154ZM268.599 152.6H296.899V132.2H268.599V152.6Z" fill="#231F20"/>
<path d="M327.9 168.4H214.9V281.4H327.9V168.4Z" fill="#D1D3D4"/>
<path d="M180.399 171.2H54.6992V174H180.399V171.2Z" fill="black"/>
<path d="M138.299 179.6H54.6992V182.4H138.299V179.6Z" fill="black"/>
<path d="M189.499 188H54.6992V190.8H189.499V188Z" fill="#D1D3D4"/>
<path d="M173.199 196.3H54.6992V199.1H173.199V196.3Z" fill="#D1D3D4"/>
<path d="M73.4992 205.3H55.6992V206.7H73.4992V205.3Z" fill="#D1D3D4"/>
<path d="M88.5992 205.3H78.6992V206.7H88.5992V205.3Z" fill="#D1D3D4"/>
<path d="M102.6 205.3H93.0996V206.7H102.6V205.3Z" fill="#D1D3D4"/>
<path d="M153.299 221.8H54.6992V224.6H153.299V221.8Z" fill="black"/>
<path d="M173.199 230.1H54.6992V232.9H173.199V230.1Z" fill="black"/>
<path d="M133.899 238.5H54.6992V241.3H133.899V238.5Z" fill="#D1D3D4"/>
<path d="M158.599 246.9H54.6992V249.7H158.599V246.9Z" fill="#D1D3D4"/>
<path d="M64.5992 255.8H55.6992V257.2H64.5992V255.8Z" fill="#D1D3D4"/>
<path d="M88.4996 255.8H69.0996V257.2H88.4996V255.8Z" fill="#D1D3D4"/>
<path d="M99.4996 255.8H93.0996V257.2H99.4996V255.8Z" fill="#D1D3D4"/>
<path d="M164.899 272.3H54.6992V275.1H164.899V272.3Z" fill="black"/>
<path d="M180.399 280.7H54.6992V283.5H180.399V280.7Z" fill="black"/>
<path d="M140.799 289H54.6992V291.8H140.799V289Z" fill="#D1D3D4"/>
<path d="M125.599 297.4H54.6992V300.2H125.599V297.4Z" fill="#D1D3D4"/>
<path d="M78.8992 306.3H55.6992V307.7H78.8992V306.3Z" fill="#D1D3D4"/>
<path d="M97.9008 306.3H84.8008V307.7H97.9008V306.3Z" fill="#D1D3D4"/>
<path d="M46.1996 108.6C48.7401 108.6 50.7996 106.54 50.7996 104C50.7996 101.459 48.7401 99.3999 46.1996 99.3999C43.6591 99.3999 41.5996 101.459 41.5996 104C41.5996 106.54 43.6591 108.6 46.1996 108.6Z" fill="black"/>
<path d="M60.1 108.6C62.6405 108.6 64.7 106.54 64.7 104C64.7 101.459 62.6405 99.3999 60.1 99.3999C57.5595 99.3999 55.5 101.459 55.5 104C55.5 106.54 57.5595 108.6 60.1 108.6Z" fill="#D1D3D4"/>
<path d="M74.0004 108.6C76.5409 108.6 78.6004 106.54 78.6004 104C78.6004 101.459 76.5409 99.3999 74.0004 99.3999C71.4599 99.3999 69.4004 101.459 69.4004 104C69.4004 106.54 71.4599 108.6 74.0004 108.6Z" fill="#D1D3D4"/>
<path d="M279.201 147C275.901 147 273.301 144.3 273.301 141.1C273.301 137.9 276.001 135.2 279.201 135.2C282.501 135.2 285.101 137.9 285.101 141.1C285.101 142.7 284.501 144.2 283.401 145.3C282.301 146.4 280.801 147 279.201 147ZM279.201 136.6C276.701 136.6 274.701 138.6 274.701 141.1C274.701 143.6 276.701 145.6 279.201 145.6C281.701 145.6 283.701 143.6 283.701 141.1C283.701 139.9 283.201 138.7 282.401 137.9C281.601 137 280.401 136.6 279.201 136.6Z" fill="#231F20"/>
<path d="M287.201 149.7C287.001 149.7 286.801 149.6 286.701 149.5L282.401 145.2C282.101 144.9 282.101 144.5 282.401 144.2C282.701 143.9 283.101 143.9 283.401 144.2L287.701 148.5C288.001 148.8 288.001 149.2 287.701 149.5C287.601 149.7 287.401 149.7 287.201 149.7Z" fill="#231F20"/>
<path d="M47.0762 217.514L30.1465 250.641L44.0383 257.74L60.968 224.614L47.0762 217.514Z" fill="#231F20"/>
<path d="M44.0004 258.4C43.9004 258.4 43.8004 258.4 43.7004 258.3L29.8004 251.2C29.5004 251 29.3004 250.6 29.5004 250.3L46.4004 217.2C46.5004 217 46.6004 216.9 46.8004 216.8C47.0004 216.7 47.2004 216.7 47.3004 216.8L61.2004 223.9C61.5004 224.1 61.7004 224.5 61.5004 224.8L44.7004 258C44.6004 258.2 44.5004 258.3 44.3004 258.4H44.0004ZM31.0004 250.3L43.7004 256.8L60.0004 224.9L47.3004 218.4L31.0004 250.3Z" fill="#231F20"/>
<path d="M1.39972 300.9L31.3997 242.2C31.9997 241 33.4997 240.5 34.7997 241.1L49.0997 248.4C50.2997 249 50.7997 250.5 50.1997 251.8L20.1997 310.5C19.5997 311.7 18.0997 312.2 16.7997 311.6L2.49971 304.3C1.19971 303.6 0.799716 302.1 1.39972 300.9Z" fill="white"/>
<path d="M17.4006 312.1C16.7006 312.1 16.1006 311.9 15.5006 311.6L3.00061 305.3C2.00061 304.8 1.30061 303.9 1.00061 302.9C0.700606 301.8 0.800603 300.7 1.2006 299.7L30.3006 242.8C31.3006 240.7 33.8006 239.9 35.9006 241L48.4006 247.4C50.5006 248.5 51.3006 251 50.2006 253L21.1006 309.9C20.6006 310.9 19.7006 311.6 18.7006 312C18.3006 312.1 17.9006 312.1 17.4006 312.1ZM34.0006 241.8C33.7006 241.8 33.4006 241.8 33.1006 241.9C32.4006 242.1 31.8006 242.6 31.5006 243.3L2.40061 300.2C1.70061 301.6 2.2006 303.2 3.6006 303.9L16.1006 310.3C17.5006 311 19.1006 310.5 19.8006 309.1L48.9006 252.2C49.6006 250.8 49.1006 249.2 47.7006 248.5L35.2006 242.1C34.9006 242 34.5006 241.9 34.0006 241.8Z" fill="#231F20"/>
<path d="M86.1008 156.3C66.3008 146.2 42.1008 154 32.0008 173.8C21.9008 193.6 29.7008 217.8 49.5008 227.9C69.3008 238 93.5008 230.2 103.601 210.4C113.701 190.6 105.901 166.4 86.1008 156.3ZM54.2008 218.8C39.5008 211.3 33.7008 193.2 41.2008 178.5C48.7008 163.8 66.8008 158 81.5008 165.5C96.2008 173 102.001 191.1 94.5008 205.8C86.9008 220.5 68.9008 226.3 54.2008 218.8Z" fill="white"/>
<path d="M67.7012 233C45.1012 233 26.7012 214.7 26.7012 192C26.7012 169.4 45.0012 151 67.7012 151C90.4012 151 108.701 169.3 108.701 192C108.701 209.8 97.3012 225.5 80.3012 231C76.3012 232.3 72.0012 233 67.7012 233ZM67.8012 152.5C46.0012 152.4 28.2012 170.1 28.1012 192C28.0012 213.8 45.7012 231.6 67.6012 231.7C89.4012 231.8 107.201 214.1 107.301 192.2C107.301 177.3 99.0012 163.7 85.8012 156.9C80.2012 154 74.1012 152.5 67.8012 152.5ZM67.7012 222.7C62.9012 222.7 58.1012 221.6 53.8012 219.3C38.7012 211.6 32.7012 193.1 40.4012 178C48.1012 162.9 66.6012 156.9 81.7012 164.6C96.8012 172.3 102.801 190.8 95.1012 205.9C89.9012 216.3 79.3012 222.7 67.7012 222.7ZM54.5012 218.1C68.9012 225.4 86.5012 219.7 93.8012 205.4C101.101 191 95.4012 173.4 81.1012 166.1C66.7012 158.8 49.1012 164.5 41.8012 178.8C34.4012 193.1 40.1012 210.7 54.5012 218.1Z" fill="#231F20"/>
<path d="M368.502 207.5H253.602V292.8H368.502V207.5Z" fill="white"/>
<path d="M368.501 293.4H253.501C253.101 293.4 252.801 293.1 252.801 292.7V207.4C252.801 207 253.101 206.7 253.501 206.7H368.501C368.901 206.7 369.201 207 369.201 207.4V292.7C369.301 293.1 369.001 293.4 368.501 293.4ZM254.301 292H367.801V208.1H254.301V292Z" fill="#231F20"/>
<path d="M265.9 276.6H265.8C255.8 276.3 253 266.7 253 266.6C252.9 266.2 253.1 265.8 253.5 265.7C253.9 265.6 254.2 265.8 254.4 266.2C254.5 266.6 256.9 274.9 265.9 275.2H266C270.4 275.2 273.5 263.3 276.3 252.8C279.2 241.9 281.9 231.6 286.4 230.5C288.2 230 290.2 230.3 291.8 231.2C295.9 233.8 297.4 240.9 299.3 249.2C300.2 253.9 301.5 258.5 303 263.1C305.4 269.9 310 274 314.4 273.5C319.9 272.9 324 265.3 325.4 253.1C329.4 218.5 341.5 214.7 346.4 214.7H346.6C359 214.7 365.4 221.4 369.4 238.4C369.5 238.8 369.3 239.2 368.9 239.3C368.5 239.4 368.1 239.2 368 238.8V238.7C364.1 222.2 358.3 216.1 346.5 216.1H346.3C336.7 216.1 329.4 230.1 326.7 253.3C325.2 266.3 320.7 274.2 314.5 274.9C309.5 275.5 304.3 270.9 301.6 263.5C300.1 258.9 298.8 254.2 297.9 249.4C296.2 241.8 294.6 234.5 291.1 232.3C289.8 231.5 288.2 231.3 286.8 231.7C283 232.6 280.2 243.4 277.7 253C274.3 265.3 271.4 276.7 265.9 276.6Z" fill="#231F20"/>
<path d="M357.8 258.7H341.7C341.3 258.7 341 258.4 341 258C341 257.6 341.3 257.3 341.7 257.3H357.8C358.2 257.3 358.5 257.6 358.5 258C358.5 258.4 358.2 258.7 357.8 258.7Z" fill="#D1D3D4"/>
<path d="M357.8 265.4H341.7C341.3 265.4 341 265.1 341 264.7C341 264.3 341.3 264 341.7 264H357.8C358.2 264 358.5 264.3 358.5 264.7C358.5 265.1 358.2 265.3 357.8 265.4Z" fill="#D1D3D4"/>
<path d="M349.802 272H341.802C341.402 272 341.102 271.7 341.102 271.3C341.102 270.9 341.402 270.6 341.802 270.6H349.802C350.202 270.6 350.502 270.9 350.502 271.3C350.502 271.7 350.202 272 349.802 272Z" fill="#D1D3D4"/>
<path d="M281.3 216.2H265.2C264.8 216.2 264.5 215.9 264.5 215.5C264.5 215.1 264.8 214.8 265.2 214.8H281.3C281.7 214.8 282 215.1 282 215.5C282 215.9 281.7 216.2 281.3 216.2Z" fill="#D1D3D4"/>
<path d="M281.3 222.9H265.2C264.8 222.9 264.5 222.6 264.5 222.2C264.5 221.8 264.8 221.5 265.2 221.5H281.3C281.7 221.5 282 221.8 282 222.2C282 222.6 281.7 222.9 281.3 222.9Z" fill="#D1D3D4"/>
<path d="M273.302 229.5H265.302C264.902 229.5 264.602 229.2 264.602 228.8C264.602 228.4 264.902 228.1 265.302 228.1H273.302C273.702 228.1 274.002 228.4 274.002 228.8C274.002 229.2 273.702 229.5 273.302 229.5Z" fill="#D1D3D4"/>
<path d="M252.2 30.2001C254.9 27.5001 258.4 22.9001 255.4 19.0001C254.6 18.0001 253.4 17.3001 252.8 16.2001C252.2 15.1001 252.2 13.5001 251.9 12.2001C251 7.30007 246.3 4.00007 241.5 2.40007C236.7 0.800073 229.3 -0.499927 224.7 2.40007C220.1 5.30007 218.5 11.0001 213.7 13.3001C207.8 16.1001 199.7 11.9001 194.6 16.0001C192.9 17.4001 191.9 19.5001 190 20.7001C188.4 21.6001 186.6 22.0001 184.7 21.9001C175.9 22.4001 166.1 22.2001 159.9 28.4001C153.7 34.6001 153.9 44.6001 155.9 53.1001C156.8 57.0001 158.1 61.0001 160.5 64.2001C164.1 69.0001 169.9 71.8001 175.9 72.6001C184.8 73.7001 194.8 72.6001 198.5 63.5001C199.3 61.4001 199.9 59.1001 201.5 57.5001C205 54.0001 211 56.3001 215.7 54.7001C223.7 52.1001 225.1 40.1001 232.9 37.1001C240.3 34.2001 246.1 36.1001 252.3 30.0001L252.2 30.2001Z" fill="white"/>
<path d="M181.3 73.8002C179.5 73.8002 177.6 73.7002 175.8 73.4002C169.2 72.5002 163.4 69.4002 159.9 64.8002C157.3 61.2002 156 56.9002 155.2 53.4002C153.4 45.6002 152.6 34.8002 159.4 28.0002C165.2 22.2002 173.8 21.8002 182.1 21.4002L184.7 21.3002C186.4 21.3002 188.1 20.9002 189.6 20.1002C190.5 19.4002 191.3 18.6002 192 17.7002C192.6 16.9002 193.3 16.1002 194.1 15.5002C197.1 13.1002 200.9 13.3002 204.6 13.5002C207.6 13.7002 210.7 13.9002 213.3 12.7002C215.9 11.5002 217.4 9.40023 219.2 7.10023C220.6 5.10023 222.3 3.30023 224.3 1.90023C229.6 -1.59977 238.2 0.700234 241.7 1.80023C247.7 3.80023 251.8 7.60023 252.6 12.1002C252.7 12.5002 252.7 12.9002 252.8 13.3002C252.7 14.9002 253.5 16.4002 254.8 17.3002C255.2 17.7002 255.6 18.1002 256 18.5002C258.5 21.7002 257.4 26.1002 252.8 30.6002C248.7 34.6002 244.7 35.3002 240.6 36.0002C238.1 36.3002 235.6 37.0002 233.2 37.8002C229.6 39.2002 227.4 42.6002 225.1 46.3002C222.7 50.1002 220.2 54.1002 215.9 55.4002C213.9 55.9002 211.8 56.1002 209.7 56.1002C206.7 56.1002 203.8 56.1002 201.9 58.0002C200.8 59.2002 200.1 60.7002 199.6 62.2002C199.4 62.7002 199.2 63.2002 199 63.7002C196.5 70.3002 190.4 73.7002 181.3 73.8002ZM201.4 14.8002C199 14.8002 196.9 15.1002 195.1 16.6002C194.4 17.2002 193.8 17.9002 193.2 18.6002C192.4 19.6002 191.5 20.6002 190.5 21.3002C188.8 22.2002 186.8 22.7002 184.9 22.7002C184 22.7002 183.2 22.8002 182.3 22.8002C174.2 23.2002 165.9 23.6002 160.5 29.0002C153.9 35.7002 155.3 47.0002 156.7 53.1002C157.5 56.4002 158.7 60.6002 161.1 64.0002C164.3 68.3002 169.7 71.3002 176 72.1002C183.9 73.1002 194.2 72.4002 197.8 63.4002C198 62.9002 198.2 62.5002 198.3 62.0002C198.8 60.2002 199.7 58.6002 200.9 57.2002C203.2 54.9002 206.5 54.9002 209.6 54.9002C211.5 55.0002 213.5 54.8002 215.4 54.3002C219.2 53.1002 221.4 49.5002 223.8 45.8002C226.2 42.1002 228.5 38.3002 232.5 36.8002C235 35.9002 237.5 35.3002 240.1 34.9002C244.2 34.2002 247.8 33.6002 251.6 29.9002C254 27.6002 257.5 23.2002 254.7 19.7002C254.4 19.3002 254 19.0002 253.6 18.6002C252.1 17.4002 251.2 15.6002 251.2 13.7002C251.2 13.3002 251.1 12.9002 251.1 12.6002C250.4 8.60023 246.7 5.20023 241.2 3.40023C238.7 2.60023 230 0.100232 225 3.40023C223.2 4.80023 221.6 6.40023 220.3 8.30023C218.5 10.6002 216.7 13.0002 213.9 14.3002C211.1 15.6002 207.7 15.5002 204.5 15.3002C203.5 14.9002 202.4 14.9002 201.4 14.8002Z" fill="#231F20"/>
<path d="M94.2 32.7002L94 21.2002H104.3L105.7 35.3002L94.2 32.7002Z" fill="white"/>
<path d="M105.699 36.1C105.599 36.1 105.599 36.1 105.499 36.1L93.9988 33.4C93.6988 33.3 93.4988 33.1 93.4988 32.7L93.2988 21.2C93.2988 21 93.3988 20.8 93.4988 20.7C93.5988 20.6 93.7988 20.5 93.9988 20.5H104.199C104.599 20.5 104.899 20.8 104.899 21.1L106.299 35.3C106.299 35.5 106.199 35.7 106.099 35.9C106.099 36 105.899 36.1 105.699 36.1ZM94.8988 32.1L104.899 34.4L103.599 21.8H94.6988L94.8988 32.1Z" fill="#231F20"/>
<path d="M104.299 21.2004L105.699 14.0004C105.699 14.0004 82.5986 6.70043 83.8986 10.1004C85.1986 13.5004 94.0986 21.2004 94.0986 21.2004H104.299Z" fill="#231F20"/>
<path d="M104.3 21.9002H93.9998C93.7998 21.9002 93.6998 21.8002 93.5998 21.7002C93.1998 21.4002 84.4998 13.8002 83.1998 10.3002C82.9998 9.90024 83.0998 9.40023 83.3998 9.00023C85.2998 7.00023 99.6998 11.3002 105.9 13.3002C106.2 13.4002 106.4 13.8002 106.4 14.1002L105.1 21.3002C104.9 21.7002 104.7 21.9002 104.3 21.9002ZM94.2998 20.5002H103.7L104.9 14.4002C96.0998 11.6002 86.1998 9.20024 84.5998 9.90024C85.5998 12.6002 91.6998 18.3002 94.2998 20.5002Z" fill="#231F20"/>
<path d="M88.7988 80.6005C88.7988 79.5005 92.7988 29.9005 92.7988 29.9005C92.7988 29.9005 107.799 29.2005 107.499 29.9005C107.199 30.6005 111.199 80.6005 111.199 80.6005H88.7988Z" fill="#231F20"/>
<path d="M111.1 81.3003H88.7C88.5 81.3003 88.3 81.2003 88.2 81.1003C88.1 81.0003 88 80.8003 88 80.6003C88 79.5003 91.9 31.9002 92 29.9002C92 29.6002 92.3 29.3003 92.7 29.3003C107.4 28.6003 107.7 29.2002 108 29.6002C108.1 29.8002 108.1 30.0002 108.1 30.2002C107.9 31.8002 110.2 61.2002 111.8 80.7002C111.8 80.9002 111.8 81.1002 111.6 81.2002C111.5 81.2002 111.3 81.3003 111.1 81.3003ZM89.5 79.9002H110.4C107.3 41.7002 106.8 32.6002 106.8 30.4002C105.2 30.2002 99.1 30.3002 93.4 30.6002C92.1 46.6002 89.8 75.0002 89.5 79.9002Z" fill="#231F20"/>
<path d="M244.4 46.1003C244.4 46.1003 236.3 33.9003 237.7 30.4003C239.1 26.9003 241.4 24.4003 243.3 25.1003C245.2 25.8003 250.4 41.7003 250.4 41.7003L244.4 46.1003Z" fill="white"/>
<path d="M244.399 46.9H244.299C244.099 46.9 243.899 46.8 243.799 46.6C242.899 45.3 235.499 34 237.099 30.3C238.899 26.1 241.399 23.9 243.499 24.6C245.499 25.3 249.399 36.8 250.999 41.7C251.099 42 250.999 42.3 250.799 42.5L244.799 46.9C244.599 46.8 244.499 46.9 244.399 46.9ZM242.599 25.7C241.299 25.7 239.599 27.7 238.299 30.7C237.399 32.9 241.399 40.5 244.499 45.1L249.499 41.4C247.099 34.1 243.999 26.3 242.999 25.7C242.899 25.7 242.799 25.7 242.599 25.7Z" fill="#231F20"/>
<path d="M55.9 38.4004L49.7 28.9004L41 35.3004L46.2 45.6004L55.9 38.4004Z" fill="white"/>
<path d="M46.1994 46.3001C46.0994 46.3001 46.0994 46.3001 45.9994 46.3001C45.7994 46.3001 45.5994 46.1001 45.4994 45.9001L40.2994 35.6001C40.0994 35.3001 40.1994 34.9001 40.4994 34.7001L49.1994 28.3001C49.3994 28.2001 49.5994 28.1001 49.6994 28.2001C49.8994 28.2001 50.0994 28.3001 50.1994 28.5001L56.3994 38.0001C56.5994 38.3001 56.5994 38.8001 56.1994 39.0001L46.4994 46.1001C46.4994 46.3001 46.2994 46.3001 46.1994 46.3001ZM41.8994 35.5001L46.3994 44.5001L54.8994 38.3001L49.4994 30.0001L41.8994 35.5001Z" fill="#231F20"/>
<path d="M49.7005 28.9005C49.7005 28.9005 44.7005 20.6005 44.5005 21.2005C44.3005 21.8005 26.1005 34.1005 26.3005 35.3005C26.5005 36.5005 41.0005 35.3005 41.0005 35.3005L49.7005 28.9005Z" fill="#231F20"/>
<path d="M30.6995 36.5004C25.8995 36.5004 25.7995 35.8004 25.6995 35.4004C25.4995 34.5004 26.5995 33.4004 38.8995 24.5004C41.1995 22.8004 43.6995 21.1004 43.9995 20.7004C44.0995 20.5004 44.2995 20.4004 44.4995 20.4004C44.9995 20.4004 45.3995 20.3004 50.2995 28.5004C50.4995 28.8004 50.3995 29.2004 50.0995 29.4004L41.3995 35.8004C41.2995 35.9004 41.1995 35.9004 41.0995 35.9004C36.1995 36.4004 32.8995 36.5004 30.6995 36.5004ZM27.3995 35.0004C29.2995 35.3004 35.2995 35.1004 40.7995 34.6004L48.7995 28.7004C47.0995 26.0004 45.3995 23.1004 44.5995 22.1004C43.9995 22.6004 42.5995 23.6004 39.6995 25.6004C35.7995 28.4004 29.0995 33.3004 27.3995 35.0004Z" fill="#231F20"/>
<path d="M229.299 40.0001C230.899 40.6001 244.499 68.7001 248.699 67.2001C252.899 65.7001 240.599 45.0001 240.599 45.0001L251.599 37.1001C251.599 37.1001 279.799 78.7001 268.999 87.8001C258.199 96.9001 217.299 67.0001 217.299 67.0001L229.299 40.0001Z" fill="black"/>
<path d="M225 33.7002C225 33.7002 215.4 22.6003 201.2 32.1003C187 41.6003 160.1 57.7003 160.1 57.7003L169 92.6003C169 92.6003 190.6 102.2 216.3 89.7002C238.8 78.7002 239.9 61.1003 237 53.7003C234.1 46.3003 225 33.7002 225 33.7002Z" fill="black"/>
<path d="M214.9 86.4001C214.7 86.4001 214.4 86.3001 214.3 86.1001C214.1 85.8001 214.1 85.4001 214.4 85.1001C214.4 85.1001 214.4 85.1001 214.5 85.1001C214.7 85.0001 234.4 71.6001 237.8 57.5001C237.9 57.1001 238.3 56.9001 238.6 57.0001C239 57.1001 239.2 57.5001 239.1 57.8001C235.6 72.4001 216 85.7001 215.2 86.2001C215.2 86.3001 215 86.4001 214.9 86.4001Z" fill="#231F20"/>
<path d="M246.399 27.7002C246.399 27.7002 247.199 35.5002 245.799 36.3002C244.399 37.1002 242.199 34.9002 242.199 34.9002" fill="white"/>
<path d="M245.1 37.2C243.5 37.2 241.9 35.6 241.6 35.4C241.3 35.1 241.3 34.7 241.6 34.4C241.9 34.1 242.3 34.1 242.6 34.4C243.2 35 244.7 36.1 245.4 35.7C245.9 35.3 246 31.5 245.7 27.8C245.7 27.4 245.9 27.1 246.3 27C246.7 27 247 27.2 247.1 27.6C247.4 30.7 247.7 36 246.1 36.9C245.8 37.1 245.5 37.2 245.1 37.2Z" fill="#231F20"/>
<path d="M224.999 54.8C219.799 50.5 216.099 37.7 216.299 37.5C218.399 33.5 220.799 29.6 223.299 25.8C223.299 25.8 227.499 28 232.599 24.3C237.699 20.6 242.499 23.9 249.699 19.5C251.099 22.8 248.199 26.6 246.699 29.4C244.599 33.3 242.499 37.1 240.299 40.8C238.899 43.2 232.499 39.9 231.799 38.6C230.599 41.3 228.399 46.7 224.999 54.8Z" fill="white"/>
<path d="M224.999 55.5004C224.799 55.5004 224.699 55.4004 224.599 55.3004C219.399 51.1004 215.199 38.0004 215.699 37.1004C217.799 33.1004 220.199 29.1004 222.699 25.3004C222.899 25.0004 223.299 24.9004 223.599 25.1004C223.699 25.2004 227.499 27.1004 232.099 23.7004C234.699 21.8004 237.199 21.6004 239.899 21.5004C243.199 21.5004 246.399 20.6004 249.199 19.0004C249.399 18.9004 249.599 18.9004 249.799 18.9004C249.999 19.0004 250.199 19.1004 250.199 19.3004C251.499 22.3004 249.599 25.7004 247.999 28.3004C247.699 28.8004 247.399 29.3004 247.199 29.7004C245.199 33.5004 242.999 37.4004 240.799 41.1004C240.199 41.9004 239.299 42.4004 238.299 42.3004C235.999 42.1004 233.799 41.2004 231.999 39.8004C230.699 42.9004 230.299 43.9004 225.699 55.0004C225.599 55.2004 225.399 55.4004 225.199 55.4004C225.099 55.5004 224.999 55.5004 224.999 55.5004ZM216.999 37.6004C217.299 39.0004 220.399 49.3004 224.799 53.6004C229.499 42.3004 229.499 42.2004 231.099 38.3004C231.199 38.1004 231.399 37.9004 231.699 37.9004C231.999 37.9004 232.199 38.0004 232.299 38.3004C232.699 39.0004 235.999 41.0004 238.299 41.0004C238.999 41.0004 239.399 40.8004 239.599 40.5004C241.799 36.8004 243.999 32.9004 245.999 29.1004C246.199 28.6004 246.499 28.1004 246.899 27.6004C248.099 25.5004 249.699 22.8004 249.199 20.6004C246.399 22.1004 243.199 22.9004 239.999 22.9004C237.399 23.1004 235.199 23.2004 232.899 24.9004C228.599 28.0004 224.899 27.2004 223.499 26.7004C222.399 28.3004 218.699 34.1004 216.999 37.6004Z" fill="#231F20"/>
<path d="M241.599 37.9002C241.599 37.9002 237.599 38.2002 237.699 34.2002Z" fill="white"/>
<path d="M241.499 38.6C240.299 38.6 239.199 38.2 238.299 37.4C237.499 36.6 236.999 35.4 237.099 34.2C237.099 33.8 237.399 33.5 237.799 33.5C238.199 33.5 238.499 33.8 238.499 34.2C238.399 35 238.699 35.8 239.299 36.4C239.999 36.9 240.799 37.2 241.699 37.2C242.099 37.2 242.399 37.4 242.399 37.8C242.399 37.8 242.399 37.8 242.399 37.9C242.399 38.3 242.099 38.6 241.799 38.6H241.499Z" fill="#231F20"/>
<path d="M231.7 38.6002C231.7 38.6002 228.5 36.8002 228.2 33.7002C228.2 33.7002 225.3 39.7002 229.5 44.1002L231.7 38.6002Z" fill="#231F20"/>
<path d="M229.4 44.8001C229.2 44.8001 229 44.7001 228.9 44.6001C224.5 40.0001 227.4 33.7001 227.5 33.4001C227.6 33.1001 227.9 32.9001 228.3 33.0001C228.6 33.1001 228.8 33.3001 228.9 33.6001C229.2 36.3001 232 38.0001 232.1 38.0001C232.4 38.2001 232.5 38.5001 232.4 38.9001L230.1 44.4001C230 44.6001 229.8 44.8001 229.6 44.8001H229.4ZM228.2 36.0001C227.6 38.3001 228 40.8001 229.3 42.8001L230.9 38.9001C229.7 38.1001 228.8 37.1001 228.2 36.0001Z" fill="#231F20"/>
<path d="M246.56 25.4264C247.023 24.674 247.17 23.9232 246.888 23.7494C246.606 23.5757 246.001 24.0448 245.538 24.7973C245.075 25.5497 244.928 26.3005 245.21 26.4742C245.492 26.648 246.097 26.1789 246.56 25.4264Z" fill="#231F20"/>
<path d="M237.5 25.6C237.9 24.6 238 23.5 237.8 22.4C237.8 21.6 237.6 20.7 237.3 19.9C237 19.1 236.4 18.5 235.5 18.2C234.8 18 234 18.2 233.4 18.6C232.8 19 232.3 19.6 231.9 20.3C230.2 23.2 230.2 26.8 231.9 29.6L231.8 29.3" fill="white"/>
<path d="M231.899 30.2004C231.699 30.2004 231.399 30.1004 231.299 29.9004C229.499 26.8004 229.499 22.9004 231.299 19.8004C231.699 19.1004 232.299 18.4004 232.999 17.9004C233.799 17.4004 234.799 17.2004 235.699 17.4004C236.699 17.7004 237.499 18.5004 237.899 19.5004C238.199 20.4004 238.399 21.3004 238.399 22.2004C238.599 23.4004 238.499 24.7004 237.999 25.8004C237.799 26.1004 237.399 26.3004 237.099 26.1004C236.799 25.9004 236.599 25.5004 236.799 25.2004C237.099 24.3004 237.199 23.3004 236.999 22.4004C236.999 21.6004 236.799 20.9004 236.599 20.1004C236.399 19.5004 235.899 19.0004 235.299 18.8004C234.799 18.7004 234.199 18.8004 233.699 19.1004C233.199 19.5004 232.699 20.0004 232.399 20.5004C230.899 23.1004 230.899 26.3004 232.299 29.0004H232.399L232.499 29.3004C232.599 29.6004 232.399 30.0004 232.099 30.1004C232.099 30.2004 231.999 30.2004 231.899 30.2004Z" fill="#231F20"/>
<path d="M160.1 57.7002C153.2 54.9002 136.9 58.3002 126.6 61.7002C116.3 65.1002 82.4 74.4002 82.4 74.4002L57.6 35.2002C57.6 35.2002 40 41.6002 41 43.0002C42 44.4002 58.6 84.2002 75.3 92.2002C92 100.2 170.9 92.9002 170.9 92.9002L160.1 57.7002Z" fill="#231F20"/>
<path d="M110.2 96.8C94.8997 96.8 80.9997 95.9 74.9997 92.9C65.1997 88.2 53.9997 72.3 41.5997 45.7C41.0997 44.6 40.5997 43.6 40.4997 43.4C40.2997 43.2 40.2997 42.8 40.3997 42.6C40.9997 40.7 52.5997 36.3 57.4997 34.6C57.7997 34.5 58.1997 34.6 58.2997 34.9L82.7997 73.6C86.9997 72.4 117 64.2 126.5 61C134.9 58.2 152.7 53.8 160.4 57C160.6 57.1 160.7 57.2 160.8 57.4L171.6 92.7C171.7 92.9 171.6 93.1 171.5 93.3C171.4 93.5 171.2 93.6 171 93.6C168.9 94 137.2 96.9 110.2 96.8ZM41.7997 43C41.9997 43.4 42.2997 44 42.7997 45.2C55.0997 71.5 66.0997 87.2 75.5997 91.7C90.9997 99.1 161.4 93.1 170 92.4L159.6 58.2C152.6 55.6 136.3 59.2 126.9 62.4C116.7 65.8 82.9997 75 82.6997 75.1C82.3997 75.2 82.0997 75.1 81.8997 74.8L57.4997 36.1C50.3997 38.7 42.8997 41.8 41.7997 43Z" fill="#231F20"/>
<path d="M227.299 92.9001V86.8001H267.199L283.599 46.1001H341.599L322.599 86.6001V92.9001H227.299Z" fill="white"/>
<path d="M322.6 93.6H227.3C226.9 93.6 226.6 93.3 226.6 92.9V86.8C226.6 86.4 226.9 86.1 227.3 86.1H266.8L283.1 45.9C283.2 45.6 283.5 45.5 283.7 45.5H341.7C341.9 45.5 342.2 45.6 342.3 45.8C342.4 46 342.4 46.3 342.3 46.5L323.3 86.8V92.9C323.2 93.3 322.9 93.6 322.6 93.6ZM228 92.2H321.9V86.6C321.9 86.5 321.9 86.4 322 86.3L340.6 46.8H284.1L267.9 87C267.8 87.3 267.5 87.4 267.3 87.4H228V92.2Z" fill="#231F20"/>
<path d="M186.9 40.9002C186.9 40.9002 193.5 91.8002 198.2 93.0002C202.9 94.2002 250 84.4002 250 84.4002L246.8 67.9002C246.8 67.9002 212.9 73.9002 213.5 67.9002C214.1 61.9002 209.7 39.2002 209.7 39.2002L186.9 40.9002Z" fill="black"/>
<path d="M198.4 92.9C196.7 92.9 195 92.8 193.4 92.5C190.1 91.8 187.7 88.4 186.3 82.5C184.5 75.3 184.6 66.2 184.7 61.4C184.7 61.3 185.1 49.7 186.5 48.6C186.8 48.3 187.2 48.3 187.5 48.6C187.8 48.9 187.8 49.3 187.5 49.6C186.6 51.2 184.1 74.6 188.9 86C190.1 89 191.8 90.7 193.7 91.1C204.8 93.5 249.4 83.8 249.9 83.7C250.3 83.7 250.6 83.9 250.7 84.3C250.7 84.6 250.5 84.9 250.2 85C248.6 85.3 214.2 92.8 198.4 92.9Z" fill="#231F20"/>
<path d="M217.099 71.3004C216.099 71.3004 214.999 70.9004 214.299 70.1004C208.399 64.6004 208.899 40.1004 208.999 39.1004C208.999 38.7004 209.299 38.4004 209.699 38.4004C210.099 38.4004 210.399 38.7004 210.399 39.1004C210.399 39.3004 209.899 64.0004 215.299 69.1004C215.799 69.7004 216.599 70.0004 217.399 69.9004C225.799 69.1004 246.599 67.2004 246.799 67.1004C247.199 67.0004 247.499 67.3004 247.599 67.7004C247.699 68.1004 247.399 68.4004 246.999 68.5004H246.899C246.699 68.5004 225.899 70.5004 217.499 71.3004H217.099Z" fill="#231F20"/>
<path d="M248.699 70.6004C248.699 70.6004 258.699 63.8004 260.599 65.5004C262.499 67.2004 270.999 78.2004 268.699 79.1004C266.399 80.0004 262.699 76.0004 262.699 76.0004C262.699 76.0004 260.499 79.5004 251.599 78.3004L248.699 70.6004Z" fill="white"/>
<path d="M268 79.9001C266 79.9001 263.7 78.0001 262.7 77.0001C261.5 78.1001 258.4 79.9001 251.5 79.0001C251.2 79.0001 251 78.8001 250.9 78.6001L248 71.0001C247.9 70.7001 248 70.4001 248.3 70.2001C251.5 68.1001 259 63.3001 261.1 65.1001C262.6 66.5001 270.3 76.1001 269.8 78.9001C269.7 79.4001 269.4 79.7001 269 79.9001C268.6 79.9001 268.3 79.9001 268 79.9001ZM262.6 75.2001C262.8 75.2001 263 75.3001 263.1 75.4001C264.4 76.8001 267 78.8001 268.4 78.3001C268.6 77.5001 263.8 69.4001 260.1 65.9001C259.3 65.2001 254.5 67.5001 249.5 70.8001L252 77.5001C259.9 78.5001 262 75.5001 262 75.5001C262.2 75.4001 262.4 75.3001 262.6 75.2001Z" fill="#231F20"/>
<path d="M88.7996 71.3001C88.3996 71.3001 88.0996 71.0001 88.0996 70.6001C88.0996 70.3001 88.2996 70.0001 88.5996 69.9001L111 65.0001C111.4 64.9001 111.7 65.1001 111.8 65.5001C111.9 65.9001 111.6 66.2001 111.3 66.3001L88.8996 71.2001L88.7996 71.3001Z" fill="white"/>
<path d="M321.9 87.5001H267.2C266.8 87.5001 266.5 87.2001 266.5 86.8001C266.5 86.4001 266.8 86.1001 267.2 86.1001H321.9C322.3 86.1001 322.6 86.4001 322.6 86.8001C322.6 87.2001 322.3 87.5001 321.9 87.5001Z" fill="#231F20"/>
</svg>
